<svg width="30" height="30" viewBox="0 0 30 30" fill="none" xmlns="http://www.w3.org/2000/svg">
<path d="M25.459 12.764V23.6567C25.459 24.1412 25.4641 24.6257 25.459 25.1102C25.459 25.1615 25.4564 25.2128 25.4487 25.264C25.459 25.1948 25.4667 25.1282 25.4769 25.0589C25.4641 25.1384 25.4436 25.2128 25.4154 25.2897L25.4923 25.1051C25.4692 25.1615 25.4385 25.2153 25.4077 25.2692C25.3359 25.3922 25.4539 25.1999 25.459 25.2076C25.4615 25.2102 25.3949 25.2768 25.3923 25.282C25.3718 25.3025 25.3513 25.3179 25.3308 25.3384C25.2693 25.3999 25.4949 25.2281 25.3949 25.2871C25.3359 25.3204 25.2795 25.3538 25.218 25.3794L25.4026 25.3025C25.3282 25.3307 25.2513 25.3512 25.1719 25.364C25.2411 25.3538 25.3077 25.3461 25.377 25.3358C25.159 25.3614 24.9335 25.3461 24.7155 25.3461H4.79393C4.73753 25.3461 4.6837 25.3435 4.6273 25.3358C4.69651 25.3461 4.76317 25.3538 4.83238 25.364C4.75291 25.3512 4.67857 25.3307 4.60166 25.3025L4.78624 25.3794C4.72984 25.3563 4.676 25.3256 4.62217 25.2948C4.49912 25.223 4.69139 25.3409 4.6837 25.3461C4.68113 25.3486 4.61448 25.282 4.60935 25.2794C4.58884 25.2589 4.57346 25.2384 4.55295 25.2179C4.49143 25.1564 4.66319 25.382 4.60422 25.282C4.5709 25.223 4.53757 25.1666 4.51194 25.1051L4.58884 25.2897C4.56064 25.2153 4.54013 25.1384 4.52732 25.0589C4.53757 25.1282 4.54526 25.1948 4.55552 25.264C4.53757 25.1179 4.54526 24.9667 4.54526 24.8205V14.2483C4.54526 13.7587 4.54013 13.269 4.54526 12.7794C4.54526 12.7281 4.54783 12.6768 4.55552 12.6256C4.54526 12.6948 4.53757 12.7614 4.52732 12.8306C4.54013 12.7512 4.56064 12.6768 4.58884 12.5999L4.51194 12.7845C4.53501 12.7281 4.56577 12.6743 4.59653 12.6204C4.66831 12.4974 4.55039 12.6896 4.54526 12.682C4.5427 12.6794 4.60935 12.6127 4.61191 12.6076C4.63242 12.5871 4.65293 12.5717 4.67344 12.5512C4.73497 12.4897 4.50937 12.6614 4.60935 12.6025C4.66831 12.5692 4.72471 12.5358 4.78624 12.5102L4.60166 12.5871C4.676 12.5589 4.75291 12.5384 4.83238 12.5256C4.76317 12.5358 4.69651 12.5435 4.6273 12.5538C4.8452 12.5281 5.0708 12.5435 5.2887 12.5435H25.2103C25.2667 12.5435 25.3206 12.5461 25.377 12.5538C25.3077 12.5435 25.2411 12.5358 25.1719 12.5256C25.2513 12.5384 25.3257 12.5589 25.4026 12.5871L25.218 12.5102C25.2744 12.5333 25.3282 12.564 25.3821 12.5948C25.5051 12.6666 25.3129 12.5486 25.3206 12.5435C25.3231 12.541 25.3898 12.6076 25.3949 12.6102C25.4154 12.6307 25.4308 12.6512 25.4513 12.6717C25.5128 12.7332 25.3411 12.5076 25.4 12.6076C25.4334 12.6666 25.4667 12.723 25.4923 12.7845L25.4154 12.5999C25.4436 12.6743 25.4641 12.7512 25.4769 12.8306C25.4667 12.7614 25.459 12.6948 25.4487 12.6256C25.4539 12.6691 25.4564 12.7153 25.459 12.764C25.4667 13.1665 25.8076 13.551 26.2281 13.5331C26.6382 13.5151 27.0048 13.1947 26.9971 12.764C26.9894 12.3051 26.8177 11.877 26.5049 11.5412C26.1922 11.2079 25.7564 11.0361 25.3077 11.0028C25.2539 11.0002 25.2001 11.0002 25.1437 11.0002H4.77342C4.14278 11.0079 3.52239 11.3438 3.22245 11.9129C2.99686 12.3384 3.00455 12.7563 3.00455 13.2126V24.9692C3.00455 25.0436 3.00198 25.1153 3.00711 25.1897C3.03787 25.6383 3.20963 26.0741 3.54546 26.3869C3.87104 26.6919 4.28634 26.8637 4.7324 26.8791C4.8734 26.8842 5.0144 26.8791 5.15539 26.8791H24.7412C24.9027 26.8791 25.0668 26.8817 25.2308 26.8791C25.8794 26.8714 26.5306 26.5099 26.81 25.9075C26.9407 25.6281 26.9997 25.3409 26.9997 25.0333V12.7589C26.9997 12.3564 26.6459 11.9718 26.2306 11.9898C25.8102 12.0129 25.459 12.3333 25.459 12.764Z" fill="#383F41"/>
<path d="M18.5171 18.9422C18.5171 19.1319 18.5043 19.3241 18.4786 19.5113C18.4889 19.4421 18.4966 19.3754 18.5068 19.3062C18.4556 19.6856 18.3556 20.0522 18.2069 20.406L18.2838 20.2214C18.1761 20.4701 18.048 20.711 17.8967 20.9366C17.8583 20.993 17.8198 21.0469 17.7813 21.1007C17.7455 21.1469 17.6583 21.2417 17.8198 21.052C17.7993 21.0776 17.7788 21.1058 17.7557 21.1315C17.6711 21.234 17.5788 21.334 17.484 21.4288C17.3891 21.5237 17.2891 21.6134 17.1866 21.7006C17.1686 21.716 17.1276 21.7621 17.1071 21.7647C17.1379 21.7621 17.2763 21.6365 17.1558 21.7262C17.102 21.7672 17.0456 21.8057 16.9918 21.8416C16.7687 21.9928 16.5303 22.121 16.2816 22.2287L16.4662 22.1518C16.115 22.2979 15.7459 22.4004 15.3664 22.4517C15.4357 22.4415 15.5023 22.4338 15.5715 22.4235C15.1921 22.4722 14.8102 22.4722 14.4307 22.4235C14.5 22.4338 14.5666 22.4415 14.6358 22.4517C14.2564 22.4004 13.8898 22.3005 13.536 22.1518L13.7206 22.2287C13.472 22.121 13.231 21.9928 13.0054 21.8416C12.949 21.8031 12.8952 21.7647 12.8413 21.7262C12.7952 21.6903 12.7003 21.6032 12.89 21.7647C12.8644 21.7442 12.8362 21.7237 12.8106 21.7006C12.708 21.616 12.608 21.5237 12.5132 21.4288C12.4183 21.334 12.3286 21.234 12.2414 21.1315C12.2261 21.1135 12.1799 21.0725 12.1773 21.052C12.1799 21.0828 12.3055 21.2212 12.2158 21.1007C12.1748 21.0469 12.1363 20.9905 12.1004 20.9366C11.9492 20.711 11.821 20.4726 11.7133 20.224L11.7902 20.4085C11.6441 20.0573 11.5416 19.6882 11.4903 19.3088C11.5006 19.378 11.5083 19.4446 11.5185 19.5138C11.4698 19.1344 11.4698 18.7525 11.5185 18.3731C11.5083 18.4423 11.5006 18.5089 11.4903 18.5781C11.5416 18.1987 11.6416 17.8321 11.7902 17.4784L11.7133 17.6629C11.821 17.4143 11.9492 17.1733 12.1004 16.9477C12.1389 16.8913 12.1773 16.8375 12.2158 16.7836C12.2517 16.7375 12.3389 16.6426 12.1773 16.8323C12.1979 16.8067 12.2184 16.7785 12.2414 16.7529C12.326 16.6503 12.4183 16.5503 12.5132 16.4555C12.608 16.3606 12.708 16.2709 12.8106 16.1838C12.8285 16.1684 12.8695 16.1222 12.89 16.1197C12.8593 16.1222 12.7208 16.2478 12.8413 16.1581C12.8952 16.1171 12.9516 16.0786 13.0054 16.0428C13.231 15.8915 13.4694 15.7633 13.7206 15.6557L13.536 15.7326C13.8873 15.5864 14.2564 15.4839 14.6358 15.4326C14.5666 15.4429 14.5 15.4506 14.4307 15.4608C14.8102 15.4121 15.1921 15.4121 15.5715 15.4608C15.5023 15.4506 15.4357 15.4429 15.3664 15.4326C15.7459 15.4839 16.1125 15.5839 16.4662 15.7326L16.2816 15.6557C16.5303 15.7633 16.7713 15.8915 16.9969 16.0428C17.0533 16.0812 17.1071 16.1197 17.161 16.1581C17.2071 16.194 17.302 16.2812 17.1122 16.1197C17.1379 16.1402 17.1661 16.1607 17.1917 16.1838C17.2943 16.2683 17.3942 16.3606 17.4891 16.4555C17.5839 16.5503 17.6737 16.6503 17.7608 16.7529C17.7762 16.7708 17.8224 16.8118 17.8249 16.8323C17.8224 16.8016 17.6967 16.6631 17.7865 16.7836C17.8275 16.8375 17.8659 16.8939 17.9018 16.9477C18.0531 17.1733 18.1813 17.4117 18.2889 17.6629L18.212 17.4784C18.3582 17.8296 18.4607 18.1987 18.512 18.5781C18.5017 18.5089 18.494 18.4423 18.4838 18.3731C18.5043 18.5602 18.5171 18.7525 18.5171 18.9422C18.5197 19.3447 18.8709 19.7292 19.2862 19.7112C19.7015 19.6933 20.0578 19.3729 20.0552 18.9422C20.0501 17.9244 19.7451 16.8913 19.1503 16.0607C18.5273 15.1891 17.6865 14.5456 16.6816 14.1765C14.7563 13.4689 12.444 14.0944 11.1417 15.6787C10.4495 16.5196 10.0419 17.5143 9.95728 18.6012C9.87781 19.6164 10.1367 20.6726 10.6623 21.5416C11.1724 22.3876 11.9441 23.108 12.849 23.5156C13.8616 23.9719 14.9588 24.1078 16.0509 23.8873C18.0249 23.49 19.6707 21.798 19.9783 19.8035C20.0219 19.5164 20.0552 19.2319 20.0552 18.9422C20.0578 18.5397 19.7015 18.1551 19.2862 18.1731C18.8683 18.191 18.5197 18.5115 18.5171 18.9422ZM6.86816 12.5588C6.86816 12.7024 6.85791 12.8434 6.83996 12.9844C6.85022 12.9152 6.85791 12.8485 6.86816 12.7793C6.82971 13.0434 6.76049 13.2972 6.65795 13.5433L6.73486 13.3587C6.66051 13.5356 6.57079 13.7048 6.46312 13.8637C6.43492 13.9047 6.40672 13.9457 6.37596 13.9868C6.28879 14.1098 6.49132 13.8483 6.3939 13.9637C6.32981 14.0406 6.26316 14.1149 6.19138 14.1867C6.12472 14.2534 6.05294 14.3175 5.98116 14.379C5.97347 14.3841 5.93758 14.4226 5.92989 14.4226C5.92989 14.4226 6.0914 14.3021 6.0068 14.3636C5.96578 14.3918 5.92477 14.4226 5.88375 14.4508C5.71968 14.561 5.54536 14.6533 5.36334 14.7302L5.54792 14.6533C5.30181 14.7558 5.04802 14.8251 4.78397 14.8635C4.85319 14.8533 4.91984 14.8456 4.98906 14.8353C4.7045 14.8738 4.4225 14.8712 4.13795 14.8353C4.20716 14.8456 4.27382 14.8533 4.34303 14.8635C4.21998 14.8456 4.09949 14.8225 3.979 14.7917C4.16615 15.0378 4.35585 15.2865 4.54299 15.5326V13.0562C4.54299 12.9126 4.5353 12.7639 4.55325 12.6204C4.54299 12.6896 4.5353 12.7562 4.52505 12.8255C4.53787 12.746 4.55837 12.6716 4.58657 12.5947L4.50967 12.7793C4.53274 12.7229 4.5635 12.6691 4.59426 12.6152C4.66605 12.4922 4.54812 12.6845 4.54299 12.6768C4.54043 12.6742 4.60708 12.6076 4.60965 12.6024C4.63016 12.5819 4.65066 12.5665 4.67117 12.546C4.7327 12.4845 4.5071 12.6563 4.60708 12.5973C4.66605 12.564 4.72244 12.5306 4.78397 12.505L4.59939 12.5819C4.67374 12.5537 4.75064 12.5332 4.83011 12.5204C4.7609 12.5306 4.69424 12.5383 4.62503 12.5486C4.95573 12.5076 5.30694 12.5383 5.64021 12.5383H7.53726C7.29116 12.3512 7.04249 12.1615 6.79638 11.9743C6.82715 12.0948 6.85022 12.2153 6.86816 12.3384C6.85791 12.2692 6.85022 12.2025 6.83996 12.1333C6.85791 12.2743 6.8656 12.4178 6.86816 12.5588C6.87073 12.9613 7.21938 13.3459 7.63724 13.3279C8.05254 13.31 8.40888 12.9895 8.40632 12.5588C8.40375 12.2256 8.36017 11.8897 8.27557 11.5667C8.19097 11.2412 7.86796 11.0027 7.5347 11.0027H4.83524C4.41994 11.0027 4.02771 11.1155 3.69701 11.3719C3.25607 11.7129 3.00997 12.2204 3.00228 12.7767C2.99715 13.2228 3.00228 13.6663 3.00228 14.1124V15.5352C3.00228 15.8684 3.24069 16.194 3.56627 16.276C4.53018 16.5247 5.55561 16.4017 6.42723 15.9223C7.18092 15.5095 7.76798 14.8327 8.10125 14.0457C8.30121 13.574 8.40375 13.0741 8.40632 12.5588C8.40888 12.1564 8.04998 11.7718 7.63724 11.7898C7.21681 11.8077 6.87073 12.1282 6.86816 12.5588ZM6.86816 25.3255C6.86816 25.4691 6.85791 25.6101 6.83996 25.7511C6.85022 25.6818 6.85791 25.6152 6.86816 25.546C6.85022 25.669 6.82715 25.7895 6.79638 25.91C7.04249 25.7229 7.29116 25.5331 7.53726 25.346H5.06084C4.91728 25.346 4.76859 25.3537 4.62503 25.3358C4.69424 25.346 4.7609 25.3537 4.83011 25.3639C4.75064 25.3511 4.6763 25.3306 4.59939 25.3024L4.78397 25.3793C4.72757 25.3563 4.67374 25.3255 4.6199 25.2947C4.49685 25.223 4.68912 25.3409 4.68143 25.346C4.67886 25.3486 4.61221 25.2819 4.60708 25.2794C4.58657 25.2588 4.57119 25.2383 4.55068 25.2178C4.48916 25.1563 4.66092 25.3819 4.60196 25.2819C4.56863 25.223 4.5353 25.1666 4.50967 25.105L4.58657 25.2896C4.55837 25.2153 4.53787 25.1384 4.52505 25.0589C4.5353 25.1281 4.54299 25.1948 4.55325 25.264C4.51223 24.9333 4.54299 24.5821 4.54299 24.2514V22.3543C4.35585 22.6004 4.16615 22.8491 3.979 23.0952C4.09949 23.0644 4.21998 23.0413 4.34303 23.0234C4.27382 23.0337 4.20716 23.0413 4.13795 23.0516C4.4225 23.0157 4.70706 23.0131 4.98906 23.0516C4.91984 23.0413 4.85319 23.0337 4.78397 23.0234C5.04802 23.0618 5.30181 23.1311 5.54792 23.2336L5.36334 23.1567C5.54023 23.231 5.70942 23.3208 5.86837 23.4284C5.90938 23.4566 5.9504 23.4848 5.99142 23.5156C6.11447 23.6028 5.85298 23.4002 5.96835 23.4977C6.04525 23.5617 6.1196 23.6284 6.19138 23.7002C6.25803 23.7668 6.32212 23.8386 6.38365 23.9104C6.38877 23.9181 6.42723 23.954 6.42723 23.9617C6.42723 23.9617 6.30674 23.8002 6.36827 23.8848C6.39646 23.9258 6.42723 23.9668 6.45543 24.0078C6.56566 24.1719 6.65795 24.3462 6.73486 24.5282L6.65795 24.3436C6.76049 24.5897 6.82971 24.8435 6.86816 25.1076C6.85791 25.0384 6.85022 24.9717 6.83996 24.9025C6.85791 25.0409 6.8656 25.1819 6.86816 25.3255C6.87073 25.728 7.21938 26.1125 7.63724 26.0946C8.05254 26.0766 8.40888 25.7562 8.40632 25.3255C8.40119 24.4 8.06792 23.5412 7.48342 22.8286C6.96302 22.1954 6.18369 21.7313 5.38129 21.5673C4.77884 21.4442 4.16615 21.4545 3.56883 21.6083C3.24069 21.6929 3.00228 22.0185 3.00228 22.3517V25.0512C3.00228 25.4665 3.11508 25.8587 3.37143 26.1894C3.71239 26.6304 4.21998 26.8765 4.77628 26.8842C5.22234 26.8893 5.66584 26.8842 6.11191 26.8842H7.5347C7.86796 26.8842 8.19354 26.6457 8.27557 26.3202C8.35761 25.9972 8.40375 25.6613 8.40632 25.3281C8.40888 24.9256 8.04998 24.541 7.63724 24.559C7.21681 24.5744 6.87073 24.8948 6.86816 25.3255ZM25.4593 12.7639V15.5352C25.6464 15.2891 25.8361 15.0404 26.0233 14.7943C25.9028 14.8251 25.7823 14.8481 25.6592 14.8661C25.7285 14.8558 25.7951 14.8481 25.8643 14.8379C25.5798 14.8738 25.2952 14.8763 25.0132 14.8379C25.0824 14.8481 25.1491 14.8558 25.2183 14.8661C24.9543 14.8276 24.7005 14.7584 24.4544 14.6559L24.6389 14.7328C24.462 14.6584 24.2928 14.5687 24.1339 14.461C24.0929 14.4328 24.0519 14.4046 24.0109 14.3739C23.8878 14.2867 24.1493 14.4892 24.0339 14.3918C23.957 14.3277 23.8827 14.2611 23.8109 14.1893C23.7442 14.1226 23.6802 14.0508 23.6186 13.9791C23.6135 13.9714 23.575 13.9355 23.575 13.9278C23.575 13.9278 23.6955 14.0893 23.634 14.0047C23.6058 13.9637 23.575 13.9227 23.5468 13.8817C23.4366 13.7176 23.3443 13.5433 23.2674 13.3612L23.3443 13.5458C23.2418 13.2997 23.1726 13.0459 23.1341 12.7819C23.1444 12.8511 23.1521 12.9177 23.1623 12.987C23.1239 12.7024 23.1264 12.4204 23.1623 12.1359C23.1521 12.2051 23.1444 12.2717 23.1341 12.3409C23.1521 12.2179 23.1751 12.0974 23.2059 11.9769C22.9598 12.164 22.7111 12.3538 22.465 12.5409H24.9414C25.085 12.5409 25.2337 12.5332 25.3772 12.5512C25.308 12.5409 25.2414 12.5332 25.1722 12.523C25.2516 12.5358 25.326 12.5563 25.4029 12.5845L25.2183 12.5076C25.2747 12.5306 25.3285 12.5614 25.3824 12.5922C25.5054 12.6639 25.3132 12.546 25.3208 12.5409C25.3234 12.5383 25.3901 12.605 25.3952 12.6075C25.4157 12.6281 25.4311 12.6486 25.4516 12.6691C25.5131 12.7306 25.3414 12.505 25.4003 12.605C25.4336 12.6639 25.467 12.7203 25.4926 12.7819L25.4157 12.5973C25.4439 12.6716 25.4644 12.7485 25.4772 12.828C25.467 12.7588 25.4593 12.6921 25.449 12.6229C25.4542 12.6691 25.4567 12.7152 25.4593 12.7639C25.467 13.1664 25.8079 13.5509 26.2284 13.533C26.6385 13.5151 27.0051 13.1946 26.9974 12.7639C26.9846 11.9846 26.4873 11.3181 25.7464 11.0771C25.49 10.9925 25.2209 11.0002 24.9568 11.0002H22.465C22.1317 11.0002 21.8062 11.2386 21.7241 11.5642C21.4601 12.5947 21.6139 13.7304 22.1984 14.6277C22.7265 15.4352 23.5417 16.0479 24.4826 16.2837C25.1209 16.4452 25.7925 16.4375 26.4309 16.2735C26.7565 16.1889 26.9949 15.8659 26.9949 15.5326V12.7614C26.9949 12.3589 26.6411 11.9743 26.2258 11.9923C25.8105 12.0128 25.4593 12.3332 25.4593 12.7639ZM25.4593 22.3517V24.8282C25.4593 24.9717 25.467 25.1204 25.449 25.264C25.4593 25.1948 25.467 25.1281 25.4772 25.0589C25.4644 25.1384 25.4439 25.2127 25.4157 25.2896L25.4926 25.105C25.4695 25.1614 25.4388 25.2153 25.408 25.2691C25.3362 25.3921 25.4542 25.1999 25.4593 25.2076C25.4618 25.2101 25.3952 25.2768 25.3926 25.2819C25.3721 25.3024 25.3516 25.3178 25.3311 25.3383C25.2696 25.3998 25.4952 25.2281 25.3952 25.287C25.3362 25.3204 25.2798 25.3537 25.2183 25.3793L25.4029 25.3024C25.3285 25.3306 25.2516 25.3511 25.1722 25.3639C25.2414 25.3537 25.308 25.346 25.3772 25.3358C25.0465 25.3768 24.6953 25.346 24.3621 25.346H22.465C22.7111 25.5331 22.9598 25.7229 23.2059 25.91C23.1751 25.7895 23.1521 25.669 23.1341 25.546C23.1444 25.6152 23.1521 25.6818 23.1623 25.7511C23.1264 25.4665 23.1239 25.1819 23.1623 24.8999C23.1521 24.9692 23.1444 25.0358 23.1341 25.105C23.1726 24.841 23.2418 24.5872 23.3443 24.3411L23.2674 24.5257C23.3418 24.3488 23.4315 24.1796 23.5392 24.0206C23.5674 23.9796 23.5956 23.9386 23.6263 23.8976C23.7135 23.7745 23.511 24.036 23.6084 23.9207C23.6725 23.8437 23.7391 23.7694 23.8109 23.6976C23.8775 23.631 23.9493 23.5669 24.0211 23.5053C24.0288 23.5002 24.0647 23.4618 24.0724 23.4618C24.0724 23.4618 23.9109 23.5823 23.9955 23.5207C24.0365 23.4925 24.0775 23.4618 24.1185 23.4336C24.2826 23.3233 24.4569 23.231 24.6389 23.1541L24.4544 23.231C24.7005 23.1285 24.9543 23.0593 25.2183 23.0208C25.1491 23.0311 25.0824 23.0388 25.0132 23.049C25.2978 23.0106 25.5798 23.0131 25.8643 23.049C25.7951 23.0388 25.7285 23.0311 25.6592 23.0208C25.7823 23.0388 25.9028 23.0618 26.0233 23.0926C26.4129 23.1926 26.8769 22.9644 26.9692 22.5543C27.0615 22.1543 26.8487 21.716 26.4309 21.6083C25.4029 21.3442 24.2647 21.4981 23.3674 22.0826C22.5599 22.6107 21.9472 23.4259 21.7113 24.3667C21.5498 25.005 21.5575 25.6767 21.7216 26.315C21.8062 26.6406 22.1292 26.879 22.4624 26.879H25.1619C25.5772 26.879 25.9694 26.7662 26.3001 26.5099C26.7411 26.1689 26.9872 25.6613 26.9949 25.105C27 24.659 26.9949 24.2155 26.9949 23.7694V22.3466C26.9949 21.9441 26.6411 21.5596 26.2258 21.5775C25.8105 21.6006 25.4593 21.9211 25.4593 22.3517Z" fill="#383F41"/>
<path d="M5 8H24.5" stroke="#383F41" stroke-width="1.7" stroke-linecap="round" stroke-linejoin="round"/>
<path d="M7 4H22.5" stroke="#383F41" stroke-width="1.7" stroke-linecap="round" stroke-linejoin="round"/>
</svg>
