<svg width="30" height="30" viewBox="0 0 30 30" fill="none" xmlns="http://www.w3.org/2000/svg">
<path d="M3 24.2H27" stroke="#383F41" stroke-width="1.7" stroke-linecap="round" stroke-linejoin="round"/>
<path d="M24.2024 15.3723L18.8024 10.521C18.3462 10.1112 17.6545 10.1112 17.1984 10.521L11.7984 15.3723C11.5451 15.5999 11.4004 15.9244 11.4004 16.265V24.2005H23.4004C24.0631 24.2005 24.6004 23.6632 24.6004 23.0005V16.265C24.6004 15.9244 24.4557 15.5999 24.2024 15.3723Z" stroke="#383F41" stroke-width="1.7" stroke-linecap="round" stroke-linejoin="round"/>
<path d="M11.4004 24.2H6.60039C5.93765 24.2 5.40039 23.6627 5.40039 23V6.2C5.40039 5.53726 5.93765 5 6.60039 5H13.8004C14.4631 5 15.0004 5.53726 15.0004 6.2V12.2" stroke="#383F41" stroke-width="1.7" stroke-linecap="round" stroke-linejoin="round"/>
</svg>
