<svg width="30" height="30" viewBox="0 0 30 30" fill="none" xmlns="http://www.w3.org/2000/svg">
<path fill-rule="evenodd" clip-rule="evenodd" d="M23.437 9.17725C23.5217 9.15063 23.6331 9.20387 23.7445 9.35029C23.7445 9.35029 23.7445 9.35029 28.7803 14.2575C29.0744 14.5504 29.0744 14.994 28.7803 15.2115C28.7803 15.2115 28.7803 15.2115 23.7445 20.1941C23.6331 20.3405 23.5217 20.376 23.437 20.3316C23.3523 20.2873 23.2988 20.1586 23.2988 19.9723V9.49671C23.2988 9.31479 23.3523 9.20387 23.437 9.17725Z" fill="#ED1C24"/>
<path fill-rule="evenodd" clip-rule="evenodd" d="M14.8209 1H15.1774L15.5206 1.14198C15.5206 1.14198 15.5206 1.14198 20.7034 6.27105C20.9263 6.56389 20.8505 6.78573 20.4806 6.78573C20.4806 6.78573 20.4806 6.78573 18.3326 6.78573C17.9627 6.78573 17.6686 7.07857 17.6686 7.44684C17.6686 7.44684 17.6686 7.44683 17.6686 11.2537C17.6686 11.622 17.37 11.9148 16.9244 11.9148C16.9244 11.9148 16.9244 11.9148 13.1497 11.9148C12.7798 11.9148 12.4812 11.622 12.4812 11.2537C12.4812 11.2537 12.4812 11.2537 12.4812 7.44684C12.4812 7.07857 12.1871 6.78573 11.8128 6.78573H9.51769C9.14781 6.78573 9.07205 6.56389 9.29487 6.27105C9.29487 6.27105 9.29487 6.27105 14.4822 1.14198L14.8209 1Z" fill="#ED1C24"/>
<path fill-rule="evenodd" clip-rule="evenodd" d="M6.70206 9.06621C6.79564 9.11058 6.85358 9.23925 6.85358 9.4256V20.1186C6.85358 20.3049 6.79564 20.4158 6.70206 20.4513C6.61293 20.4868 6.48369 20.4513 6.33217 20.3404C6.33217 20.3404 6.33217 20.3404 1.2206 15.2113C0.926468 14.9939 0.926468 14.5502 1.2206 14.2574C1.2206 14.2574 1.2206 14.2574 6.33217 9.20375C6.48369 9.05734 6.61293 9.02184 6.70206 9.06621Z" fill="#ED1C24"/>
<path fill-rule="evenodd" clip-rule="evenodd" d="M13.1501 17.4832C13.1501 17.4832 13.1501 17.4832 16.9248 17.4832C17.3704 17.4832 17.669 17.776 17.669 18.1443C17.669 18.1443 17.669 18.1443 17.669 22.173C17.669 22.6122 17.9631 22.9051 18.333 22.9051H20.334C20.7038 22.9051 20.8509 23.1225 20.5568 23.3443C20.5568 23.3443 20.5568 23.3443 15.521 28.398C15.3694 28.5444 15.1867 28.6198 14.9996 28.6198C14.8168 28.6198 14.6297 28.5444 14.4826 28.398C14.4826 28.398 14.4826 28.398 9.4468 23.3443C9.14821 23.1225 9.29528 22.9051 9.66516 22.9051C9.66516 22.9051 9.66516 22.9051 11.8132 22.9051C12.1875 22.9051 12.4817 22.6122 12.4817 22.173C12.4817 22.173 12.4817 22.173 12.4817 18.1443C12.4817 17.776 12.7802 17.4832 13.1501 17.4832Z" fill="#ED1C24"/>
</svg>
