<svg width="30" height="30" viewBox="0 0 30 30" fill="none" xmlns="http://www.w3.org/2000/svg">
<path d="M24.1295 17.0744C24.1288 17.0743 14.4907 14.9765 14.4907 14.9765C11.618 14.3512 9.8159 11.6044 10.4658 8.84111C11.1161 6.07788 13.9721 4.34495 16.8448 4.97004C19.7177 5.59536 21.5196 8.34222 20.8697 11.1053C20.544 12.4887 19.6654 13.6128 18.5086 14.3132C18.5084 14.3132 18.5056 14.3159 18.5046 14.3159C18.4705 14.3395 18.4485 14.3776 18.4485 14.4207C18.4485 14.4809 18.4918 14.5316 18.5502 14.5451C18.5504 14.5452 22.8378 15.4778 22.8385 15.4778C22.9406 15.5 23.0465 15.4622 23.1092 15.3825C23.1095 15.3818 23.1094 15.3823 23.1094 15.3823C24.2905 13.8791 25 12.0034 25 9.9746C25 5.19684 21.1191 1.29232 16.2239 1.01501C16.1803 1.01226 15.915 1.00265 15.8254 1.00128C13.658 0.968522 11.4605 1.56624 9.54951 2.85343C4.72364 6.10345 3.55114 12.5006 6.92983 17.142L15.5048 28.9209C15.5414 28.9689 15.6004 29 15.6665 29C15.7333 29 15.7924 28.9683 15.8289 28.92C15.8289 28.92 24.2493 17.3701 24.25 17.3691C24.2715 17.3385 24.2843 17.3014 24.2843 17.2616C24.2843 17.1702 24.2182 17.0938 24.1295 17.0743" fill="#FABC26"/>
</svg>
