<svg width="18" height="18" viewBox="0 0 18 18" fill="none" xmlns="http://www.w3.org/2000/svg">
<path d="M5 2H7.58462C9.25299 2 10.3798 2.08071 10.9651 2.24212C11.5559 2.40354 12.0044 2.66873 12.3108 3.03768C12.6171 3.40663 12.8085 3.81882 12.8851 4.27424C12.9617 4.7239 13 5.61169 13 6.93762V11.8406C13 13.0974 12.9426 13.9391 12.8277 14.3657C12.7183 14.7865 12.5241 15.118 12.2451 15.3601C11.9662 15.5965 11.6215 15.7636 11.2113 15.8616C10.801 15.9539 10.1829 16 9.35692 16H5V2ZM8.45436 4.39531V13.6047C8.95214 13.6047 9.25846 13.5009 9.37333 13.2934C9.4882 13.0801 9.54564 12.5065 9.54564 11.5726V6.13342C9.54564 5.49928 9.5265 5.09286 9.4882 4.91414C9.44991 4.73543 9.36239 4.60572 9.22564 4.52502C9.08889 4.43854 8.83179 4.39531 8.45436 4.39531Z" fill="#A2A9AC"/>
</svg>
