<svg width="18" height="18" viewBox="0 0 18 18" fill="none" xmlns="http://www.w3.org/2000/svg">
<path d="M1.12807 9.51172C1.08502 11.5998 2.52321 13.5924 4.50157 14.2423C6.36507 14.8683 8.65625 14.4 9.89628 12.8041C10.8016 11.6859 11.0074 10.1951 10.9094 8.80236C9.31347 8.78809 7.71758 8.79285 6.12407 8.79523C6.12148 9.36375 6.12407 9.93011 6.12645 10.4986C7.082 10.525 8.03776 10.5129 8.9933 10.5322C8.75209 11.3588 8.2026 12.1281 7.36864 12.4266C5.75847 13.1362 3.70395 12.2092 3.1973 10.5201C2.58573 8.90253 3.58692 6.95055 5.23992 6.48003C6.26491 6.1194 7.32083 6.52546 8.19784 7.05828C8.64219 6.64249 9.05798 6.19814 9.46642 5.74904C8.46999 4.91529 7.18951 4.40409 5.87313 4.51637C3.29032 4.54709 1.03007 6.93151 1.12807 9.51172Z" fill="#A2A9AC"/>
<path d="M14.0155 7.3606C14.0107 7.8361 14.0058 8.31398 14.0034 8.78926C13.5255 8.79402 13.0502 8.7964 12.5747 8.79878C12.5747 9.27428 12.5747 9.74718 12.5747 10.2227C13.0502 10.2251 13.5281 10.2274 14.0034 10.2324C14.0081 10.7079 14.0081 11.1832 14.0129 11.6611C14.486 11.6611 14.9615 11.6587 15.4368 11.6611C15.4394 11.1832 15.4416 10.7079 15.4465 10.23C15.9218 10.2277 16.3997 10.2253 16.8752 10.2229C16.8752 9.7474 16.8752 9.2745 16.8752 8.799C16.3999 8.79662 15.922 8.79424 15.4465 8.78948C15.4439 8.31398 15.4394 7.8361 15.4368 7.36081C14.9615 7.3606 14.4884 7.3606 14.0155 7.3606Z" fill="#A2A9AC"/>
<path d="M1.12807 9.51096C1.03007 6.93075 3.29011 4.54633 5.87291 4.51539C7.1893 4.40311 8.46999 4.91431 9.46621 5.74806C9.05755 6.19738 8.64176 6.64151 8.19763 7.05731C7.32061 6.52448 6.26469 6.11842 5.2397 6.47905C3.58648 6.94979 2.58529 8.90176 3.19709 10.5191C3.70374 12.2082 5.75826 13.1352 7.36842 12.4256C8.20217 12.1271 8.75188 11.3578 8.99309 10.5312C8.03754 10.5121 7.08178 10.524 6.12624 10.4977C6.12386 9.92913 6.12148 9.36277 6.12386 8.79425C7.71737 8.79187 9.31326 8.78711 10.9092 8.80138C11.0072 10.1944 10.8016 11.6851 9.89606 12.8031C8.65604 14.399 6.36507 14.8674 4.50136 14.2413C2.52342 13.5917 1.08502 11.599 1.12807 9.51096Z" fill="#A2A9AC"/>
<path d="M14.0155 7.3606C14.4886 7.3606 14.9615 7.3606 15.4368 7.3606C15.4394 7.8361 15.4439 8.31398 15.4465 8.78926C15.9218 8.79402 16.3997 8.7964 16.8752 8.79878C16.8752 9.27428 16.8752 9.74718 16.8752 10.2227C16.3999 10.2251 15.922 10.2274 15.4465 10.2298C15.4418 10.7077 15.4394 11.183 15.4368 11.6609C14.9615 11.6585 14.4858 11.6609 14.0129 11.6609C14.0083 11.183 14.0083 10.7077 14.0034 10.2322C13.5281 10.2272 13.0502 10.2251 12.5747 10.2225C12.5747 9.74697 12.5747 9.27406 12.5747 8.79856C13.0502 8.79618 13.5257 8.7938 14.0034 8.78904C14.0058 8.31398 14.0105 7.8361 14.0155 7.3606Z" fill="#A2A9AC"/>
</svg>
