<svg width="18" height="18" viewBox="0 0 18 18" fill="none" xmlns="http://www.w3.org/2000/svg">
<path d="M9.19448 2.00694C6.24771 2.00694 3.44945 1.74481 2.38062 4.48788C1.93913 5.62082 2.00325 7.09218 2.00325 9.19899C2.00325 11.0477 1.944 12.7853 2.38062 13.9093C3.44701 16.654 6.268 16.391 9.19286 16.391C12.0147 16.391 14.9241 16.6848 16.0059 13.9093C16.4482 12.765 16.3833 11.3155 16.3833 9.19899C16.3833 6.38937 16.5383 4.57553 15.1757 3.21373C13.796 1.83408 11.9303 2.00694 9.19124 2.00694H9.19448ZM8.5501 3.303C14.6969 3.29326 15.4792 2.60993 15.0475 12.1027C14.8941 15.4602 12.3377 15.0917 9.19529 15.0917C3.46568 15.0917 3.30093 14.9278 3.30093 9.19574C3.30093 3.39714 3.75541 3.30625 8.5501 3.30138V3.303ZM13.0332 4.49681C12.5568 4.49681 12.1705 4.88311 12.1705 5.3595C12.1705 5.83588 12.5568 6.22218 13.0332 6.22218C13.5095 6.22218 13.8958 5.83588 13.8958 5.3595C13.8958 4.88311 13.5095 4.49681 13.0332 4.49681V4.49681ZM9.19448 5.50558C7.15503 5.50558 5.50188 7.15954 5.50188 9.19899C5.50188 11.2384 7.15503 12.8916 9.19448 12.8916C11.2339 12.8916 12.8863 11.2384 12.8863 9.19899C12.8863 7.15954 11.2339 5.50558 9.19448 5.50558V5.50558ZM9.19448 6.80164C12.3636 6.80164 12.3677 11.5963 9.19448 11.5963C6.02615 11.5963 6.02128 6.80164 9.19448 6.80164Z" fill="#A2A9AC"/>
</svg>
