<svg width="18" height="18" viewBox="0 0 18 18" fill="none" xmlns="http://www.w3.org/2000/svg">
<path d="M16.92 10.6721C18.0605 5.54725 13.5709 0.891612 8.29841 1.78534C5.43613 0.00904151 1.625 2.01632 1.625 5.42192C1.625 6.21394 1.84351 6.95543 2.22344 7.59456C1.1637 12.7312 5.69007 17.3199 10.9579 16.3651C11.5721 16.69 12.2729 16.875 13.0177 16.875C16.2652 16.875 18.3446 13.5068 16.92 10.6721ZM9.56223 14.1709C8.02544 14.1709 6.52408 13.8001 5.63561 12.531C4.31143 10.6583 6.05754 9.72126 6.91452 10.4352C7.62976 11.0382 7.40534 12.4969 9.50579 12.4969C10.4317 12.4969 11.5747 12.1019 11.5747 11.1839C11.5747 9.33673 7.47687 10.2108 5.84756 8.19694C5.24912 7.45938 5.13625 6.15816 5.87118 5.21457C7.15205 3.56623 10.9107 3.46583 12.5269 4.71062C14.019 5.86551 13.6161 7.39836 12.412 7.39836C10.9638 7.39836 11.725 5.50329 9.38702 5.50329C7.6921 5.50329 7.02541 6.7087 8.21901 7.29534C9.80764 8.08407 13.9606 7.838 13.9606 10.9719C13.9554 13.1748 11.83 14.1709 9.56223 14.1709V14.1709Z" fill="#A2A9AC"/>
</svg>
