<svg width="18" height="18" viewBox="0 0 18 18" fill="none" xmlns="http://www.w3.org/2000/svg">
<path d="M1.25089 13.6168C2.67681 14.5212 4.36826 15.0445 6.18142 15.0445C11.2753 15.0445 15.4045 10.9148 15.4045 5.82144C15.4045 5.69427 15.4018 5.56803 15.3969 5.44218C15.5812 5.29719 16.7207 4.38386 17 3.79671C17 3.79671 16.0746 4.18128 15.169 4.27188C15.1672 4.27188 15.165 4.2723 15.1632 4.2723C15.1632 4.2723 15.165 4.27141 15.1681 4.2692C15.2515 4.21344 16.4182 3.41924 16.5762 2.47296C16.5762 2.47296 15.9217 2.82231 15.0052 3.12795C14.8535 3.17835 14.6947 3.2279 14.531 3.27383C13.9402 2.64338 13.1006 2.24988 12.1685 2.24988C10.3808 2.24988 8.93208 3.69812 8.93208 5.48454C8.93208 5.73662 8.96109 5.98199 9.01595 6.21757C8.76612 6.20732 4.96166 5.99402 2.37348 2.85974C2.37348 2.85974 0.826644 4.97144 3.29527 7.14289C3.29527 7.14289 2.54484 7.11299 1.89742 6.72616C1.89742 6.72616 1.65963 9.28444 4.45528 9.93854C4.45528 9.93854 3.90517 10.1469 3.02758 9.99834C3.02758 9.99834 3.51835 12.0654 6.00216 12.2586C6.00216 12.2586 4.03808 14.0329 1.25 13.6166L1.25089 13.6168Z" fill="#A2A9AC"/>
</svg>
