<svg width="18" height="18" viewBox="0 0 18 18" fill="none" xmlns="http://www.w3.org/2000/svg">
<path d="M16.7721 4.91151L16.7676 4.89333C16.3999 3.40721 14.7426 1.81252 13.2207 1.48075L13.2035 1.47722C10.7418 1.00759 8.2457 1.00759 5.78447 1.47722L5.7668 1.48075C4.24533 1.81252 2.58802 3.40721 2.21989 4.89333L2.21585 4.91151C1.76138 6.98694 1.76138 9.09165 2.21585 11.1671L2.21989 11.1853C2.57231 12.608 4.10621 14.1294 5.57138 14.5478V16.2067C5.57138 16.8071 6.30308 17.102 6.71917 16.6688L8.39996 14.9216C8.7645 14.942 9.12924 14.9534 9.49398 14.9534C10.7332 14.9534 11.9729 14.8362 13.2035 14.6014L13.2207 14.5979C14.7426 14.2661 16.3999 12.6714 16.7676 11.1853L16.7721 11.1671C17.2266 9.09165 17.2266 6.98694 16.7721 4.91151ZM15.442 10.8661C15.1966 11.8357 13.9382 13.041 12.9384 13.2637C11.6294 13.5126 10.3102 13.619 8.99219 13.5825C8.96598 13.5818 8.94079 13.5919 8.92251 13.6107C8.73547 13.8027 7.69528 14.8705 7.69528 14.8705L6.38993 16.2102C6.29449 16.3097 6.12684 16.242 6.12684 16.1047V13.3565C6.12684 13.3111 6.09442 13.2725 6.04984 13.2638C6.04958 13.2638 6.04933 13.2637 6.04908 13.2637C5.04924 13.041 3.79136 11.8356 3.54544 10.8661C3.13641 8.9901 3.13641 7.08839 3.54544 5.21243C3.79136 4.24288 5.04924 3.03752 6.04908 2.81483C8.33508 2.38005 10.6529 2.38005 12.9384 2.81483C13.9387 3.03752 15.1966 4.24288 15.442 5.21243C15.8515 7.08844 15.8515 8.99015 15.442 10.8661Z" fill="#A2A9AC"/>
<path d="M11.6691 12.1349C11.5153 12.0883 11.3689 12.0569 11.2328 12.0005C9.82314 11.4156 8.52577 10.6611 7.4981 9.50445C6.9137 8.84673 6.4563 8.10417 6.06964 7.31833C5.88629 6.94566 5.73177 6.5584 5.57427 6.17366C5.43065 5.82281 5.64219 5.46034 5.86493 5.19599C6.07394 4.9479 6.34288 4.75803 6.63415 4.6181C6.86149 4.50888 7.08575 4.57184 7.25178 4.76454C7.61071 5.18114 7.94041 5.61905 8.20739 6.10196C8.37155 6.39898 8.32651 6.76205 8.02898 6.96419C7.95667 7.01333 7.89077 7.071 7.82341 7.12649C7.76433 7.17512 7.70873 7.22425 7.66823 7.2901C7.5942 7.41059 7.59067 7.55269 7.63833 7.68368C8.00525 8.692 8.62368 9.47607 9.63857 9.89838C9.80097 9.96594 9.96408 10.0446 10.1512 10.0228C10.4645 9.98619 10.566 9.64251 10.7855 9.46294C11.0001 9.28746 11.2744 9.28514 11.5056 9.43143C11.7368 9.57777 11.9609 9.73487 12.1837 9.89363C12.4024 10.0495 12.6202 10.2019 12.8219 10.3796C13.0159 10.5504 13.0827 10.7745 12.9735 11.0063C12.7735 11.4309 12.4825 11.7841 12.0628 12.0096C11.9443 12.0732 11.8027 12.0938 11.6691 12.1349C11.8027 12.0938 11.5153 12.0882 11.6691 12.1349Z" fill="#A2A9AC"/>
<path d="M9.49796 4.13224C11.3419 4.1839 12.8563 5.40759 13.1809 7.23053C13.2362 7.54114 13.2559 7.85872 13.2805 8.17397C13.2908 8.30658 13.2157 8.43257 13.0726 8.43428C12.9248 8.43605 12.8583 8.31238 12.8487 8.17983C12.8297 7.91745 12.8165 7.6539 12.7804 7.39369C12.5895 6.02012 11.4942 4.88373 10.127 4.63988C9.92128 4.60317 9.71071 4.59353 9.5023 4.57166C9.37056 4.55783 9.19801 4.54985 9.16882 4.38609C9.14433 4.24878 9.26022 4.13946 9.39096 4.13244C9.42651 4.13047 9.46226 4.13209 9.49796 4.13224C9.46226 4.13209 11.3419 4.1839 9.49796 4.13224Z" fill="#A2A9AC"/>
<path d="M12.2998 7.76467C12.2968 7.78769 12.2952 7.84183 12.2817 7.89283C12.2328 8.07795 11.9521 8.10113 11.8875 7.91429C11.8683 7.85884 11.8655 7.79577 11.8654 7.73609C11.8647 7.34554 11.7798 6.9554 11.5829 6.6156C11.3804 6.26637 11.0711 5.97278 10.7084 5.79513C10.489 5.68772 10.2518 5.62096 10.0114 5.58117C9.90628 5.5638 9.80009 5.55325 9.6945 5.53855C9.56654 5.52078 9.49822 5.43922 9.50428 5.31313C9.50993 5.19497 9.59628 5.10998 9.72505 5.11725C10.1482 5.14129 10.5569 5.23274 10.9331 5.43195C11.6982 5.83709 12.1352 6.47659 12.2627 7.33049C12.2685 7.36917 12.2778 7.4075 12.2807 7.44633C12.2879 7.54223 12.2925 7.63822 12.2998 7.76467C12.2925 7.63822 12.2968 7.78769 12.2998 7.76467Z" fill="#A2A9AC"/>
<path d="M11.1531 7.72025C10.9989 7.72303 10.9163 7.63764 10.9004 7.4962C10.8893 7.39758 10.8806 7.29764 10.8571 7.2017C10.8107 7.01274 10.7103 6.83761 10.5513 6.72182C10.4763 6.66714 10.3912 6.62729 10.3022 6.60159C10.189 6.56892 10.0715 6.57791 9.95857 6.55023C9.83596 6.52019 9.76814 6.42091 9.78743 6.30588C9.80495 6.2012 9.90681 6.11949 10.0212 6.12778C10.7361 6.17938 11.247 6.54897 11.3199 7.39056C11.3251 7.44994 11.3312 7.51271 11.318 7.56952C11.2954 7.66678 11.2234 7.71551 11.1531 7.72025C11.2234 7.71551 10.9989 7.72303 11.1531 7.72025Z" fill="#A2A9AC"/>
</svg>
