<svg width="18" height="18" viewBox="0 0 18 18" fill="none" xmlns="http://www.w3.org/2000/svg">
<path d="M14.5697 9.76856C14.315 9.44699 14.3879 9.30392 14.5697 9.01647C14.573 9.01319 16.675 6.10853 16.8916 5.12346L16.8929 5.1228C17.0005 4.76382 16.8929 4.5 16.3725 4.5H14.6504C14.212 4.5 14.0099 4.72641 13.9016 4.97974C13.9016 4.97974 13.0248 7.0785 11.7845 8.43895C11.3841 8.83206 11.1991 8.95806 10.9805 8.95806C10.8729 8.95806 10.7055 8.83206 10.7055 8.47308V5.1228C10.7055 4.69229 10.5828 4.5 10.2199 4.5H7.51212C7.23714 4.5 7.07372 4.70082 7.07372 4.88786C7.07372 5.29606 7.6939 5.38991 7.75822 6.53838V9.03025C7.75822 9.57627 7.65912 9.67668 7.43927 9.67668C6.85387 9.67668 5.43304 7.56939 4.59104 5.15759C4.42107 4.68966 4.25503 4.50066 3.81336 4.50066H2.09065C1.5991 4.50066 1.5 4.72707 1.5 4.98039C1.5 5.42797 2.0854 7.65339 4.22222 10.5935C5.64633 12.6004 7.6519 13.6878 9.47634 13.6878C10.573 13.6878 10.7069 13.4463 10.7069 13.0309C10.7069 11.1133 10.6078 10.9321 11.1571 10.9321C11.4117 10.9321 11.8501 11.0581 12.8739 12.0261C14.044 13.174 14.2363 13.6878 14.8912 13.6878H16.6133C17.1042 13.6878 17.3529 13.4463 17.2099 12.9699C16.8824 11.9677 14.6694 9.90638 14.5697 9.76856V9.76856Z" fill="#A2A9AC"/>
</svg>
