<svg width="18" height="18" viewBox="0 0 18 18" fill="none" xmlns="http://www.w3.org/2000/svg">
<path d="M1 16.875L2.10185 12.9616C1.3933 11.7579 1.02024 10.3883 1.02024 8.98137C1.02024 4.64935 4.54459 1.125 8.87661 1.125C13.2086 1.125 16.7329 4.64935 16.7329 8.98137C16.7329 13.3134 13.2086 16.8377 8.87661 16.8377C7.52678 16.8377 6.20504 16.4922 5.03577 15.8361L1 16.875ZM5.24209 14.4068L5.48257 14.5537C6.50204 15.1761 7.6757 15.505 8.87661 15.505C12.4738 15.505 15.4002 12.5785 15.4002 8.98137C15.4002 5.38421 12.4738 2.4577 8.87661 2.4577C5.27945 2.4577 2.35294 5.38421 2.35294 8.98137C2.35294 10.2347 2.70917 11.4519 3.38302 12.5012L3.54497 12.7534L2.91045 15.007L5.24209 14.4068Z" fill="#A2A9AC"/>
<path d="M6.66992 5.32473L6.16014 5.29694C6.00002 5.28821 5.84296 5.34171 5.72193 5.44685C5.47479 5.66146 5.07962 6.07638 4.95824 6.61706C4.77724 7.42324 5.05696 8.41043 5.78091 9.39761C6.50487 10.3848 7.854 11.9643 10.2397 12.6389C11.0085 12.8563 11.6132 12.7097 12.0798 12.4112C12.4494 12.1749 12.7041 11.7954 12.7959 11.3665L12.8773 10.9863C12.9032 10.8655 12.8418 10.7429 12.7296 10.6912L11.0067 9.89703C10.8948 9.8455 10.7622 9.87808 10.687 9.97556L10.0106 10.8524C9.95952 10.9186 9.87206 10.9449 9.79308 10.9171C9.32989 10.7544 7.77833 10.1045 6.92699 8.46463C6.89007 8.3935 6.89925 8.30717 6.95162 8.24651L7.59803 7.49871C7.66407 7.42235 7.68075 7.315 7.64107 7.2222L6.89841 5.48471C6.85887 5.39221 6.77027 5.33021 6.66992 5.32473Z" fill="#A2A9AC"/>
</svg>
