<svg width="18" height="18" viewBox="0 0 18 18" fill="none" xmlns="http://www.w3.org/2000/svg">
<path d="M16.8005 5.10054C16.619 4.4258 16.087 3.89391 15.4124 3.71223C14.1799 3.375 9.24982 3.375 9.24982 3.375C9.24982 3.375 4.31996 3.375 3.08747 3.69944C2.4258 3.88094 1.88084 4.4259 1.69934 5.10054C1.375 6.33294 1.375 8.88876 1.375 8.88876C1.375 8.88876 1.375 11.4575 1.69934 12.677C1.88103 13.3516 2.41283 13.8835 3.08757 14.0652C4.33294 14.4025 9.25002 14.4025 9.25002 14.4025C9.25002 14.4025 14.1799 14.4025 15.4124 14.0781C16.0871 13.8965 16.619 13.3646 16.8007 12.69C17.1249 11.4575 17.1249 8.90174 17.1249 8.90174C17.1249 8.90174 17.1379 6.33294 16.8005 5.10054V5.10054ZM7.6802 11.2499V6.5276L11.7798 8.88876L7.6802 11.2499Z" fill="#A2A9AC"/>
</svg>
