<svg width="60" height="60" viewBox="0 0 60 60" fill="none" xmlns="http://www.w3.org/2000/svg">
<path d="M38.6713 12.656L31.7338 5.71841C30.7759 4.76053 29.2229 4.76053 28.265 5.71841L21.3274 12.656C20.3695 13.6138 20.3695 15.1669 21.3274 16.1247L28.265 23.0623C29.2229 24.0202 30.7759 24.0202 31.7338 23.0623L38.6713 16.1247C39.6292 15.1669 39.6292 13.6138 38.6713 12.656Z" stroke="#8DC63F" stroke-width="4" stroke-linecap="round" stroke-linejoin="round"/>
<path d="M23.0623 28.2656L16.1247 21.328C15.1669 20.3702 13.6138 20.3702 12.656 21.328L5.71841 28.2656C4.76053 29.2235 4.76053 30.7765 5.71841 31.7344L12.656 38.672C13.6138 39.6298 15.1669 39.6298 16.1247 38.672L23.0623 31.7344C24.0202 30.7765 24.0202 29.2235 23.0623 28.2656Z" stroke="#8DC63F" stroke-width="4" stroke-linecap="round" stroke-linejoin="round"/>
<path d="M54.2804 28.2656L47.3429 21.328C46.385 20.3702 44.832 20.3702 43.8741 21.328L36.9365 28.2656C35.9787 29.2235 35.9787 30.7765 36.9365 31.7344L43.8741 38.672C44.832 39.6298 46.385 39.6298 47.3429 38.672L54.2804 31.7344C55.2383 30.7765 55.2383 29.2235 54.2804 28.2656Z" stroke="#8DC63F" stroke-width="4" stroke-linecap="round" stroke-linejoin="round"/>
<path d="M38.6713 43.8753L31.7338 36.9377C30.7759 35.9798 29.2229 35.9798 28.265 36.9377L21.3274 43.8753C20.3695 44.8331 20.3695 46.3862 21.3274 47.344L28.265 54.2816C29.2229 55.2395 30.7759 55.2395 31.7338 54.2816L38.6713 47.344C39.6292 46.3862 39.6292 44.8331 38.6713 43.8753Z" stroke="#8DC63F" stroke-width="4" stroke-linecap="round" stroke-linejoin="round"/>
</svg>
