<svg width="95" height="17" viewBox="0 0 95 17" fill="none" xmlns="http://www.w3.org/2000/svg">
<path fill-rule="evenodd" clip-rule="evenodd" d="M0.0299328 0L0 5.12833L9.80919 16L17.4503 8.04604L19.9908 5.18886L20 0.0098101L10.0832 10.3506L0.0299328 0Z" fill="white"/>
<path fill-rule="evenodd" clip-rule="evenodd" d="M0 17L5 16.9987L0.00594643 12L0 17Z" fill="white"/>
<path fill-rule="evenodd" clip-rule="evenodd" d="M20 17L15 16.9987L19.9944 12L20 17Z" fill="white"/>
<path d="M25.1289 15.8594H27.077V11.8302L28.9021 14.5701H28.9431L30.7784 11.81V15.8594H32.7571V8.80839H30.6555L28.9431 11.5382L27.2309 8.80839H25.1289V15.8594ZM33.4543 15.8594H35.5461L36.0586 14.6002H38.827L39.35 15.8594H41.4825L38.427 8.75803H36.5098L33.4543 15.8594ZM36.6432 13.0794L37.4532 11.0749L38.2529 13.0794H36.6432ZM42.1797 15.8594H44.169V14.0362L44.897 13.2403L46.7016 15.8594H49.0905L46.2811 11.8403L48.998 8.80839H46.6399L44.169 11.669V8.80839H42.1797V15.8594ZM49.5006 15.8594H51.5922L52.1048 14.6002H54.8734L55.3965 15.8594H57.5287L54.4733 8.75803H52.5559L49.5006 15.8594ZM52.6893 13.0794L53.4996 11.0749L54.2994 13.0794H52.6893ZM58.3285 15.8594H60.3178V13.724H61.1891L62.6349 15.8594H64.9315L63.2194 13.4016C64.1112 13.0289 64.6957 12.3136 64.6957 11.2359C64.6957 10.5208 64.4803 9.97685 64.0602 9.5639C63.5781 9.09054 62.8192 8.80839 61.7222 8.80839H58.3285V15.8594ZM60.3178 12.1928V10.5005H61.6198C62.2862 10.5005 62.6963 10.7827 62.6963 11.3368C62.6963 11.8704 62.3067 12.1928 61.6297 12.1928H60.3178ZM65.7003 15.8594H71.5244V14.1974H67.6692V13.0794H71.1143V11.5382H67.6692V10.4705H71.473V8.80839H65.7003V15.8594ZM72.5391 15.8594H74.5079V11.9914L77.5738 15.8594H79.3168V8.80839H77.3485V12.5352L74.3955 8.80839H72.5391V15.8594ZM80.5883 15.8594H82.5771V14.0362L83.305 13.2403L85.11 15.8594H87.4984L84.6893 11.8403L87.4065 8.80839H85.0485L82.5771 11.669V8.80839H80.5883V15.8594ZM91.1179 16.0004C93.333 16.0004 94.9936 14.3585 94.9936 12.3339C94.9936 10.289 93.3535 8.66748 91.1384 8.66748C88.9237 8.66748 87.2631 10.3093 87.2631 12.3339C87.2631 14.3786 88.9033 16.0004 91.1179 16.0004ZM91.1384 14.2376C90.0518 14.2376 89.3034 13.3513 89.3034 12.3339C89.3034 11.2963 90.0313 10.43 91.1179 10.43C92.215 10.43 92.9638 11.3166 92.9638 12.3339C92.9638 13.3713 92.2355 14.2376 91.1384 14.2376Z" fill="white"/>
<path d="M72.5371 5.37957H73.247V2.36653H72.5371V5.37957ZM74.6094 5.37957H75.3193V2.93466H76.3009V2.36653H73.6282V2.93466H74.6094V5.37957ZM78.9297 5.43125C79.806 5.43125 80.2311 5.00083 80.2311 4.49792C80.2311 3.39173 78.4476 3.77553 78.4476 3.21956C78.4476 3.02938 78.61 2.87444 79.0306 2.87444C79.3019 2.87444 79.5957 2.95189 79.8804 3.1112L80.0992 2.58174C79.8145 2.40535 79.4203 2.31494 79.0346 2.31494C78.1629 2.31494 77.7422 2.74105 77.7422 3.25402C77.7422 4.37306 79.5257 3.98568 79.5257 4.5496C79.5257 4.73394 79.3549 4.87165 78.9342 4.87165C78.566 4.87165 78.1803 4.74248 77.9221 4.55814L77.6808 5.08254C77.9525 5.28916 78.4431 5.43125 78.9297 5.43125ZM81.3087 5.37957H82.0186V2.93466H82.9998V2.36653H80.3275V2.93466H81.3087V5.37957ZM84.6914 5.43125C85.5631 5.43125 86.0802 4.94046 86.0802 4.05385V2.36653H85.3793V4.02804C85.3793 4.60044 85.1295 4.8372 84.6954 4.8372C84.2662 4.8372 84.0119 4.60044 84.0119 4.02804V2.36653H83.3025V4.05385C83.3025 4.94046 83.8196 5.43125 84.6914 5.43125ZM86.7811 5.37957H88.1744C89.1776 5.37957 89.8655 4.78562 89.8655 3.87309C89.8655 2.96058 89.1776 2.36653 88.1744 2.36653H86.7811V5.37957ZM87.491 4.80706V2.93902H88.1395C88.7484 2.93902 89.1471 3.29627 89.1471 3.87309C89.1471 4.44982 88.7484 4.80706 88.1395 4.80706H87.491ZM90.4001 5.37957H91.1099V2.36653H90.4001V5.37957ZM93.3226 5.43125C94.2863 5.43125 95.0007 4.77261 95.0007 3.87309C95.0007 2.97348 94.2863 2.31494 93.3226 2.31494C92.3544 2.31494 91.6445 2.9778 91.6445 3.87309C91.6445 4.76839 92.3544 5.43125 93.3226 5.43125ZM93.3226 4.8372C92.7745 4.8372 92.3629 4.4456 92.3629 3.87309C92.3629 3.30064 92.7745 2.9089 93.3226 2.9089C93.8701 2.9089 94.2818 3.30064 94.2818 3.87309C94.2818 4.4456 93.8701 4.8372 93.3226 4.8372Z" fill="white"/>
</svg>
