<svg width="95" height="17" viewBox="0 0 95 17" fill="none" xmlns="http://www.w3.org/2000/svg">
<path fill-rule="evenodd" clip-rule="evenodd" d="M0.0299328 0L0 5.12833L9.80919 16L17.4503 8.04604L19.9908 5.18886L20 0.0098101L10.0832 10.3506L0.0299328 0Z" fill="#7E7E7E"/>
<path fill-rule="evenodd" clip-rule="evenodd" d="M0 17L5 16.9987L0.00594643 12L0 17Z" fill="#7E7E7E"/>
<path fill-rule="evenodd" clip-rule="evenodd" d="M20 17L15 16.9987L19.9944 12L20 17Z" fill="#7E7E7E"/>
<path d="M25.1289 15.8589H27.077V11.8297L28.9021 14.5696H28.9431L30.7784 11.8095V15.8589H32.7571V8.8079H30.6555L28.9431 11.5377L27.2309 8.8079H25.1289V15.8589ZM33.4543 15.8589H35.5461L36.0586 14.5997H38.827L39.35 15.8589H41.4825L38.427 8.75754H36.5098L33.4543 15.8589ZM36.6432 13.0789L37.4532 11.0744L38.2529 13.0789H36.6432ZM42.1797 15.8589H44.169V14.0357L44.897 13.2398L46.7016 15.8589H49.0905L46.2811 11.8398L48.998 8.8079H46.6399L44.169 11.6685V8.8079H42.1797V15.8589ZM49.5006 15.8589H51.5922L52.1048 14.5997H54.8734L55.3965 15.8589H57.5287L54.4733 8.75754H52.5559L49.5006 15.8589ZM52.6893 13.0789L53.4996 11.0744L54.2994 13.0789H52.6893ZM58.3285 15.8589H60.3178V13.7235H61.1891L62.6349 15.8589H64.9315L63.2194 13.4011C64.1112 13.0284 64.6957 12.3131 64.6957 11.2354C64.6957 10.5203 64.4803 9.97636 64.0602 9.56341C63.5781 9.09005 62.8192 8.8079 61.7222 8.8079H58.3285V15.8589ZM60.3178 12.1923V10.5H61.6198C62.2862 10.5 62.6963 10.7822 62.6963 11.3363C62.6963 11.8699 62.3067 12.1923 61.6297 12.1923H60.3178ZM65.7003 15.8589H71.5244V14.1969H67.6692V13.0789H71.1143V11.5377H67.6692V10.47H71.473V8.8079H65.7003V15.8589ZM72.5391 15.8589H74.5079V11.9909L77.5738 15.8589H79.3168V8.8079H77.3485V12.5347L74.3955 8.8079H72.5391V15.8589ZM80.5883 15.8589H82.5771V14.0357L83.305 13.2398L85.11 15.8589H87.4984L84.6893 11.8398L87.4065 8.8079H85.0485L82.5771 11.6685V8.8079H80.5883V15.8589ZM91.1179 15.9999C93.333 15.9999 94.9936 14.358 94.9936 12.3335C94.9936 10.2885 93.3535 8.66699 91.1384 8.66699C88.9237 8.66699 87.2631 10.3088 87.2631 12.3335C87.2631 14.3781 88.9033 15.9999 91.1179 15.9999ZM91.1384 14.2371C90.0518 14.2371 89.3034 13.3508 89.3034 12.3335C89.3034 11.2958 90.0313 10.4295 91.1179 10.4295C92.215 10.4295 92.9638 11.3161 92.9638 12.3335C92.9638 13.3708 92.2355 14.2371 91.1384 14.2371Z" fill="#7E7E7E"/>
<path d="M72.5371 5.37908H73.247V2.36604H72.5371V5.37908ZM74.6094 5.37908H75.3193V2.93417H76.3009V2.36604H73.6282V2.93417H74.6094V5.37908ZM78.9297 5.43076C79.806 5.43076 80.2311 5.00034 80.2311 4.49743C80.2311 3.39124 78.4476 3.77504 78.4476 3.21907C78.4476 3.0289 78.61 2.87395 79.0306 2.87395C79.3019 2.87395 79.5957 2.9514 79.8804 3.11071L80.0992 2.58125C79.8145 2.40486 79.4203 2.31445 79.0346 2.31445C78.1629 2.31445 77.7422 2.74056 77.7422 3.25353C77.7422 4.37257 79.5257 3.9852 79.5257 4.54911C79.5257 4.73345 79.3549 4.87116 78.9342 4.87116C78.566 4.87116 78.1803 4.74199 77.9221 4.55765L77.6808 5.08205C77.9525 5.28867 78.4431 5.43076 78.9297 5.43076ZM81.3087 5.37908H82.0186V2.93417H82.9998V2.36604H80.3275V2.93417H81.3087V5.37908ZM84.6914 5.43076C85.5631 5.43076 86.0802 4.93997 86.0802 4.05337V2.36604H85.3793V4.02755C85.3793 4.59995 85.1295 4.83671 84.6954 4.83671C84.2662 4.83671 84.0119 4.59995 84.0119 4.02755V2.36604H83.3025V4.05337C83.3025 4.93997 83.8196 5.43076 84.6914 5.43076ZM86.7811 5.37908H88.1744C89.1776 5.37908 89.8655 4.78513 89.8655 3.87261C89.8655 2.96009 89.1776 2.36604 88.1744 2.36604H86.7811V5.37908ZM87.491 4.80658V2.93854H88.1395C88.7484 2.93854 89.1471 3.29578 89.1471 3.87261C89.1471 4.44933 88.7484 4.80658 88.1395 4.80658H87.491ZM90.4001 5.37908H91.1099V2.36604H90.4001V5.37908ZM93.3226 5.43076C94.2863 5.43076 95.0007 4.77212 95.0007 3.87261C95.0007 2.97299 94.2863 2.31445 93.3226 2.31445C92.3544 2.31445 91.6445 2.97731 91.6445 3.87261C91.6445 4.7679 92.3544 5.43076 93.3226 5.43076ZM93.3226 4.83671C92.7745 4.83671 92.3629 4.44511 92.3629 3.87261C92.3629 3.30015 92.7745 2.90841 93.3226 2.90841C93.8701 2.90841 94.2818 3.30015 94.2818 3.87261C94.2818 4.44511 93.8701 4.83671 93.3226 4.83671Z" fill="#7E7E7E"/>
</svg>
