<svg width="213" height="90" viewBox="0 0 213 90" fill="none" xmlns="http://www.w3.org/2000/svg">
<circle cx="208.978" cy="3.42588" r="3.42588" transform="rotate(90 208.978 3.42588)" fill="#393CB5"/>
<circle cx="208.978" cy="44.5362" r="3.42588" transform="rotate(90 208.978 44.5362)" fill="#393CB5"/>
<circle cx="208.978" cy="85.6466" r="3.42588" transform="rotate(90 208.978 85.6466)" fill="#393CB5"/>
<circle cx="167.868" cy="3.42588" r="3.42588" transform="rotate(90 167.868 3.42588)" fill="#393CB5"/>
<circle cx="167.868" cy="44.5362" r="3.42588" transform="rotate(90 167.868 44.5362)" fill="#393CB5"/>
<circle cx="167.868" cy="85.6466" r="3.42588" transform="rotate(90 167.868 85.6466)" fill="#393CB5"/>
<circle cx="126.757" cy="3.42588" r="3.42588" transform="rotate(90 126.757 3.42588)" fill="#393CB5"/>
<circle cx="126.757" cy="44.5362" r="3.42588" transform="rotate(90 126.757 44.5362)" fill="#393CB5"/>
<circle cx="126.757" cy="85.6466" r="3.42588" transform="rotate(90 126.757 85.6466)" fill="#393CB5"/>
<circle cx="85.6466" cy="3.42588" r="3.42588" transform="rotate(90 85.6466 3.42588)" fill="#393CB5"/>
<circle cx="85.6466" cy="44.5362" r="3.42588" transform="rotate(90 85.6466 44.5362)" fill="#393CB5"/>
<circle cx="85.6466" cy="85.6466" r="3.42588" transform="rotate(90 85.6466 85.6466)" fill="#393CB5"/>
<circle cx="44.536" cy="3.42588" r="3.42588" transform="rotate(90 44.536 3.42588)" fill="#393CB5"/>
<circle cx="44.536" cy="44.5362" r="3.42588" transform="rotate(90 44.536 44.5362)" fill="#393CB5"/>
<circle cx="44.536" cy="85.6466" r="3.42588" transform="rotate(90 44.536 85.6466)" fill="#393CB5"/>
<circle cx="3.42544" cy="3.42588" r="3.42588" transform="rotate(90 3.42544 3.42588)" fill="#393CB5"/>
<circle cx="3.42544" cy="44.5362" r="3.42588" transform="rotate(90 3.42544 44.5362)" fill="#393CB5"/>
<circle cx="3.42544" cy="85.6466" r="3.42588" transform="rotate(90 3.42544 85.6466)" fill="#393CB5"/>
</svg>
