<svg width="30" height="29" viewBox="0 0 30 29" fill="none" xmlns="http://www.w3.org/2000/svg">
<path fill-rule="evenodd" clip-rule="evenodd" d="M15.0454 0C7.03728 0 0.54541 6.49187 0.54541 14.5C0.54541 22.5081 7.03728 29 15.0454 29C23.0535 29 29.5454 22.5081 29.5454 14.5C29.5454 6.49187 23.0535 0 15.0454 0ZM11.8574 6.81367C12.6823 6.77613 12.9459 6.76695 15.0462 6.76695H15.0437C17.1446 6.76695 17.4073 6.77613 18.2322 6.81367C19.0554 6.85137 19.6177 6.98171 20.1107 7.17295C20.6199 7.37031 21.05 7.63454 21.4802 8.06471C21.9104 8.49456 22.1746 8.92602 22.3728 9.43465C22.5629 9.92637 22.6934 10.4883 22.732 11.3116C22.7691 12.1365 22.7788 12.4001 22.7788 14.5004C22.7788 16.6006 22.7691 16.8636 22.732 17.6885C22.6934 18.5114 22.5629 19.0735 22.3728 19.5654C22.1746 20.0739 21.9104 20.5054 21.4802 20.9352C21.0505 21.3654 20.6197 21.6302 20.1112 21.8278C19.6192 22.019 19.0566 22.1494 18.2333 22.1871C17.4084 22.2246 17.1456 22.2338 15.0452 22.2338C12.9451 22.2338 12.6817 22.2246 11.8568 22.1871C11.0336 22.1494 10.4715 22.019 9.97948 21.8278C9.47117 21.6302 9.03971 21.3654 8.61002 20.9352C8.18001 20.5054 7.91579 20.0739 7.7181 19.5653C7.52702 19.0735 7.39668 18.5116 7.35882 17.6883C7.32144 16.8634 7.3121 16.6006 7.3121 14.5004C7.3121 12.4001 7.32176 12.1364 7.35866 11.3115C7.39572 10.4885 7.52622 9.92637 7.71794 9.43449C7.91611 8.92602 8.18033 8.49456 8.61051 8.06471C9.04035 7.6347 9.47181 7.37047 9.98045 7.17295C10.4722 6.98171 11.0341 6.85137 11.8574 6.81367Z" fill="#393CB5"/>
<path fill-rule="evenodd" clip-rule="evenodd" d="M14.3523 8.16014C14.487 8.15993 14.632 8.15999 14.7883 8.16006L15.0461 8.16014C17.1109 8.16014 17.3556 8.16755 18.171 8.2046C18.925 8.23908 19.3343 8.36507 19.6069 8.47092C19.9678 8.61109 20.2251 8.77865 20.4956 9.04932C20.7662 9.31999 20.9338 9.57777 21.0743 9.93866C21.1801 10.2109 21.3063 10.6202 21.3406 11.3742C21.3777 12.1894 21.3857 12.4343 21.3857 14.4982C21.3857 16.562 21.3777 16.8069 21.3406 17.6221C21.3061 18.3761 21.1801 18.7854 21.0743 19.0576C20.9341 19.4185 20.7662 19.6755 20.4956 19.946C20.2249 20.2167 19.9679 20.3842 19.6069 20.5244C19.3346 20.6307 18.925 20.7564 18.171 20.7909C17.3558 20.828 17.1109 20.836 15.0461 20.836C12.9811 20.836 12.7364 20.828 11.9211 20.7909C11.1671 20.7561 10.7579 20.6301 10.4851 20.5243C10.1243 20.3841 9.86647 20.2165 9.5958 19.9459C9.32513 19.6752 9.15758 19.4181 9.01709 19.057C8.91123 18.7847 8.78508 18.3755 8.75077 17.6215C8.71371 16.8063 8.7063 16.5614 8.7063 14.4962C8.7063 12.4311 8.71371 12.1875 8.75077 11.3722C8.78524 10.6182 8.91123 10.209 9.01709 9.9364C9.15725 9.57551 9.32513 9.31773 9.5958 9.04706C9.86647 8.77639 10.1243 8.60884 10.4851 8.46835C10.7577 8.36201 11.1671 8.23634 11.9211 8.2017C12.6346 8.16948 12.911 8.15981 14.3523 8.1582V8.16014ZM19.1742 9.44474C18.6618 9.44474 18.2462 9.85993 18.2462 10.3724C18.2462 10.8848 18.6618 11.3004 19.1742 11.3004C19.6865 11.3004 20.1022 10.8848 20.1022 10.3724C20.1022 9.86009 19.6865 9.44442 19.1742 9.44442V9.44474ZM11.0747 14.5001C11.0747 12.3069 12.8528 10.5287 15.0459 10.5286C17.2392 10.5286 19.0169 12.3068 19.0169 14.5001C19.0169 16.6933 17.2393 18.4707 15.0461 18.4707C12.8529 18.4707 11.0747 16.6933 11.0747 14.5001Z" fill="#393CB5"/>
<path fill-rule="evenodd" clip-rule="evenodd" d="M15.0462 11.9229C16.4698 11.9229 17.624 13.0769 17.624 14.5007C17.624 15.9242 16.4698 17.0785 15.0462 17.0785C13.6224 17.0785 12.4684 15.9242 12.4684 14.5007C12.4684 13.0769 13.6224 11.9229 15.0462 11.9229V11.9229Z" fill="#393CB5"/>
</svg>
