<svg width="22" height="22" viewBox="0 0 22 22" fill="none" xmlns="http://www.w3.org/2000/svg">
<path fill-rule="evenodd" clip-rule="evenodd" d="M11 0C4.92487 0 0 4.92487 0 11C0 17.0751 4.92487 22 11 22C17.0751 22 22 17.0751 22 11C22 4.92487 17.0751 0 11 0ZM8.5815 5.16897C9.20729 5.14049 9.40724 5.13353 11.0005 5.13353H10.9987C12.5925 5.13353 12.7917 5.14049 13.4175 5.16897C14.0421 5.19757 14.4686 5.29645 14.8426 5.44153C15.2289 5.59125 15.5552 5.7917 15.8815 6.11804C16.2079 6.44413 16.4083 6.77144 16.5587 7.1573C16.7029 7.53033 16.8019 7.95664 16.8312 8.58121C16.8593 9.20699 16.8667 9.40695 16.8667 11.0003C16.8667 12.5936 16.8593 12.793 16.8312 13.4188C16.8019 14.0431 16.7029 14.4696 16.5587 14.8427C16.4083 15.2285 16.2079 15.5558 15.8815 15.8819C15.5556 16.2082 15.2287 16.4091 14.843 16.559C14.4697 16.7041 14.0429 16.8029 13.4184 16.8315C12.7926 16.86 12.5932 16.867 10.9998 16.867C9.40663 16.867 9.2068 16.86 8.58101 16.8315C7.95657 16.8029 7.53014 16.7041 7.15686 16.559C6.77125 16.4091 6.44393 16.2082 6.11796 15.8819C5.79175 15.5558 5.5913 15.2285 5.44134 14.8426C5.29638 14.4696 5.1975 14.0433 5.16878 13.4187C5.14042 12.7929 5.13333 12.5936 5.13333 11.0003C5.13333 9.40695 5.14067 9.20687 5.16865 8.58108C5.19677 7.95677 5.29577 7.53033 5.44121 7.15718C5.59155 6.77144 5.79199 6.44413 6.11833 6.11804C6.44442 5.79182 6.77174 5.59138 7.1576 5.44153C7.53062 5.29645 7.95694 5.19757 8.5815 5.16897Z" fill="white"/>
<path fill-rule="evenodd" clip-rule="evenodd" d="M10.4744 6.19043C10.5766 6.19027 10.6865 6.19032 10.8051 6.19037L11.0007 6.19043C12.5671 6.19043 12.7527 6.19605 13.3713 6.22417C13.9433 6.25032 14.2538 6.3459 14.4606 6.4262C14.7343 6.53254 14.9295 6.65965 15.1347 6.86498C15.3401 7.07032 15.4672 7.26588 15.5738 7.53966C15.6541 7.74621 15.7498 8.05666 15.7758 8.62867C15.8039 9.24712 15.81 9.4329 15.81 10.9986C15.81 12.5643 15.8039 12.75 15.7758 13.3685C15.7497 13.9405 15.6541 14.2509 15.5738 14.4575C15.4674 14.7313 15.3401 14.9262 15.1347 15.1314C14.9294 15.3368 14.7345 15.4639 14.4606 15.5702C14.254 15.6509 13.9433 15.7462 13.3713 15.7724C12.7529 15.8005 12.5671 15.8066 11.0007 15.8066C9.43412 15.8066 9.24846 15.8005 8.63001 15.7724C8.058 15.746 7.74756 15.6504 7.54063 15.5701C7.26685 15.4638 7.07129 15.3367 6.86596 15.1313C6.66062 14.926 6.53351 14.7309 6.42693 14.457C6.34663 14.2505 6.25093 13.94 6.2249 13.368C6.19678 12.7496 6.19116 12.5638 6.19116 10.9971C6.19116 9.43045 6.19678 9.24565 6.2249 8.6272C6.25105 8.0552 6.34663 7.74475 6.42693 7.53795C6.53327 7.26416 6.66062 7.06861 6.86596 6.86327C7.07129 6.65794 7.26685 6.53082 7.54063 6.42425C7.74743 6.34358 8.058 6.24824 8.63001 6.22197C9.17122 6.19752 9.38095 6.19019 10.4744 6.18896V6.19043ZM14.1323 7.16487C13.7436 7.16487 13.4283 7.47984 13.4283 7.86863C13.4283 8.2573 13.7436 8.57264 14.1323 8.57264C14.5209 8.57264 14.8363 8.2573 14.8363 7.86863C14.8363 7.47996 14.5209 7.16463 14.1323 7.16463V7.16487ZM7.98787 11C7.98787 9.33625 9.33678 7.98729 11.0006 7.98723C12.6644 7.98723 14.013 9.33621 14.013 11C14.013 12.6639 12.6645 14.0122 11.0007 14.0122C9.33685 14.0122 7.98787 12.6639 7.98787 11Z" fill="white"/>
<path fill-rule="evenodd" clip-rule="evenodd" d="M11.0005 9.04443C12.0805 9.04443 12.9561 9.91992 12.9561 11C12.9561 12.08 12.0805 12.9556 11.0005 12.9556C9.92041 12.9556 9.04492 12.08 9.04492 11C9.04492 9.91992 9.92041 9.04443 11.0005 9.04443V9.04443Z" fill="white"/>
</svg>
