<svg width="22" height="22" viewBox="0 0 22 22" fill="none" xmlns="http://www.w3.org/2000/svg">
<path fill-rule="evenodd" clip-rule="evenodd" d="M11 0C4.92487 0 0 4.92487 0 11C0 17.0751 4.92487 22 11 22C17.0751 22 22 17.0751 22 11C22 4.92487 17.0751 0 11 0ZM5.28076 9.11061H7.7736V16.6006H5.28076V9.11061ZM7.93776 6.79374C7.92158 6.05935 7.39642 5.5 6.54364 5.5C5.69085 5.5 5.13333 6.05935 5.13333 6.79374C5.13333 7.51291 5.67437 8.08837 6.51128 8.08837H6.52721C7.39642 8.08837 7.93776 7.51291 7.93776 6.79374ZM13.8935 8.93502C15.5339 8.93502 16.7637 10.0058 16.7637 12.3063L16.7636 16.6009H14.2709V12.5937C14.2709 11.5872 13.9101 10.9004 13.0077 10.9004C12.319 10.9004 11.9088 11.3634 11.7286 11.8106C11.6627 11.9709 11.6466 12.1942 11.6466 12.418V16.601H9.15341C9.15341 16.601 9.18627 9.81392 9.15341 9.1111H11.6466V10.172C11.9774 9.662 12.57 8.93502 13.8935 8.93502Z" fill="white"/>
</svg>
