<svg width="30" height="29" viewBox="0 0 30 29" fill="none" xmlns="http://www.w3.org/2000/svg">
<path fill-rule="evenodd" clip-rule="evenodd" d="M14.5908 0C6.58269 0 0.0908203 6.49187 0.0908203 14.5C0.0908203 22.5081 6.58269 29 14.5908 29C22.5989 29 29.0908 22.5081 29.0908 14.5C29.0908 6.49187 22.5989 0 14.5908 0ZM7.05185 12.0094H10.3379V21.8825H7.05185V12.0094ZM10.5542 8.95538C10.5329 7.98733 9.84064 7.25 8.71651 7.25C7.59239 7.25 6.85747 7.98733 6.85747 8.95538C6.85747 9.90338 7.57066 10.6619 8.67386 10.6619H8.69486C9.84064 10.6619 10.5542 9.90338 10.5542 8.95538ZM18.4051 11.778C20.5674 11.778 22.1885 13.1895 22.1885 16.222L22.1884 21.883H18.9025V16.6009C18.9025 15.2741 18.427 14.3688 17.2374 14.3688C16.3296 14.3688 15.7889 14.9791 15.5514 15.5686C15.4645 15.7799 15.4432 16.0742 15.4432 16.3693V21.8833H12.1567C12.1567 21.8833 12.2001 12.9366 12.1567 12.0101H15.4432V13.4086C15.8793 12.7363 16.6604 11.778 18.4051 11.778Z" fill="#393CB5"/>
</svg>
