<svg width="120" height="38" viewBox="0 0 120 38" fill="none" xmlns="http://www.w3.org/2000/svg">
<path d="M18.5299 37.0599C22.1948 37.0599 25.7774 35.9731 28.8246 33.937C31.8719 31.9009 34.2469 29.007 35.6494 25.6211C37.0519 22.2351 37.4188 18.5094 36.7038 14.9149C35.9889 11.3205 34.224 8.01876 31.6326 5.4273C29.0411 2.83584 25.7394 1.07104 22.145 0.356056C18.5505 -0.358926 14.8247 0.00802866 11.4388 1.41052C8.05294 2.813 5.15895 5.18803 3.12286 8.23527C1.08676 11.2825 0 14.8651 0 18.53C0 23.4444 1.95226 28.1576 5.42729 31.6326C8.90233 35.1076 13.6155 37.0599 18.5299 37.0599V37.0599Z" fill="#393CB5"/>
<path fill-rule="evenodd" clip-rule="evenodd" d="M22.1375 10.4207C21.603 10.201 21.3668 10.9766 21.7915 11.1816C22.3097 11.4325 22.6672 10.6405 22.1375 10.4207ZM21.2192 36.8644C20.4528 36.9777 19.68 37.0429 18.9055 37.0596C18.9219 29.5853 18.9268 22.1104 18.9202 14.6351C18.9202 13.5511 18.8645 12.3114 18.9202 11.2455C19.0252 9.38435 21.3029 8.31355 22.8558 9.88286C23.3658 10.3961 36.281 23.2408 36.3498 23.4163C34.4591 23.4704 32.4864 23.4163 30.5859 23.4163H27.726C26.7143 23.4163 26.0764 23.3982 25.1876 23.0637C23.8637 22.5593 22.7924 21.5528 22.2064 20.2629C21.5161 18.7871 21.7145 16.7357 21.7145 14.9647C21.7145 14.6105 21.7456 12.2557 21.6915 12.1196C21.6758 12.0798 21.6501 12.0447 21.6169 12.0177C21.5837 11.9907 21.5441 11.9727 21.5019 11.9655C21.4597 11.9582 21.4164 11.962 21.3761 11.9763C21.3358 11.9907 21.2998 12.0151 21.2717 12.0474C21.1455 12.195 21.211 13.9365 21.211 14.1907C21.2132 21.748 21.216 29.306 21.2192 36.8644ZM18.1036 37.0546C17.8002 37.0464 17.4985 37.0333 17.1984 37.012V19.748C17.1984 18.7756 17.2624 17.9737 16.9278 17.1063C16.6729 16.438 16.2465 15.8486 15.6914 15.3976C14.2664 14.2399 12.7906 14.4809 10.7146 14.4809H0.444392C0.864852 12.5957 1.57925 10.7884 2.5614 9.12526H13.5121C14.6026 9.12526 15.1388 9.18102 15.9981 9.64181C16.6268 9.98398 17.1505 10.4907 17.5133 11.1078C17.9298 11.7637 18.097 12.605 18.097 13.5249C18.0905 21.3665 18.0921 29.2114 18.102 37.0596L18.1036 37.0546ZM16.3703 36.9333C16.0669 36.8989 15.7652 36.8546 15.4651 36.8054C15.4651 33.488 15.475 30.1723 15.475 26.855C15.475 25.2545 15.6389 24.0247 14.86 22.7833C14.5539 22.2892 14.1455 21.8663 13.6625 21.543C13.1794 21.2198 12.6327 21.0036 12.0592 20.909C11.4263 20.804 8.28764 20.8565 7.40214 20.8565H0.145945C-0.0782386 19.0757 -0.0439954 17.2719 0.247614 15.5009H10.7146C11.4295 15.5009 12.4183 15.4435 13.0792 15.5747C13.6599 15.6905 14.2086 15.9308 14.6876 16.279C15.1665 16.6272 15.5644 17.075 15.8538 17.5916C16.5589 18.9035 16.3703 20.2563 16.3703 21.883V36.9333ZM14.6649 36.6545C14.3599 36.5889 14.0582 36.5168 13.7597 36.4381V31.5317C13.7351 29.5738 12.7889 28.0291 10.8966 27.4158C10.0127 27.1305 8.58937 27.2289 7.59072 27.2289C6.80525 27.2289 4.46031 27.2469 2.17932 27.2485C1.27902 25.5639 0.646664 23.7493 0.305008 21.8699H9.79463C11.0901 21.8699 11.8132 21.9027 12.7676 22.5177C13.5146 22.9966 14.0859 23.7049 14.396 24.5363C14.7551 25.4956 14.6485 26.791 14.6485 27.8864C14.6485 30.8119 14.6616 33.7275 14.6633 36.6545H14.6649Z" fill="white"/>
<path d="M56.9015 24.3202V26.9784H44.0978V9.91113H56.5604V12.5676H47.2675V17.0066H55.5093V19.6156H47.2675V24.3202H56.9015ZM67.7243 26.2716C67.3392 26.5772 66.8955 26.8004 66.4206 26.9275C65.8928 27.0757 65.347 27.1497 64.7988 27.1473C63.3689 27.1473 62.2637 26.7734 61.4831 26.0256C60.7026 25.2779 60.3123 24.1896 60.3123 22.7607V16.4934H58.1674V14.055H60.3123V11.082H63.3607V14.055H66.847V16.4934H63.3607V22.687C63.3607 23.3221 63.5149 23.8059 63.8231 24.1382C64.1314 24.4705 64.5786 24.6372 65.1645 24.6383C65.7778 24.6613 66.3803 24.4732 66.8716 24.1054L67.7243 26.2716ZM82.8418 13.9582V26.9784H79.9393V25.3205C79.446 25.9104 78.8192 26.3741 78.1109 26.6734C77.3642 26.9941 76.5589 27.1561 75.7463 27.1489C74.0059 27.1489 72.6366 26.6652 71.6385 25.6977C70.6404 24.7302 70.1403 23.2959 70.1381 21.3948V13.9582H73.1865V20.9799C73.1865 22.1507 73.4505 23.0253 73.9785 23.6036C74.5066 24.1819 75.2581 24.4705 76.2333 24.4694C77.3265 24.4694 78.1923 24.1322 78.8308 23.4577C79.4692 22.7832 79.7901 21.8118 79.7933 20.5437V13.9582H82.8418ZM94.6665 26.2716C94.2814 26.5772 93.8377 26.8004 93.3628 26.9275C92.8351 27.0757 92.2892 27.1497 91.7411 27.1473C90.3111 27.1473 89.2059 26.7734 88.4253 26.0256C87.6448 25.2779 87.2545 24.1896 87.2545 22.7607V16.4934H85.1063V14.055H87.2545V11.082H90.3029V14.055H93.7974V16.4934H90.3029V22.687C90.3029 23.3221 90.4571 23.8059 90.7654 24.1382C91.0753 24.4662 91.5213 24.6383 92.1067 24.6383C92.72 24.6613 93.3225 24.4732 93.8138 24.1054L94.6665 26.2716ZM102.592 27.1489C101.352 27.1682 100.128 26.8749 99.0317 26.2962C97.9996 25.7521 97.142 24.928 96.5572 23.9185C95.956 22.8716 95.6483 21.6819 95.6668 20.4748C95.6449 19.2674 95.9527 18.0768 96.5572 17.0312C97.1449 16.0269 98.0021 15.2072 99.0317 14.665C100.139 14.1043 101.362 13.8122 102.603 13.8122C103.844 13.8122 105.068 14.1043 106.175 14.665C107.205 15.2075 108.062 16.0271 108.651 17.0312C109.254 18.0772 109.561 19.2676 109.54 20.4748C109.558 21.6817 109.251 22.8712 108.651 23.9185C108.065 24.9277 107.207 25.7517 106.175 26.2962C105.071 26.8766 103.839 27.1699 102.592 27.1489ZM102.592 24.5399C103.109 24.557 103.624 24.466 104.104 24.2729C104.584 24.0798 105.018 23.7887 105.379 23.4183C106.111 22.6706 106.476 21.6867 106.476 20.4666C106.476 19.2466 106.111 18.2627 105.379 17.515C105.018 17.1445 104.584 16.8535 104.104 16.6604C103.624 16.4672 103.109 16.3763 102.592 16.3933C101.47 16.3933 100.547 16.7672 99.8237 17.515C99.1 18.2627 98.7382 19.2466 98.7382 20.4666C98.7382 21.6867 99.1 22.6706 99.8237 23.4183C100.547 24.1661 101.47 24.5399 102.592 24.5399ZM115.368 15.8604C116.242 14.4939 117.786 13.8112 120 13.8123V16.7131C119.767 16.6672 119.531 16.643 119.293 16.6409C118.106 16.6409 117.177 16.9864 116.506 17.6773C115.834 18.3682 115.504 19.363 115.513 20.6618V26.9767H112.465V13.9582H115.368V15.8604Z" fill="#393CB5"/>
</svg>
