<svg width="112" height="130" viewBox="0 0 112 130" fill="none" xmlns="http://www.w3.org/2000/svg">
<path fill-rule="evenodd" clip-rule="evenodd" d="M104.107 65.0608C97.4706 93.8508 81.1367 114.196 55.5474 125.546C29.9582 114.196 13.6242 93.8508 6.9882 65.0608C2.77506 46.7859 4.01399 30.6589 4.54702 25.77C30.8972 23.025 50.4227 8.64762 55.5474 4.5196C60.6721 8.64762 80.1976 23.025 106.546 25.77C107.081 30.6589 108.32 46.7859 104.107 65.0608ZM110.245 23.6667C110.107 22.7696 109.374 22.0833 108.47 22.006C78.7884 19.4732 57.06 0.677089 56.844 0.48719C56.1027 -0.162397 54.9921 -0.162397 54.2509 0.48719C54.0348 0.677089 32.3064 19.4732 2.62445 22.006C1.71948 22.0833 0.987389 22.7696 0.849876 23.6667C0.728079 24.4551 -2.04314 43.2603 3.12867 65.8125C7.92722 86.7368 20.7788 114.769 54.7655 129.492C55.0157 129.6 55.2815 129.654 55.5474 129.654C55.8133 129.654 56.0791 129.6 56.3293 129.492C90.316 114.769 103.168 86.7368 107.965 65.8125C113.138 43.2603 110.365 24.4551 110.245 23.6667Z" fill="#393CB5"/>
<path fill-rule="evenodd" clip-rule="evenodd" d="M55.5475 109.685C14.5423 91.326 16.9874 45.0168 17.8675 36.0719C36.9923 33.9581 51.2754 23.7481 55.5475 20.3665C59.8195 23.7481 74.1052 33.9581 93.2274 36.0719C94.1193 45.0128 96.605 91.305 55.5475 109.685ZM95.1617 32.3145C73.1426 30.4351 57.0038 16.4861 56.844 16.3446C56.1027 15.695 54.9922 15.695 54.2509 16.3446C54.0911 16.4861 37.9523 30.4351 15.9332 32.3145C15.0295 32.3904 14.2961 33.078 14.1586 33.9738C14.0695 34.5566 5.83707 92.4353 54.7656 113.633C55.0157 113.742 55.2816 113.796 55.5475 113.796C55.8133 113.796 56.0792 113.742 56.3293 113.633C105.258 92.4353 97.0254 34.5566 96.9363 33.9738C96.7988 33.078 96.0654 32.3904 95.1617 32.3145Z" fill="#393CB5"/>
<path fill-rule="evenodd" clip-rule="evenodd" d="M74.4094 56.9704L54.2159 76.7514C52.6876 78.2457 50.0657 78.2496 48.5347 76.7645L37.4655 66.0057C36.6863 65.25 36.2488 64.2351 36.2344 63.1494C36.2187 62.0624 36.626 61.0356 37.3843 60.2577C38.1806 59.4378 39.2414 59.0253 40.3035 59.0253C41.325 59.0253 42.3492 59.4064 43.1363 60.1725L49.9831 66.8282C50.7467 67.5721 51.9633 67.5721 52.7269 66.8229L68.7164 51.1595C70.3207 49.5906 72.902 49.6207 74.4697 51.2185C75.2293 51.9951 75.6418 53.0205 75.6313 54.1062C75.6195 55.1932 75.1861 56.2095 74.4094 56.9704ZM65.9674 48.3542L51.3478 62.6753L45.8748 57.3555C42.7133 54.2843 37.641 54.3577 34.5673 57.5179C33.0782 59.0502 32.2754 61.0696 32.3068 63.2044C32.3356 65.3404 33.196 67.3363 34.727 68.8241L45.7962 79.5829C47.2997 81.0405 49.2785 81.8433 51.3688 81.8433C53.4734 81.8433 55.4601 81.0326 56.9662 79.558L77.1597 59.7783C78.6854 58.2827 79.538 56.2842 79.5603 54.1481C79.5812 52.0121 78.7706 49.9952 77.2749 48.4695C74.1894 45.3198 69.1184 45.2687 65.9674 48.3542Z" fill="#393CB5"/>
</svg>
