<svg width="53" height="20" viewBox="0 0 53 20" fill="none" xmlns="http://www.w3.org/2000/svg">
<path d="M24.781 15.6235H22.8843V1.06201H27.9126C29.187 1.06201 30.2737 1.48112 31.1628 2.31933C32.0716 3.15754 32.5261 4.18094 32.5261 5.38952C32.5261 6.62734 32.0716 7.65073 31.1628 8.4792C30.2836 9.30766 29.1969 9.71702 27.9126 9.71702H24.781V15.6235ZM24.781 2.85539V7.93338H27.9521C28.7029 7.93338 29.3352 7.67997 29.8291 7.1829C30.333 6.68582 30.5898 6.08153 30.5898 5.39926C30.5898 4.72674 30.333 4.1322 29.8291 3.63512C29.3352 3.11855 28.7128 2.86514 27.9521 2.86514H24.781V2.85539Z" fill="#A2A9AC"/>
<path d="M37.4853 5.33101C38.8881 5.33101 39.9946 5.70138 40.8046 6.44213C41.6147 7.18287 42.0197 8.19652 42.0197 9.48308V15.6235H40.2119V14.2394H40.1329C39.3524 15.3798 38.3053 15.9451 37.0013 15.9451C35.8849 15.9451 34.9563 15.6235 34.2055 14.9704C33.4547 14.3174 33.0793 13.5084 33.0793 12.5338C33.0793 11.5006 33.4745 10.6819 34.2648 10.0776C35.0551 9.46358 36.1121 9.16144 37.426 9.16144C38.5522 9.16144 39.4809 9.36612 40.202 9.77548V9.34662C40.202 8.6936 39.9452 8.14779 39.4216 7.68969C38.898 7.2316 38.2855 7.00743 37.5841 7.00743C36.5271 7.00743 35.6874 7.44603 35.0749 8.33297L33.4053 7.29983C34.3241 5.98403 35.6874 5.33101 37.4853 5.33101ZM35.0353 12.563C35.0353 13.0503 35.2428 13.4597 35.6676 13.7813C36.0825 14.103 36.5765 14.2687 37.1396 14.2687C37.9398 14.2687 38.651 13.9763 39.2734 13.3915C39.8958 12.8067 40.2119 12.1244 40.2119 11.3349C39.6192 10.8768 38.7992 10.6429 37.7422 10.6429C36.9716 10.6429 36.3295 10.8281 35.8158 11.1887C35.2922 11.5689 35.0353 12.0269 35.0353 12.563Z" fill="#A2A9AC"/>
<path d="M52.3333 5.65268L46.0108 19.9997H44.0548L46.406 14.9802L42.2371 5.65268H44.3018L47.305 12.8067H47.3445L50.2686 5.65268H52.3333Z" fill="#A2A9AC"/>
<path d="M17.237 8.53808C17.237 7.92794 17.1817 7.34412 17.079 6.78271H9.12842V9.9991L13.7073 10.0001C13.5216 11.0703 12.9239 11.9825 12.0081 12.5907V14.6775H14.7337C16.3252 13.2243 17.237 11.0761 17.237 8.53808Z" fill="#4285F4"/>
<path d="M12.0089 12.5905C11.2502 13.0954 10.2732 13.3907 9.13018 13.3907C6.92224 13.3907 5.0492 11.9229 4.37843 9.94434H1.56689V12.0964C2.95982 14.8235 5.82272 16.6949 9.13018 16.6949C11.4162 16.6949 13.3366 15.9531 14.7345 14.6763L12.0089 12.5905Z" fill="#34A853"/>
<path d="M4.11374 8.34816C4.11374 7.7926 4.20759 7.25557 4.37849 6.75069V4.59863H1.56696C0.991019 5.72632 0.666992 6.99923 0.666992 8.34816C0.666992 9.69709 0.992006 10.97 1.56696 12.0977L4.37849 9.94564C4.20759 9.44076 4.11374 8.90372 4.11374 8.34816Z" fill="#FABB05"/>
<path d="M9.13018 3.30411C10.3779 3.30411 11.4952 3.72809 12.3774 4.55655L14.7928 2.17545C13.3257 0.82749 11.4132 0 9.13018 0C5.82371 0 2.95982 1.87135 1.56689 4.59846L4.37843 6.75052C5.04921 4.77195 6.92224 3.30411 9.13018 3.30411Z" fill="#E94235"/>
</svg>
