<svg width="97" height="20" viewBox="0 0 97 20" fill="none" xmlns="http://www.w3.org/2000/svg">
<g clip-path="url(#clip0_25_7678)">
<path fill-rule="evenodd" clip-rule="evenodd" d="M81.1466 15.496L80.9263 15.307C80.3912 14.8503 80.2968 14.0157 80.7847 13.4802L86.5132 6.92905C86.9696 6.39361 87.8037 6.29913 88.3388 6.78731L88.5591 6.97629C89.0942 7.43298 89.1886 8.26763 88.7007 8.80306L82.9722 15.3542C82.5158 15.8897 81.7132 15.9527 81.1466 15.496Z" fill="url(#paint0_linear_25_7678)"/>
<path opacity="0.4" fill-rule="evenodd" clip-rule="evenodd" d="M87.6306 10.0316L87.8669 9.76392C87.8826 9.73243 87.9141 9.70093 87.9299 9.66943C87.6779 9.9529 87.4102 10.2521 87.1582 10.5513C87.3472 10.3466 87.5047 10.1734 87.6306 10.0316Z" fill="url(#paint1_radial_25_7678)"/>
<path fill-rule="evenodd" clip-rule="evenodd" d="M88.732 7.13404L83.0035 0.582854C82.5471 0.047422 81.713 -0.0470661 81.1779 0.441122L80.9576 0.630098C80.4225 1.08679 80.328 1.92144 80.8159 2.45688L85.6474 7.93719L85.7576 8.06318C87.1897 9.49625 86.7018 10.9136 86.3398 11.512C86.6231 11.1813 86.9064 10.8506 87.1739 10.5514C87.4257 10.2522 87.6933 9.95294 87.9451 9.66948C88.1969 9.38601 88.433 9.11829 88.5903 8.94507C89.1412 8.40963 89.2199 7.66948 88.732 7.13404Z" fill="url(#paint2_linear_25_7678)"/>
<path fill-rule="evenodd" clip-rule="evenodd" d="M88.4176 15.496L88.1973 15.307C87.6622 14.8503 87.5678 14.0157 88.0557 13.4802L93.7842 6.92905C94.2406 6.39361 95.0747 6.29913 95.6098 6.78731L95.8301 6.97629C96.3652 7.43298 96.4596 8.26763 95.9717 8.80306L90.2432 15.3542C89.7868 15.8897 88.9842 15.9527 88.4176 15.496Z" fill="url(#paint3_linear_25_7678)"/>
<path opacity="0.4" fill-rule="evenodd" clip-rule="evenodd" d="M94.886 10.0316L95.1222 9.76392C95.138 9.73243 95.1695 9.70093 95.1852 9.66943C94.9333 9.9529 94.6655 10.2521 94.4136 10.5513C94.6026 10.3466 94.7758 10.1734 94.886 10.0316Z" fill="url(#paint4_radial_25_7678)"/>
<path fill-rule="evenodd" clip-rule="evenodd" d="M95.9873 7.13404L90.2588 0.582854C89.8024 0.047422 88.9683 -0.0470661 88.4332 0.441122L88.2129 0.630098C87.6778 1.08679 87.5834 1.92144 88.0713 2.45688L92.9028 7.93719L93.0129 8.06318C94.4451 9.49625 93.9572 10.9136 93.5952 11.512C93.8785 11.1813 94.1618 10.8506 94.4293 10.5514C94.6811 10.2522 94.9487 9.95294 95.2005 9.66948C95.4523 9.38601 95.6883 9.11829 95.8457 8.94507C96.3965 8.40963 96.4752 7.66948 95.9873 7.13404Z" fill="url(#paint5_linear_25_7678)"/>
<path fill-rule="evenodd" clip-rule="evenodd" d="M0.695351 15.4333C0.475023 15.2128 0.349121 14.8821 0.349121 14.4727V1.51205C0.349121 1.08685 0.475023 0.756145 0.742564 0.488428C1.01011 0.220711 1.3406 0.0947266 1.76552 0.0947266C2.19043 0.0947266 2.56814 0.220711 2.81994 0.488428C3.08748 0.756145 3.21338 1.08685 3.21338 1.51205V13.4648H9.3983C10.2796 13.4648 10.736 13.8585 10.736 14.6302C10.736 15.4018 10.2796 15.7955 9.3983 15.7955H1.68683C1.26191 15.7955 0.931417 15.6695 0.695351 15.4333Z" fill="#A2A9AC"/>
<path fill-rule="evenodd" clip-rule="evenodd" d="M12.9711 15.5274C12.7035 15.2597 12.5776 14.9133 12.5776 14.4723V1.49594C12.5776 1.07074 12.7035 0.740031 12.9711 0.472314C13.2386 0.204598 13.5691 0.0786133 13.994 0.0786133C14.4189 0.0786133 14.7967 0.204598 15.0485 0.472314C15.316 0.740031 15.4419 1.07074 15.4419 1.49594V14.4723C15.4419 14.8975 15.316 15.2597 15.0485 15.5274C14.7809 15.7951 14.4347 15.9211 13.994 15.9211C13.5848 15.9211 13.2386 15.7951 12.9711 15.5274Z" fill="#A2A9AC"/>
<path fill-rule="evenodd" clip-rule="evenodd" d="M31.8088 18.7402C31.8088 18.4724 31.7143 18.2205 31.557 17.9527L30.7701 16.7716C30.3137 16.0315 29.7629 15.5276 29.0861 15.3071C30.3924 14.7244 31.3996 13.811 32.092 12.5512C32.8002 11.3071 33.1465 9.77952 33.1465 8.03149C33.1465 6.40944 32.8475 4.99212 32.2494 3.79527C31.6514 2.61417 30.8016 1.68503 29.6842 1.02362C28.5825 0.393696 27.2606 0.0629883 25.7655 0.0629883C24.2389 0.0629883 22.9327 0.3622 21.8153 1.02362C20.7137 1.68503 19.8481 2.59842 19.2501 3.79527C18.6678 5.00787 18.353 6.40944 18.353 8.03149C18.353 9.63779 18.652 11.0551 19.2501 12.2677C19.8481 13.4488 20.6979 14.3779 21.8153 15.0394C22.9327 15.6693 24.2389 16 25.7655 16C26.3006 16 26.7255 16.0945 27.056 16.252C27.3865 16.4094 27.654 16.6614 27.8586 17.0079L29.1491 19.1496C29.3065 19.3858 29.5111 19.5748 29.7314 19.7008C29.9675 19.8268 30.2193 19.8898 30.4868 19.8898C30.833 19.8898 31.1478 19.7638 31.4153 19.559C31.6829 19.3543 31.8088 19.0709 31.8088 18.7402ZM30.2979 7.99999C30.2979 9.82676 29.8888 11.2441 29.0861 12.2362C28.2835 13.2283 27.1661 13.7165 25.734 13.7165C24.3019 13.7165 23.1688 13.2283 22.3661 12.2362C21.5635 11.2441 21.1543 9.85826 21.1543 7.99999C21.1543 6.14172 21.5635 4.7559 22.3661 3.76377C23.1688 2.78739 24.2861 2.29921 25.734 2.29921C27.1819 2.29921 28.2835 2.77165 29.0861 3.76377C29.8888 4.7559 30.2979 6.14172 30.2979 7.99999Z" fill="#A2A9AC"/>
<path fill-rule="evenodd" clip-rule="evenodd" d="M36.2153 14.4723C36.2153 14.9133 36.3412 15.2597 36.6088 15.5274C36.8448 15.7951 37.2068 15.9211 37.6317 15.9369C38.0724 15.9369 38.4186 15.8109 38.6862 15.5432C38.9537 15.2912 39.0796 14.9447 39.0796 14.488V9.73214H43.0298C44.698 9.73214 45.9884 9.32271 46.917 8.4723C47.8455 7.63765 48.3176 6.45655 48.3176 4.96049C48.3176 3.46442 47.8455 2.28332 46.917 1.46443C45.9884 0.614039 44.698 0.20459 43.0298 0.20459H37.6003C37.1753 0.20459 36.8448 0.330574 36.593 0.551047C36.3412 0.787267 36.2153 1.11798 36.2153 1.54317V14.4723ZM45.6107 4.99198C45.6107 6.69277 44.6193 7.55891 42.6678 7.55891L39.0796 7.54317V2.42505H42.6678C44.6193 2.42505 45.6107 3.2912 45.6107 4.99198Z" fill="#A2A9AC"/>
<path fill-rule="evenodd" clip-rule="evenodd" d="M62.9693 15.5276C63.2369 15.2756 63.3785 14.9921 63.3785 14.6614C63.3785 14.4567 63.3313 14.2835 63.2683 14.0787L57.1464 0.960625C57.0047 0.661413 56.8002 0.44094 56.5326 0.28346C56.2651 0.141728 55.9818 0.0629883 55.667 0.0629883C55.3523 0.0629883 55.069 0.12598 54.8015 0.28346C54.5182 0.44094 54.3136 0.677161 54.1877 0.960625L48.0815 14.0787C48.0028 14.2677 47.9556 14.4724 47.9556 14.6614C47.9556 15.0079 48.0815 15.3071 48.3647 15.5276C48.6323 15.748 48.9628 15.874 49.2933 15.874C49.5451 15.874 49.7654 15.811 49.97 15.685C50.1746 15.559 50.332 15.3701 50.4579 15.1024L51.7956 12.1417H59.5385L60.8762 15.1024C60.9864 15.3543 61.1595 15.559 61.3641 15.685C61.5687 15.811 61.8047 15.874 62.0251 15.874C62.387 15.874 62.7018 15.748 62.9693 15.5276ZM58.5943 9.937H52.7556L55.667 3.38582L58.5943 9.937Z" fill="#A2A9AC"/>
<path fill-rule="evenodd" clip-rule="evenodd" d="M74.3952 0.0943613C74.7257 0.0943613 75.0247 0.220346 75.2922 0.488062C75.5598 0.755779 75.6857 1.03924 75.6857 1.4172C75.6857 1.70066 75.5755 1.99987 75.3552 2.26759L70.3349 8.39357V14.5196C70.3349 14.9763 70.209 15.3227 69.9414 15.5904C69.6739 15.8581 69.3434 15.9684 68.9342 15.9684C68.5093 15.9684 68.1473 15.8424 67.8798 15.5904C67.6122 15.3385 67.4863 14.992 67.4863 14.5196V8.39357L62.4975 2.25184C62.2772 1.98413 62.167 1.70066 62.167 1.40145C62.167 1.05499 62.2929 0.740031 62.5604 0.472314C62.828 0.204598 63.1427 0.0786133 63.4575 0.0786133C63.8352 0.0786133 64.1342 0.236094 64.4017 0.566802L68.9185 6.1731L73.4194 0.566802C73.687 0.251842 74.0175 0.0943613 74.3952 0.0943613Z" fill="#A2A9AC"/>
</g>
<defs>
<linearGradient id="paint0_linear_25_7678" x1="82.9359" y1="17.5407" x2="90.8881" y2="13.6877" gradientUnits="userSpaceOnUse">
<stop stop-color="#FFE81D"/>
<stop offset="0.7072" stop-color="#E89D2C"/>
</linearGradient>
<radialGradient id="paint1_radial_25_7678" cx="0" cy="0" r="1" gradientUnits="userSpaceOnUse" gradientTransform="translate(84.4719 10.8504) scale(3.83964 4.38819)">
<stop offset="0.4185" stop-color="#123F06" stop-opacity="0.01"/>
<stop offset="1" stop-color="#123F06"/>
</radialGradient>
<linearGradient id="paint2_linear_25_7678" x1="79.3152" y1="5.78847" x2="87.8586" y2="12.3747" gradientUnits="userSpaceOnUse">
<stop offset="0.0937643" stop-color="#1FAEFF"/>
<stop offset="1" stop-color="#0D7CFF"/>
</linearGradient>
<linearGradient id="paint3_linear_25_7678" x1="90.2068" y1="17.5407" x2="98.159" y2="13.6877" gradientUnits="userSpaceOnUse">
<stop stop-color="#FFE81D"/>
<stop offset="0.7072" stop-color="#E89D2C"/>
</linearGradient>
<radialGradient id="paint4_radial_25_7678" cx="0" cy="0" r="1" gradientUnits="userSpaceOnUse" gradientTransform="translate(91.7337 10.8504) scale(3.83969 4.38819)">
<stop offset="0.4185" stop-color="#123F06" stop-opacity="0.01"/>
<stop offset="1" stop-color="#123F06"/>
</radialGradient>
<linearGradient id="paint5_linear_25_7678" x1="86.5705" y1="5.78847" x2="95.114" y2="12.3747" gradientUnits="userSpaceOnUse">
<stop offset="0.0937643" stop-color="#1FAEFF"/>
<stop offset="1" stop-color="#0D7CFF"/>
</linearGradient>
<clipPath id="clip0_25_7678">
<rect width="96" height="20" fill="white" transform="translate(0.333496)"/>
</clipPath>
</defs>
</svg>
