<svg width="34" height="20" viewBox="0 0 34 20" fill="none" xmlns="http://www.w3.org/2000/svg">
<g clip-path="url(#clip0_25_7666)">
<path fill-rule="evenodd" clip-rule="evenodd" d="M12.6445 17.8279H21.3568V2.17236H12.6445V17.8279Z" fill="#FF5F00"/>
<path fill-rule="evenodd" clip-rule="evenodd" d="M13.1969 10.0003C13.1969 6.82026 14.6914 3.99804 16.9858 2.17248C15.3003 0.844703 13.1692 0.0424805 10.8469 0.0424805C5.34249 0.0424805 0.88916 4.49581 0.88916 10.0003C0.88916 15.5047 5.34249 19.958 10.8469 19.958C13.1703 19.958 15.3003 19.1558 16.9869 17.828C14.6914 16.0303 13.1969 13.1803 13.1969 10.0003Z" fill="#EB001B"/>
<path fill-rule="evenodd" clip-rule="evenodd" d="M33.1115 10.0003C33.1115 15.5047 28.6581 19.958 23.1537 19.958C20.8303 19.958 18.7014 19.1558 17.0137 17.828C19.3359 16.0025 20.8026 13.1814 20.8026 10.0003C20.8026 6.82026 19.3081 3.99804 17.0137 2.17248C18.7014 0.844703 20.8303 0.0424805 23.1537 0.0424805C28.6581 0.0424805 33.1115 4.52359 33.1115 10.0003Z" fill="#F79E1B"/>
</g>
<defs>
<clipPath id="clip0_25_7666">
<rect width="33.3333" height="20" fill="white" transform="translate(0.333496)"/>
</clipPath>
</defs>
</svg>
