<svg width="69" height="20" viewBox="0 0 69 20" fill="none" xmlns="http://www.w3.org/2000/svg">
<g clip-path="url(#clip0_25_7659)">
<path fill-rule="evenodd" clip-rule="evenodd" d="M24.4751 19.6877L27.9233 0.313965H33.5082L30.0587 19.6877H24.4751Z" fill="#A2A9AC"/>
<path fill-rule="evenodd" clip-rule="evenodd" d="M49.9399 0.81375C48.8334 0.42125 47.1001 0 44.9345 0C39.4153 0 35.5281 2.6275 35.4953 6.39375C35.4637 9.1775 38.2707 10.73 40.3903 11.6575C42.5625 12.605 43.2945 13.2137 43.284 14.0612C43.2708 15.3587 41.5467 15.9525 39.9422 15.9525C37.7069 15.9525 36.519 15.6587 34.6845 14.9375L33.9644 14.6275L33.1812 18.965C34.4861 19.5062 36.9001 19.9762 39.4034 19.9987C45.2748 19.9975 49.0857 17.4025 49.1304 13.3787C49.1501 11.175 47.6626 9.4975 44.4404 8.11375C42.485 7.22125 41.2892 6.6225 41.3023 5.71375C41.3023 4.90875 42.3155 4.0475 44.5008 4.0475C46.3274 4.02125 47.6494 4.3975 48.6823 4.79L49.1817 5.015L49.9399 0.81375Z" fill="#A2A9AC"/>
<path fill-rule="evenodd" clip-rule="evenodd" d="M59.4619 0.31375C58.1241 0.31375 57.1569 0.70125 56.5695 1.9625L48.292 19.6875H54.2055L55.3553 16.7188H62.4199L63.077 19.6875H68.3334L63.7327 0.3125H59.4619V0.31375ZM56.9243 12.8425C57.3856 11.7263 59.1478 7.4275 59.1478 7.4275C59.1149 7.4775 59.6077 6.305 59.8876 5.58L60.2661 7.25C60.2661 7.25 61.3332 11.875 61.5592 12.8438H56.9243V12.8425Z" fill="#A2A9AC"/>
<path fill-rule="evenodd" clip-rule="evenodd" d="M14.2897 13.5938L13.7982 10.9375C12.7798 7.8425 9.61674 4.49125 6.07129 2.8125L11.0057 19.6875H16.9192L25.7894 0.3125H19.8773L14.2897 13.5938Z" fill="#A2A9AC"/>
<path fill-rule="evenodd" clip-rule="evenodd" d="M0 0.313965V0.625215C7.00679 2.22771 11.8729 6.28271 13.7994 10.9377L11.773 1.96646C11.4353 0.740215 10.4103 0.355215 9.19872 0.313965H0Z" fill="#F7981D"/>
</g>
<defs>
<clipPath id="clip0_25_7659">
<rect width="68.3333" height="20" fill="white"/>
</clipPath>
</defs>
</svg>
