<svg width="102" height="32" viewBox="0 0 102 32" fill="none" xmlns="http://www.w3.org/2000/svg">
<g clip-path="url(#clip0_41_2031)">
<path d="M11.4054 19.153C11.1468 19.153 10.9059 19.047 10.7162 18.8712C10.3545 18.5014 10.3369 17.9023 10.6815 17.5151L10.9401 17.2158L13.2144 14.8908C13.7316 14.3621 14.0243 13.6575 14.0072 12.918C14.0072 12.178 13.7145 11.4734 13.1973 10.9453C12.6801 10.4172 11.9909 10.1348 11.2676 10.1348C10.8022 10.1348 10.3545 10.2582 9.95812 10.4696L7.01169 13.4112L6.82203 13.5696C6.64946 13.728 6.40852 13.8165 6.18467 13.8165C5.92608 13.8165 5.68514 13.7105 5.49548 13.5347C5.13379 13.1649 5.11615 12.5658 5.46074 12.1786L5.5644 12.0726L8.61392 8.95455L11.8189 5.67814C12.0086 5.48425 12.2495 5.37885 12.5081 5.37885C12.7667 5.37885 13.0076 5.48481 13.1973 5.67814C13.5766 6.06592 13.5766 6.70001 13.1973 7.08723L12.646 7.65086L12.2495 8.07359L13.2662 8.5493C13.7834 8.79617 14.2311 9.11294 14.6104 9.50072C16.4541 11.3855 16.4541 14.4325 14.6104 16.3173L12.1464 18.8362L12.0604 18.9242C11.8708 19.0651 11.6464 19.153 11.4054 19.153Z" fill="white"/>
<path d="M11.268 11.9666C11.5266 11.9666 11.7675 12.0726 11.9572 12.2484C12.3188 12.6182 12.3365 13.2173 11.9919 13.6045L11.7333 13.9038L9.45898 16.2288C8.94182 16.7575 8.64905 17.4621 8.66614 18.2016C8.66614 18.9416 8.95891 19.6462 9.47608 20.1743C9.99324 20.7024 10.6824 20.9848 11.4058 20.9848C11.8711 20.9848 12.3188 20.8614 12.7153 20.65L15.6788 17.6909L15.8684 17.5325C16.041 17.3741 16.282 17.2857 16.5058 17.2857C16.7644 17.2857 17.0053 17.3916 17.195 17.5675C17.5567 17.9372 17.5743 18.5364 17.2297 18.9236L17.1261 19.0295L14.0766 22.1825L10.8715 25.4589C10.6819 25.6528 10.4409 25.7582 10.1824 25.7582C9.92377 25.7582 9.68283 25.6523 9.49317 25.4589C9.11384 25.0712 9.11384 24.4371 9.49317 24.0499L10.0445 23.4862L10.4409 23.0635L9.42425 22.5878C8.90708 22.3409 8.45938 22.0241 8.08005 21.6364C6.23634 19.7516 6.23634 16.7045 8.08005 14.8197L10.544 12.3009L10.6301 12.2129C10.8026 12.0545 11.0265 11.9666 11.268 11.9666Z" fill="white"/>
<path d="M11.7504 30.8484C11.6296 30.8484 11.4918 30.8309 11.3887 30.7605C11.285 30.7075 8.70086 29.5272 6.08194 27.5726C4.51389 26.4098 3.25626 25.2301 2.36032 24.0498C1.17105 22.4818 0.550781 20.9143 0.550781 19.3818V5.06204C0.550781 4.70977 0.740446 4.39244 1.05031 4.23406C1.27415 4.11063 6.63274 1.38037 11.7675 1.38037C16.9022 1.38037 22.2602 4.11063 22.4846 4.23406C22.7951 4.39244 22.9842 4.70977 22.9842 5.06204V19.3818C22.9842 20.9143 22.381 22.4818 21.1752 24.0493C20.2621 25.2295 19.0216 26.4272 17.4536 27.572C14.8346 29.5098 12.2499 30.7075 12.1468 30.7599C12.009 30.8129 11.8711 30.8484 11.7504 30.8484ZM2.34267 5.64315V19.3818C2.34267 22.0061 4.9445 24.472 7.13281 26.0924C9.04545 27.5015 10.9752 28.5234 11.7675 28.9106C12.5603 28.5228 14.5071 27.5015 16.4198 26.075C18.591 24.472 21.1752 21.9886 21.1752 19.3818V5.64315C19.7621 4.99159 15.6098 3.23023 11.7675 3.23023C7.89092 3.23023 3.73869 4.99159 2.34267 5.64315Z" fill="white"/>
<path d="M88.5449 10.7863C89.2341 10.6629 89.9062 10.6099 90.5607 10.6099C91.2151 10.6099 91.8872 10.6629 92.5764 10.7863V18.7302C92.5764 19.5227 92.6453 20.1748 92.7661 20.6855C92.8868 21.1961 93.0765 21.6014 93.3345 21.9007C93.5925 22.2 93.903 22.4113 94.2823 22.5348C94.6616 22.6582 95.1093 22.7287 95.6088 22.7287C96.3151 22.7287 96.9012 22.6582 97.3665 22.5348V10.7863C98.0557 10.6629 98.7107 10.6099 99.3481 10.6099C100.003 10.6099 100.675 10.6629 101.364 10.7863V25.2121C100.761 25.4234 99.9507 25.6348 98.9688 25.8287C97.9692 26.04 96.9354 26.128 95.8674 26.128C94.9026 26.128 93.9719 26.0575 93.0936 25.8991C92.1976 25.7407 91.4224 25.4234 90.7503 24.9128C90.0782 24.4196 89.544 23.6795 89.1481 22.7112C88.7522 21.7429 88.5449 20.4567 88.5449 18.8537V10.7863Z" fill="white"/>
<path d="M74.4157 22.7106C74.8121 23.6795 75.3464 24.419 76.0179 24.9122C76.69 25.4229 77.4652 25.7402 78.3611 25.8986C79.2571 26.0569 80.1701 26.1274 81.135 26.1274C81.6522 26.1274 82.1517 26.1099 82.6341 26.0569V30.8479C83.3233 30.9713 83.9954 31.0243 84.6499 31.0243C85.2872 31.0243 85.9593 30.9713 86.6314 30.8479V19.1V10.7863C85.9422 10.6629 85.2701 10.6099 84.6157 10.6099C83.9783 10.6099 83.3062 10.6629 82.6341 10.7863V22.5348C82.1688 22.6757 81.5832 22.7287 80.8764 22.7287C80.3592 22.7287 79.9115 22.6582 79.5499 22.5348C79.1705 22.4113 78.8607 22.2 78.6021 21.9007C78.3435 21.6014 78.1538 21.1961 78.0336 20.6855C77.9134 20.1748 77.844 19.5227 77.844 18.7302V10.7863C77.1548 10.6629 76.4998 10.6099 75.8282 10.6099C75.1732 10.6099 74.5017 10.6629 73.8125 10.7863V18.8537C73.8125 20.4741 74.0193 21.7598 74.4157 22.7106Z" fill="white"/>
<path d="M64.8539 26.3219C63.6652 26.3219 62.6315 26.128 61.7526 25.7227C60.8737 25.3175 60.1504 24.7713 59.5643 24.0668C58.9782 23.3622 58.5476 22.5342 58.2548 21.5834C57.9621 20.6325 57.8242 19.6106 57.8242 18.5008C57.8242 17.391 57.9621 16.3697 58.2548 15.4008C58.5476 14.432 58.9787 13.604 59.5643 12.8994C60.1327 12.1949 60.8737 11.6312 61.7526 11.226C62.6315 10.8207 63.6652 10.6094 64.8539 10.6094C66.0427 10.6094 67.0941 10.8207 67.9724 11.226C68.8683 11.6312 69.5923 12.1949 70.1778 12.8994C70.7633 13.604 71.1945 14.4494 71.4873 15.4008C71.7629 16.3697 71.9179 17.4091 71.9179 18.5008C71.9179 19.6106 71.78 20.632 71.4873 21.5834C71.2116 22.5348 70.7633 23.3622 70.1778 24.0668C69.5923 24.7713 68.8512 25.3175 67.9724 25.7227C67.0764 26.1105 66.0427 26.3219 64.8539 26.3219ZM64.8539 23.1864C65.9048 23.1864 66.6806 22.7811 67.1454 21.9886C67.6107 21.1781 67.8346 20.0334 67.8346 18.5189C67.8346 17.0044 67.6107 15.8591 67.1454 15.0491C66.68 14.2392 65.9219 13.8514 64.8539 13.8514C63.8202 13.8514 63.0621 14.2567 62.5967 15.0491C62.1314 15.8596 61.9075 17.0044 61.9075 18.5189C61.9075 20.0334 62.1314 21.1787 62.5967 21.9886C63.0621 22.7811 63.8031 23.1864 64.8539 23.1864Z" fill="white"/>
<path d="M49.3638 26.3219C48.1751 26.3219 47.1413 26.128 46.2624 25.7227C45.3836 25.3175 44.6597 24.7719 44.0741 24.0673C43.4886 23.3628 43.0574 22.5348 42.7647 21.5839C42.4719 20.6331 42.3164 19.6112 42.3164 18.5014C42.3164 17.3916 42.4713 16.3703 42.7647 15.4014C43.058 14.4325 43.488 13.6045 44.0741 12.9C44.6426 12.1954 45.3836 11.6318 46.2624 11.2265C47.1413 10.8213 48.1751 10.6099 49.3638 10.6099C50.5525 10.6099 51.6039 10.8213 52.4828 11.2265C53.3787 11.6318 54.1026 12.1954 54.6882 12.9C55.2737 13.6045 55.7049 14.45 55.9976 15.4014C56.2733 16.3703 56.4282 17.4096 56.4282 18.5014C56.4282 19.6112 56.2904 20.6325 55.9976 21.5839C55.7049 22.5353 55.2737 23.3628 54.6882 24.0673C54.1026 24.7719 53.3616 25.318 52.4828 25.7233C51.6039 26.1105 50.5525 26.3219 49.3638 26.3219ZM49.3638 23.1863C50.4147 23.1863 51.1904 22.7811 51.6557 21.9886C52.1211 21.1781 52.3449 20.0334 52.3449 18.5189C52.3449 17.0044 52.1211 15.8591 51.6557 15.0491C51.1904 14.2386 50.4323 13.8514 49.3638 13.8514C48.33 13.8514 47.5719 14.2567 47.1065 15.0491C46.6412 15.8596 46.4174 17.0044 46.4174 18.5189C46.4174 20.0334 46.6412 21.1787 47.1065 21.9886C47.5719 22.7811 48.33 23.1863 49.3638 23.1863Z" fill="white"/>
<path d="M39.8349 13.622C39.4385 12.6532 38.9042 11.9137 38.2327 11.4205C37.5606 10.9098 36.7854 10.5925 35.8894 10.4341C34.9935 10.2757 34.0804 10.2053 33.1156 10.2053C32.5984 10.2053 32.0989 10.2228 31.6164 10.2757V5.48483C30.9272 5.36139 30.2552 5.30841 29.6007 5.30841C28.9633 5.30841 28.2912 5.36139 27.6191 5.48483V17.2333V25.5469C28.3083 25.6703 28.9804 25.7233 29.6349 25.7233C30.2722 25.7233 30.9443 25.6703 31.6164 25.5469V13.7985C32.0818 13.6576 32.6673 13.5871 33.3741 13.5871C33.8913 13.5871 34.339 13.6576 34.7007 13.781C35.08 13.9044 35.3899 14.1158 35.6485 14.4151C35.9071 14.7144 36.0967 15.1196 36.2169 15.6303C36.3371 16.1409 36.4066 16.7931 36.4066 17.5855V25.5294C37.0958 25.6529 37.7508 25.7058 38.4223 25.7058C39.0773 25.7058 39.7489 25.6529 40.4381 25.5294V17.4621C40.421 15.8766 40.2313 14.5909 39.8349 13.622Z" fill="white"/>
</g>
<defs>
<clipPath id="clip0_41_2031">
<rect width="102" height="31" fill="white" transform="translate(0 0.5)"/>
</clipPath>
</defs>
</svg>
