<svg width="100" height="55" viewBox="0 0 100 55" fill="none" xmlns="http://www.w3.org/2000/svg">
<rect width="100" height="55" rx="8" fill="white"/>
<path d="M35.2455 14.1792H28.7559V25.8414H35.2455V14.1792Z" fill="#FF5F00"/>
<path d="M29.1674 20.0105C29.1663 18.8874 29.4209 17.7787 29.9116 16.7685C30.4024 15.7582 31.1166 14.8729 32.0002 14.1795C30.906 13.3195 29.592 12.7846 28.2083 12.6361C26.8246 12.4876 25.427 12.7314 24.1753 13.3396C22.9236 13.9478 21.8682 14.896 21.1299 16.0756C20.3915 17.2553 20 18.6189 20 20.0105C20 21.4022 20.3915 22.7658 21.1299 23.9455C21.8682 25.1251 22.9236 26.0732 24.1753 26.6815C25.427 27.2897 26.8246 27.5335 28.2083 27.385C29.592 27.2365 30.906 26.7016 32.0002 25.8416C31.1166 25.1482 30.4024 24.2628 29.9117 23.2526C29.4209 22.2423 29.1664 21.1337 29.1674 20.0105V20.0105Z" fill="#EB001B"/>
<path d="M43.9998 20.0105C43.9998 21.4022 43.6083 22.7658 42.87 23.9454C42.1317 25.1251 41.0764 26.0732 39.8247 26.6814C38.5731 27.2897 37.1755 27.5335 35.7918 27.385C34.4081 27.2365 33.0941 26.7016 32 25.8416C32.8828 25.1475 33.5964 24.262 34.0871 23.2519C34.5778 22.2418 34.8328 21.1335 34.8328 20.0105C34.8328 18.8876 34.5778 17.7793 34.0871 16.7692C33.5964 15.7591 32.8828 14.8736 32 14.1795C33.0941 13.3194 34.4081 12.7846 35.7918 12.6361C37.1755 12.4876 38.5731 12.7314 39.8247 13.3396C41.0764 13.9479 42.1317 14.896 42.87 16.0756C43.6083 17.2553 43.9998 18.6189 43.9998 20.0105V20.0105Z" fill="#F79E1B"/>
<path d="M43.2915 24.6062V24.3675H43.3878V24.3188H43.1426V24.3675H43.2389V24.6062H43.2915ZM43.7675 24.6062V24.3184H43.6923L43.6059 24.5164L43.5194 24.3184H43.4442V24.6062H43.4973V24.3891L43.5784 24.5763H43.6334L43.7145 24.3886V24.6062H43.7675Z" fill="#F79E1B"/>
<path d="M67.8832 16.2463L66.2798 23.7425H64.3404L65.944 16.2463H67.8832ZM76.0422 21.0867L77.063 18.2717L77.6504 21.0867H76.0422ZM78.2067 23.7425H80L78.4334 16.2463H76.7792C76.4064 16.2463 76.0921 16.4624 75.953 16.7958L73.0431 23.7425H75.0799L75.4842 22.623H77.9719L78.2067 23.7425ZM73.1441 21.2952C73.1526 19.3169 70.4092 19.2073 70.4276 18.3233C70.4335 18.0547 70.6898 17.7686 71.2499 17.6954C71.5276 17.6597 72.2939 17.6307 73.1625 18.0309L73.5022 16.4407C73.0357 16.2719 72.4353 16.1094 71.6883 16.1094C69.7711 16.1094 68.4224 17.1277 68.4116 18.5872C68.3993 19.6664 69.375 20.2681 70.1086 20.6276C70.865 20.995 71.1184 21.2305 71.1147 21.5588C71.1094 22.0617 70.5116 22.2844 69.9549 22.2929C68.9793 22.308 68.4138 22.0292 67.9632 21.8191L67.6111 23.4624C68.065 23.6702 68.9013 23.8509 69.7672 23.8602C71.8054 23.8602 73.1381 22.8538 73.1441 21.2952ZM65.1121 16.2463L61.9699 23.7425H59.9202L58.3737 17.76C58.28 17.3921 58.1982 17.2569 57.9131 17.1014C57.4468 16.8482 56.6769 16.6113 56 16.4639L56.0459 16.2463H59.3457C59.7661 16.2463 60.1442 16.526 60.2405 17.0102L61.0574 21.3483L63.0747 16.2463H65.1121Z" fill="#1434CB"/>
<path d="M32.0629 45V39.5455H32.8726V40.3977H32.9436C33.0573 40.1065 33.2407 39.8804 33.4941 39.7195C33.7474 39.5561 34.0516 39.4744 34.4067 39.4744C34.7665 39.4744 35.066 39.5561 35.3051 39.7195C35.5466 39.8804 35.7348 40.1065 35.8698 40.3977H35.9266C36.0663 40.116 36.2758 39.8923 36.5551 39.7266C36.8345 39.5585 37.1695 39.4744 37.5601 39.4744C38.0478 39.4744 38.4467 39.6271 38.7568 39.9325C39.067 40.2356 39.222 40.7079 39.222 41.3494V45H38.384V41.3494C38.384 40.947 38.2739 40.6593 38.0537 40.4865C37.8335 40.3137 37.5743 40.2273 37.276 40.2273C36.8925 40.2273 36.5954 40.3433 36.3847 40.5753C36.174 40.8049 36.0686 41.0961 36.0686 41.4489V45H35.2164V41.2642C35.2164 40.9541 35.1157 40.7043 34.9145 40.5149C34.7133 40.3232 34.454 40.2273 34.1368 40.2273C33.919 40.2273 33.7154 40.2853 33.526 40.4013C33.339 40.5173 33.1875 40.6783 33.0715 40.8842C32.9578 41.0878 32.901 41.3234 32.901 41.5909V45H32.0629ZM40.7544 45V39.5455H41.5924V45H40.7544ZM41.1805 38.6364C41.0171 38.6364 40.8763 38.5807 40.7579 38.4695C40.6419 38.3582 40.5839 38.2244 40.5839 38.0682C40.5839 37.9119 40.6419 37.7782 40.7579 37.6669C40.8763 37.5556 41.0171 37.5 41.1805 37.5C41.3438 37.5 41.4835 37.5556 41.5995 37.6669C41.7179 37.7782 41.7771 37.9119 41.7771 38.0682C41.7771 38.2244 41.7179 38.3582 41.5995 38.4695C41.4835 38.5807 41.3438 38.6364 41.1805 38.6364ZM43.9655 41.7188V45H43.1274V39.5455H43.9371V40.3977H44.0081C44.1359 40.1207 44.33 39.8982 44.5905 39.7301C44.8509 39.5597 45.1871 39.4744 45.599 39.4744C45.9683 39.4744 46.2915 39.5502 46.5684 39.7017C46.8454 39.8509 47.0609 40.0781 47.2148 40.3835C47.3686 40.6866 47.4456 41.0701 47.4456 41.5341V45H46.6075V41.5909C46.6075 41.1624 46.4962 40.8286 46.2737 40.5895C46.0512 40.348 45.7458 40.2273 45.3575 40.2273C45.09 40.2273 44.8509 40.2853 44.6402 40.4013C44.4318 40.5173 44.2673 40.6866 44.1466 40.9091C44.0258 41.1316 43.9655 41.4015 43.9655 41.7188ZM51.7753 45V44.3608L54.1759 41.733C54.4576 41.4252 54.6896 41.1577 54.8719 40.9304C55.0542 40.7008 55.1891 40.4853 55.2767 40.2841C55.3667 40.0805 55.4117 39.8674 55.4117 39.6449C55.4117 39.3892 55.3501 39.1679 55.227 38.9808C55.1063 38.7938 54.9405 38.6494 54.7298 38.5476C54.5191 38.4458 54.2824 38.3949 54.0196 38.3949C53.7403 38.3949 53.4964 38.4529 53.2881 38.5689C53.0821 38.6825 52.9223 38.8423 52.8087 39.0483C52.6974 39.2543 52.6418 39.4957 52.6418 39.7727H51.8037C51.8037 39.3466 51.902 38.9725 52.0985 38.6506C52.295 38.3286 52.5625 38.0777 52.901 37.8977C53.2419 37.7178 53.6243 37.6278 54.048 37.6278C54.4742 37.6278 54.8518 37.7178 55.1808 37.8977C55.5099 38.0777 55.768 38.3203 55.955 38.6257C56.142 38.9311 56.2355 39.2708 56.2355 39.6449C56.2355 39.9124 56.187 40.174 56.0899 40.4297C55.9952 40.683 55.8295 40.9659 55.5928 41.2784C55.3584 41.5885 55.0329 41.9673 54.6162 42.4148L52.9827 44.1619V44.2188H56.3634V45H51.7753ZM60.2021 45.0994C59.6671 45.0994 59.2114 44.9538 58.835 44.6626C58.4585 44.3691 58.1709 43.9441 57.972 43.3878C57.7732 42.8291 57.6737 42.1544 57.6737 41.3636C57.6737 40.5777 57.7732 39.9065 57.972 39.3501C58.1733 38.7914 58.4621 38.3653 58.8385 38.0717C59.2173 37.7758 59.6718 37.6278 60.2021 37.6278C60.7325 37.6278 61.1858 37.7758 61.5622 38.0717C61.941 38.3653 62.2298 38.7914 62.4287 39.3501C62.6299 39.9065 62.7306 40.5777 62.7306 41.3636C62.7306 42.1544 62.6311 42.8291 62.4323 43.3878C62.2334 43.9441 61.9458 44.3691 61.5693 44.6626C61.1929 44.9538 60.7372 45.0994 60.2021 45.0994ZM60.2021 44.3182C60.7325 44.3182 61.1444 44.0625 61.4379 43.5511C61.7315 43.0398 61.8783 42.3106 61.8783 41.3636C61.8783 40.7339 61.8108 40.1977 61.6759 39.755C61.5433 39.3123 61.3515 38.9749 61.1006 38.7429C60.852 38.5109 60.5525 38.3949 60.2021 38.3949C59.6766 38.3949 59.2658 38.6541 58.9699 39.1726C58.674 39.6887 58.526 40.419 58.526 41.3636C58.526 41.9934 58.5923 42.5284 58.7249 42.9688C58.8575 43.4091 59.048 43.7441 59.2966 43.9737C59.5476 44.2034 59.8494 44.3182 60.2021 44.3182ZM66.2249 45.9091V36.8182H66.8073V45.9091H66.2249ZM68.1851 39.5455C68.1425 39.1856 67.9697 38.9062 67.6666 38.7074C67.3636 38.5085 66.9919 38.4091 66.5516 38.4091C66.2296 38.4091 65.9479 38.4612 65.7064 38.5653C65.4673 38.6695 65.2803 38.8127 65.1453 38.995C65.0128 39.1773 64.9465 39.3845 64.9465 39.6165C64.9465 39.8106 64.9926 39.9775 65.085 40.1172C65.1797 40.2545 65.3004 40.3693 65.4472 40.4616C65.594 40.5516 65.7478 40.6262 65.9088 40.6854C66.0698 40.7422 66.2178 40.7884 66.3527 40.8239L67.0914 41.0227C67.2807 41.0724 67.4914 41.1411 67.7235 41.2287C67.9578 41.3163 68.1816 41.4358 68.3946 41.5874C68.6101 41.7365 68.7876 41.9283 68.9273 42.1626C69.067 42.397 69.1368 42.6847 69.1368 43.0256C69.1368 43.4186 69.0338 43.7737 68.8279 44.0909C68.6243 44.4081 68.326 44.6603 67.933 44.8473C67.5423 45.0343 67.0677 45.1278 66.509 45.1278C65.9881 45.1278 65.5371 45.0438 65.156 44.8757C64.7772 44.7076 64.4789 44.4732 64.2611 44.1726C64.0457 43.8719 63.9237 43.5227 63.8953 43.125H64.8044C64.8281 43.3996 64.9204 43.6269 65.0814 43.8068C65.2448 43.9844 65.4507 44.117 65.6993 44.2045C65.9503 44.2898 66.2201 44.3324 66.509 44.3324C66.8451 44.3324 67.147 44.2779 67.4145 44.169C67.682 44.0578 67.8939 43.9039 68.0502 43.7074C68.2064 43.5085 68.2845 43.2765 68.2845 43.0114C68.2845 42.7699 68.2171 42.5734 68.0821 42.4219C67.9472 42.2704 67.7696 42.1473 67.5494 42.0526C67.3293 41.9579 67.0914 41.875 66.8357 41.804L65.9408 41.5483C65.3726 41.3849 64.9228 41.1518 64.5914 40.8487C64.2599 40.5457 64.0942 40.1491 64.0942 39.6591C64.0942 39.2519 64.2043 38.8968 64.4244 38.5938C64.647 38.2884 64.9453 38.0516 65.3193 37.8835C65.6958 37.7131 66.116 37.6278 66.58 37.6278C67.0487 37.6278 67.4654 37.7119 67.83 37.88C68.1946 38.0457 68.4834 38.273 68.6965 38.5618C68.9119 38.8506 69.0255 39.1785 69.0374 39.5455H68.1851Z" fill="black" fill-opacity="0.3"/>
</svg>
