<svg width="24" height="24" viewBox="0 0 24 24" fill="none" xmlns="http://www.w3.org/2000/svg">
<path d="M18.0002 20.79H6.00021C5.50437 20.7901 5.01345 20.6918 4.55585 20.5008C4.09825 20.3099 3.68307 20.0301 3.33432 19.6776C2.98557 19.3251 2.71019 18.907 2.5241 18.4474C2.33802 17.9878 2.24492 17.4959 2.25021 17V10C2.26333 9.01324 2.66389 8.07117 3.36545 7.37709C4.06702 6.68301 5.01333 6.29258 6.00021 6.29004H18.0002C18.9871 6.29258 19.9334 6.68301 20.635 7.37709C21.3365 8.07117 21.7371 9.01324 21.7502 10V17C21.7555 17.4959 21.6624 17.9878 21.4763 18.4474C21.2902 18.907 21.0149 19.3251 20.6661 19.6776C20.3174 20.0301 19.9022 20.3099 19.4446 20.5008C18.987 20.6918 18.4961 20.7901 18.0002 20.79ZM6.00021 7.79004C5.41034 7.78995 4.84403 8.0215 4.4232 8.43484C4.00237 8.84819 3.7607 9.41026 3.75021 10V17C3.7449 17.2989 3.79917 17.5957 3.90987 17.8734C4.02056 18.151 4.18545 18.4038 4.39491 18.617C4.60438 18.8301 4.85421 18.9995 5.12984 19.115C5.40546 19.2306 5.70134 19.2901 6.00021 19.29H18.0002C18.2991 19.2901 18.595 19.2306 18.8706 19.115C19.1462 18.9995 19.3961 18.8301 19.6055 18.617C19.815 18.4038 19.9799 18.151 20.0906 17.8734C20.2013 17.5957 20.2555 17.2989 20.2502 17V10C20.2397 9.41026 19.9981 8.84819 19.5772 8.43484C19.1564 8.0215 18.5901 7.78995 18.0002 7.79004H6.00021Z" fill="#FF9900"/>
<path d="M21 17.2898H15.45C14.6013 17.2898 13.7874 16.9527 13.1873 16.3525C12.5871 15.7524 12.25 14.9385 12.25 14.0898V12.9998C12.2526 12.1519 12.5906 11.3395 13.1902 10.74C13.7897 10.1404 14.6021 9.80244 15.45 9.7998H21C21.1989 9.7998 21.3897 9.87882 21.5303 10.0195C21.671 10.1601 21.75 10.3509 21.75 10.5498C21.75 10.7487 21.671 10.9395 21.5303 11.0801C21.3897 11.2208 21.1989 11.2998 21 11.2998H15.45C14.9991 11.2998 14.5667 11.4789 14.2479 11.7977C13.9291 12.1165 13.75 12.5489 13.75 12.9998V14.0998C13.75 14.5507 13.9291 14.9831 14.2479 15.3019C14.5667 15.6207 14.9991 15.7998 15.45 15.7998H21C21.1989 15.7998 21.3897 15.8788 21.5303 16.0195C21.671 16.1601 21.75 16.3509 21.75 16.5498C21.75 16.7487 21.671 16.9395 21.5303 17.0801C21.3897 17.2208 21.1989 17.2998 21 17.2998V17.2898Z" fill="#FF9900"/>
<path d="M17 14.2899C16.8012 14.2897 16.6106 14.2106 16.47 14.0699C16.3995 14.001 16.3436 13.9185 16.3058 13.8274C16.268 13.7363 16.249 13.6385 16.25 13.5399C16.2496 13.4433 16.2701 13.3478 16.31 13.2599C16.3477 13.1675 16.4019 13.0828 16.47 13.0099C16.6107 12.8694 16.8013 12.7905 17 12.7905C17.1988 12.7905 17.3894 12.8694 17.53 13.0099C17.5981 13.0828 17.6524 13.1675 17.69 13.2599C17.73 13.3478 17.7505 13.4433 17.75 13.5399C17.7511 13.6385 17.7321 13.7363 17.6943 13.8274C17.6565 13.9185 17.6006 14.001 17.53 14.0699C17.3895 14.2106 17.1989 14.2897 17 14.2899Z" fill="#FF9900"/>
<path d="M6.33039 7.78984C6.15369 7.78715 5.98361 7.72215 5.85015 7.6063C5.7167 7.49046 5.62844 7.33121 5.60094 7.15663C5.57343 6.98206 5.60846 6.80339 5.69984 6.65212C5.79122 6.50086 5.93307 6.38672 6.10039 6.32984L15.3404 3.32984C15.6103 3.2416 15.897 3.21705 16.178 3.25808C16.459 3.29912 16.7267 3.40464 16.9601 3.56639C17.1935 3.72813 17.3863 3.94171 17.5234 4.19039C17.6605 4.43908 17.7382 4.71612 17.7504 4.99984V6.99984C17.7504 7.19875 17.6714 7.38951 17.5307 7.53017C17.3901 7.67082 17.1993 7.74984 17.0004 7.74984C16.8015 7.74984 16.6107 7.67082 16.4701 7.53017C16.3294 7.38951 16.2504 7.19875 16.2504 6.99984V4.99984C16.2504 4.9469 16.2377 4.89474 16.2134 4.84775C16.189 4.80075 16.1537 4.76031 16.1104 4.72984C16.0637 4.70689 16.0124 4.69496 15.9604 4.69496C15.9084 4.69496 15.8571 4.70689 15.8104 4.72984L6.57039 7.72984C6.49318 7.75969 6.41257 7.77985 6.33039 7.78984Z" fill="#FF9900"/>
</svg>
