<svg width="28" height="28" viewBox="0 0 28 28" fill="none" xmlns="http://www.w3.org/2000/svg">
<path d="M21.2224 26.9999C22.8179 26.9999 24.1113 25.7065 24.1113 24.1111C24.1113 22.5156 22.8179 21.2222 21.2224 21.2222C19.6269 21.2222 18.3335 22.5156 18.3335 24.1111C18.3335 25.7065 19.6269 26.9999 21.2224 26.9999Z" stroke="#383F41" stroke-width="1.7" stroke-linecap="round" stroke-linejoin="round"/>
<path d="M8.22238 26.9999C9.81787 26.9999 11.1113 25.7065 11.1113 24.1111C11.1113 22.5156 9.81787 21.2222 8.22238 21.2222C6.6269 21.2222 5.3335 22.5156 5.3335 24.1111C5.3335 25.7065 6.6269 26.9999 8.22238 26.9999Z" stroke="#383F41" stroke-width="1.7" stroke-linecap="round" stroke-linejoin="round"/>
<path d="M1 1H2.72118C3.40229 1 3.99085 1.4758 4.13356 2.14179L7.97755 20.0804C8.12026 20.7464 8.70882 21.2222 9.38993 21.2222H21.2222" stroke="#383F41" stroke-width="1.7" stroke-linecap="round" stroke-linejoin="round"/>
<path d="M5.3335 5.33337H25.0802C26.0413 5.33337 26.7344 6.25463 26.468 7.17816L23.968 15.8448C23.7896 16.4632 23.2237 16.8889 22.5802 16.8889H7.8335" stroke="#383F41" stroke-width="1.7" stroke-linecap="round" stroke-linejoin="round"/>
</svg>
