<svg width="30" height="30" viewBox="0 0 30 30" fill="none" xmlns="http://www.w3.org/2000/svg">
<path d="M22.2224 27.9999C23.8179 27.9999 25.1113 26.7065 25.1113 25.1111C25.1113 23.5156 23.8179 22.2222 22.2224 22.2222C20.6269 22.2222 19.3335 23.5156 19.3335 25.1111C19.3335 26.7065 20.6269 27.9999 22.2224 27.9999Z" stroke="white" stroke-width="1.7" stroke-linecap="round" stroke-linejoin="round"/>
<path d="M9.22238 27.9999C10.8179 27.9999 12.1113 26.7065 12.1113 25.1111C12.1113 23.5156 10.8179 22.2222 9.22238 22.2222C7.6269 22.2222 6.3335 23.5156 6.3335 25.1111C6.3335 26.7065 7.6269 27.9999 9.22238 27.9999Z" stroke="white" stroke-width="1.7" stroke-linecap="round" stroke-linejoin="round"/>
<path d="M2 2H3.72118C4.40229 2 4.99085 2.4758 5.13356 3.14179L8.97755 21.0804C9.12026 21.7464 9.70882 22.2222 10.3899 22.2222H22.2222" stroke="white" stroke-width="1.7" stroke-linecap="round" stroke-linejoin="round"/>
<path d="M6.3335 6.33325H26.0802C27.0413 6.33325 27.7344 7.25451 27.468 8.17804L24.968 16.8447C24.7896 17.4631 24.2237 17.8888 23.5802 17.8888H8.8335" stroke="white" stroke-width="1.7" stroke-linecap="round" stroke-linejoin="round"/>
</svg>
