<svg width="16" height="16" viewBox="0 0 16 16" fill="none" xmlns="http://www.w3.org/2000/svg">
<rect width="16" height="16" fill="white"/>
<path fill-rule="evenodd" clip-rule="evenodd" d="M1.74823 1H6.71351C7.1258 1 7.46174 1.33679 7.46174 1.74823V6.71351C7.46174 7.12495 7.1258 7.46174 6.71351 7.46174H2.06296C2.28268 7.16482 2.54651 6.85942 2.81882 6.54809L1.98661 5.71587C1.64982 6.01024 1.31982 6.29444 1 6.52349V1.74823C1 1.33679 1.33679 1 1.74823 1ZM3.39399 5.13986C3.25826 5.00412 3.03939 5.00412 2.90366 5.13986C2.76877 5.27559 2.76877 5.49446 2.90366 5.62934C3.03939 5.76508 3.25826 5.76508 3.39399 5.62934C3.52972 5.49446 3.52972 5.27559 3.39399 5.13986ZM6.02721 4.96849L6.37248 4.62322C6.31989 3.84021 4.69363 2.21311 3.91062 2.16137L3.56535 2.50579C4.47901 2.90281 5.64292 4.07944 6.02721 4.96849ZM5.85754 5.13816C5.52415 4.26353 4.27032 3.00885 3.39569 2.67545L3.16664 2.90535C4.06587 3.29558 5.23911 4.46798 5.6285 5.36721L5.85754 5.13816ZM5.45968 5.53603C5.12628 4.6614 3.87245 3.40672 2.99782 3.07332L2.76792 3.30322C3.67309 3.69515 4.83955 4.85991 5.23063 5.76508L5.45968 5.53603ZM5.06181 5.93389C4.72842 5.05927 3.47373 3.80458 2.59995 3.47204L1.08992 4.98122L1.5582 5.4495L1.81864 5.28153C1.89584 5.23232 1.98746 5.2179 2.05193 5.28153L2.10707 5.33667L3.18954 6.41914L3.25232 6.48276C3.31594 6.54639 3.30067 6.63886 3.25232 6.71521L3.08435 6.97649L3.55263 7.44477L5.06181 5.93389Z" fill="#383F41"/>
<path fill-rule="evenodd" clip-rule="evenodd" d="M9.28649 1H14.2518C14.6624 1 14.9992 1.33679 14.9992 1.74823V6.23081L13.5137 4.65461C13.7547 4.0752 13.6495 3.38296 13.1922 2.89602C12.7926 2.47101 12.2183 2.30643 11.6856 2.40908L12.5297 3.30576L12.2378 4.27965L11.2478 4.51379L10.4037 3.61795C10.2689 4.14476 10.3995 4.72672 10.7999 5.15089C11.2589 5.63698 11.9435 5.78289 12.5373 5.57675L14.3112 7.4592C14.2925 7.46089 14.2721 7.46089 14.2535 7.46089H9.28819C8.8759 7.46089 8.54081 7.1241 8.54081 6.71266V1.74823C8.53911 1.33679 8.8742 1 9.28649 1Z" fill="#8DC63F"/>
<path fill-rule="evenodd" clip-rule="evenodd" d="M1.74823 8.53748H6.71351C7.1258 8.53748 7.46174 8.87426 7.46174 9.28655V14.2518C7.46174 14.6624 7.1258 14.9992 6.71351 14.9992H5.44186C5.27559 14.7812 5.22384 14.5012 5.35957 14.3282C5.49785 14.1534 5.7532 14.1908 5.95934 14.3655C5.97292 14.3774 5.98649 14.3901 6.00006 14.402C6.14767 14.0805 6.21809 13.714 6.20366 13.3204C6.18839 13.3178 6.17397 13.3153 6.15955 13.311C5.94238 13.261 5.73114 13.0676 5.69127 12.83C5.69042 12.83 5.69042 12.83 5.68958 12.8283C5.64886 12.5942 5.79646 12.4568 6.00176 12.4661C6.01533 12.4661 6.02976 12.4678 6.04503 12.4686C5.91608 12.0903 5.72012 11.7331 5.47495 11.4116C5.46646 11.4184 5.45628 11.4252 5.44695 11.432C5.30528 11.5355 5.07114 11.5075 4.8896 11.32C4.70721 11.1317 4.6877 10.9001 4.80222 10.7652C4.80986 10.7559 4.81664 10.7474 4.82513 10.738C4.50446 10.4742 4.13967 10.2545 3.74605 10.1001C3.7469 10.1162 3.7469 10.1298 3.7469 10.1442C3.7469 10.1468 3.7469 10.1493 3.7469 10.1535C3.7469 10.1578 3.7469 10.1603 3.7469 10.1629C3.74605 10.1654 3.74605 10.1697 3.7469 10.1722C3.7452 10.1748 3.7452 10.179 3.7452 10.1815C3.74435 10.1841 3.74435 10.1866 3.7435 10.1909C3.7435 10.1934 3.74266 10.196 3.74266 10.1994C3.74181 10.2036 3.74096 10.2061 3.74096 10.2087C3.74011 10.2129 3.73926 10.2155 3.73926 10.218C3.73841 10.2206 3.73757 10.2231 3.73757 10.2265C3.73672 10.2307 3.73587 10.2333 3.73587 10.2358C3.73502 10.2384 3.73417 10.2409 3.73417 10.2443C3.73332 10.2469 3.73248 10.2511 3.73163 10.2528C3.73078 10.2553 3.72993 10.2579 3.72908 10.2613C3.72823 10.2638 3.72738 10.2681 3.72654 10.2698C3.72484 10.274 3.72484 10.2766 3.72399 10.2783C3.72314 10.2825 3.72229 10.2833 3.7206 10.2867C3.7189 10.2893 3.7189 10.2918 3.71805 10.2952C3.71636 10.2978 3.71551 10.2995 3.71381 10.302C3.71212 10.3045 3.71127 10.3071 3.70957 10.3105C3.70787 10.313 3.70703 10.3156 3.70618 10.3173C3.70448 10.3198 3.70278 10.3224 3.70109 10.3241C3.69939 10.3266 3.69769 10.3292 3.696 10.3325C3.6943 10.3342 3.69345 10.3368 3.6926 10.3393C3.69091 10.3419 3.68836 10.3436 3.68667 10.3461C3.68497 10.3478 3.68327 10.3504 3.68158 10.3512C3.67988 10.3538 3.67818 10.3555 3.67649 10.358C3.67479 10.3605 3.67224 10.3622 3.6714 10.3631C3.6697 10.3656 3.66715 10.3673 3.66631 10.3699C3.66461 10.3716 3.66206 10.3741 3.66037 10.375C3.65782 10.3775 3.65528 10.3792 3.65443 10.3801C3.65273 10.3826 3.65019 10.3843 3.64849 10.3851C3.64679 10.3868 3.6434 10.3894 3.64255 10.3902C3.64001 10.3919 3.63746 10.3945 3.63577 10.3953C3.63322 10.397 3.63068 10.3979 3.62898 10.4004C3.62728 10.4021 3.62389 10.403 3.62219 10.4047C3.6205 10.4072 3.61795 10.4072 3.61541 10.4089C3.61286 10.4106 3.61032 10.4114 3.60692 10.4131C3.60692 10.4148 3.60692 10.4148 3.60692 10.4148C3.60523 10.4165 3.60268 10.4174 3.60014 10.4191C3.59759 10.4191 3.59505 10.4208 3.5925 10.4216C3.58911 10.4233 3.58741 10.4242 3.58402 10.4259C3.58147 10.4276 3.57893 10.4276 3.57553 10.4301C3.57384 10.4301 3.57044 10.4318 3.56705 10.4318C3.56705 10.4335 3.56705 10.4335 3.56705 10.4335C3.56451 10.4352 3.56196 10.4352 3.55942 10.436C3.55602 10.4377 3.55263 10.4386 3.55093 10.4386C3.54754 10.4403 3.54415 10.4411 3.5416 10.4411C3.53906 10.4411 3.53566 10.4428 3.53312 10.4428C3.53312 10.4445 3.53312 10.4445 3.53312 10.4445C3.53057 10.4445 3.52803 10.4462 3.52463 10.4462C3.52124 10.4479 3.5187 10.4479 3.51615 10.4488C3.51191 10.4488 3.50936 10.4488 3.50597 10.4488C3.50258 10.4505 3.50003 10.4505 3.49749 10.4505C3.49325 10.4522 3.4907 10.4522 3.48731 10.4522C3.48307 10.4522 3.48052 10.4539 3.47713 10.4522C3.47373 10.4539 3.47034 10.4539 3.4678 10.4539C3.46355 10.4539 3.46016 10.4539 3.45762 10.4539C3.45337 10.4539 3.44998 10.4556 3.44659 10.4556C3.44319 10.4539 3.43895 10.4539 3.43641 10.4539C3.43301 10.4539 3.42877 10.4539 3.42538 10.4522C3.42199 10.4539 3.41774 10.4522 3.41435 10.4522C3.41096 10.4522 3.40672 10.4505 3.40332 10.4505C3.39993 10.4505 3.39569 10.4505 3.39229 10.4488C3.38805 10.4488 3.38466 10.4471 3.38127 10.4471C3.37787 10.4471 3.37363 10.4454 3.37024 10.4445C3.366 10.4445 3.3626 10.4428 3.35921 10.4428C3.35497 10.4411 3.35073 10.4411 3.34733 10.4403C3.09453 10.3834 2.89263 10.1561 2.84427 9.92959C2.84088 9.91347 2.83749 9.89905 2.83494 9.88208C2.40823 9.83882 2.00273 9.88717 1.64388 10.0178C1.65576 10.0322 1.66933 10.0475 1.68206 10.0619C1.87293 10.2867 1.91026 10.5531 1.71345 10.6838C1.52936 10.8059 1.23668 10.7482 1 10.5803V9.2874C1 8.87426 1.33679 8.53748 1.74823 8.53748ZM1.90347 14.9992L1.88311 14.9856C1.89669 14.9678 1.91026 14.9517 1.92383 14.9347C2.1198 14.6913 2.12658 14.3485 1.88396 14.1161C1.64134 13.882 1.27571 13.882 1.01273 14.0652L1.00085 14.0737V14.2527C1.00085 14.6633 1.33764 15.0001 1.74908 15.0001H1.90347V14.9992ZM3.42283 11.057C2.99697 10.9739 2.59741 11.0553 2.31407 11.27L2.30813 11.275C2.54821 11.1715 2.83833 11.1419 3.14204 11.2012C3.54924 11.2818 3.91062 11.4965 4.19227 11.784C4.47222 12.0682 4.67158 12.4262 4.73096 12.8148C4.79034 13.2024 4.69194 13.5554 4.47561 13.8022C4.30764 13.9948 4.07266 14.128 3.77998 14.1712C4.23129 14.1958 4.5842 14.0389 4.81664 13.7742C5.0423 13.5155 5.14495 13.1465 5.08302 12.741C5.02109 12.3372 4.8124 11.9622 4.52057 11.6653C4.2262 11.3641 3.8487 11.141 3.42283 11.057ZM3.39229 10.8483C2.90535 10.7474 2.43877 10.8339 2.10453 11.0731C1.75247 11.3251 1.53615 11.7348 1.55905 12.2693C1.58196 12.8037 1.85427 13.3467 2.2725 13.753C2.68648 14.156 3.24044 14.4198 3.77913 14.4478C4.31782 14.4749 4.73011 14.2824 4.99564 13.9643C5.24844 13.6622 5.35957 13.2347 5.28492 12.7723C5.21027 12.3117 4.97189 11.8892 4.64019 11.5499C4.30764 11.2097 3.87924 10.9493 3.39229 10.8483Z" fill="#8DC63F"/>
<path fill-rule="evenodd" clip-rule="evenodd" d="M14.2518 8.53748H9.2865C8.87421 8.53748 8.53912 8.87426 8.53912 9.28655V14.2518C8.53912 14.6624 8.87421 14.9992 9.2865 14.9992H14.2518C14.6624 14.9992 14.9992 14.6624 14.9992 14.2518V9.28655C14.9992 8.87426 14.6632 8.53748 14.2518 8.53748ZM11.0722 11.4506L11.6618 11.974L11.6652 11.9774L12.2557 12.4999C12.2743 12.5016 12.2938 12.4948 12.3057 12.4804L12.4058 12.3667C12.4211 12.3489 12.4253 12.326 12.4177 12.3065C12.4109 12.287 12.4168 12.2658 12.4304 12.2505L12.4669 12.2073C12.5314 12.1335 12.5271 12.024 12.4601 11.9587C12.3863 11.8891 12.3829 11.7738 12.4508 11.6966C12.8028 11.2987 13.1532 10.9017 13.5052 10.5055C13.5205 10.4885 13.5154 10.4292 13.5146 10.4054C13.4798 10.3655 13.4798 10.3028 13.5163 10.2612L13.6546 10.1059C13.6876 10.0686 13.6927 10.0169 13.6732 9.977L13.8929 9.72929C13.9506 9.71911 14.0185 9.68008 14.0745 9.61646C14.0957 9.59271 14.1135 9.5681 14.1271 9.54265C14.1602 9.48327 14.1457 9.40862 14.0914 9.36705L14.0236 9.3153L13.9642 9.25422C13.9167 9.20587 13.8412 9.19993 13.786 9.2398C13.7623 9.25677 13.7402 9.27713 13.719 9.30088C13.663 9.3645 13.6316 9.43661 13.6283 9.49515L13.4085 9.74286C13.3661 9.72844 13.3152 9.73862 13.2821 9.77679L13.1439 9.93289C13.1065 9.97445 13.0455 9.98209 13.0013 9.95155C12.9784 9.95409 12.9182 9.95664 12.9029 9.97276C12.5509 10.3698 12.1997 10.7651 11.8468 11.1621C11.7789 11.2385 11.6635 11.2486 11.5855 11.1842C11.5125 11.1256 11.4031 11.1341 11.3378 11.2071L11.2996 11.2486C11.286 11.2639 11.2648 11.2724 11.2453 11.2682C11.2249 11.2631 11.202 11.2699 11.1868 11.2877L11.0858 11.4005C11.0722 11.4124 11.068 11.4319 11.0722 11.4506ZM11.851 13.0573C11.8646 13.042 11.8637 13.0191 11.8485 13.0064L11.8077 12.9597L12.0792 12.6442C12.0936 12.6272 12.0919 12.6017 12.0758 12.5873L11.5422 12.1139L11.5397 12.1114L11.0061 11.638C10.9899 11.6236 10.9645 11.6253 10.9492 11.6414L10.6684 11.9494L10.6167 11.9146C10.6023 11.9019 10.5793 11.9027 10.5658 11.9188L10.3639 12.1462C10.3503 12.1606 10.352 12.1835 10.3673 12.1971L10.4317 12.2548C10.4479 12.2692 10.4496 12.2946 10.4343 12.3116L9.82603 12.9971C9.77174 13.0581 9.73696 13.1336 9.72593 13.2134C9.72508 13.2287 9.73017 13.2422 9.74204 13.2524C9.88541 13.3797 10.0288 13.5069 10.1721 13.6342C10.1755 13.6367 10.1781 13.6401 10.1815 13.6426C10.1823 13.6426 10.1823 13.6435 10.1832 13.6443C10.184 13.6443 10.184 13.6452 10.1849 13.646C10.1883 13.6486 10.1908 13.6511 10.1942 13.6545C10.3376 13.7818 10.4809 13.9082 10.6243 14.0354C10.6362 14.0456 10.6506 14.0498 10.665 14.0464C10.7431 14.0252 10.8143 13.982 10.8678 13.9209L11.476 13.2346C11.4913 13.2176 11.5159 13.2159 11.5329 13.2304L11.5982 13.2872C11.6135 13.3008 11.6364 13.2991 11.6491 13.2838L11.851 13.0573ZM10.0848 13.7996L10.0644 13.7818L10.0619 13.7792L10.0415 13.7614L9.73441 13.4891L9.70048 13.5264L9.6377 13.8098C9.63346 13.8293 9.6394 13.8496 9.65467 13.8624L9.70896 13.9107C9.73186 13.9311 9.73271 13.9659 9.71235 13.9888L9.68012 14.0244C9.66654 14.0397 9.64618 14.0439 9.62582 14.0422C9.61649 14.0414 9.60801 14.0439 9.60122 14.0524L9.56135 14.0965C9.54947 14.1092 9.55372 14.1313 9.56814 14.1457L9.61904 14.1907L9.66145 14.2288L9.66485 14.2322L9.75901 14.3154C9.77513 14.3289 9.79719 14.3298 9.80906 14.3162L9.84809 14.2713C9.85487 14.2636 9.85657 14.2543 9.85487 14.2458C9.85063 14.2263 9.85233 14.2051 9.8659 14.1898L9.89729 14.1533C9.91765 14.1304 9.95243 14.1279 9.97534 14.1474L10.0296 14.1949C10.044 14.2076 10.0653 14.2119 10.0839 14.2051L10.3579 14.1092L10.391 14.071L10.0848 13.7996Z" fill="#383F41"/>
</svg>
