<svg width="235" height="60" viewBox="0 0 235 60" fill="none" xmlns="http://www.w3.org/2000/svg">
<path d="M112.501 45.2217L124.859 14.2236H132.415L144.752 45.2217H136.124L133.71 37.7794H123.536L121.122 45.2217H112.501ZM125.454 31.8786H131.759L128.641 22.2585L125.454 31.8786Z" fill="white"/>
<path d="M145.787 31.8786V14.2236H153.799V32.8421C153.799 34.8272 154.229 36.3033 155.086 37.2631C155.943 38.2266 157.274 38.7065 159.079 38.7065C160.884 38.7065 162.211 38.2266 163.061 37.2631C163.911 36.2996 164.337 34.8272 164.337 32.8421V14.2236H172.349V31.8786C172.349 36.2197 171.182 39.5827 168.852 41.9641C166.522 44.3455 163.258 45.538 159.064 45.538C154.871 45.538 151.607 44.3455 149.277 41.9641C146.95 39.5827 145.787 36.2197 145.787 31.8786Z" fill="white"/>
<path d="M176.692 21.0551V14.2236H202.685V21.0551H193.649V45.2253H185.637V21.0551H176.692Z" fill="white"/>
<path d="M206.489 36.3504C205.898 34.4308 205.603 32.213 205.603 29.7007C205.603 27.1885 205.898 24.9743 206.489 23.051C207.079 21.1314 207.849 19.6044 208.801 18.4773C209.749 17.3502 210.883 16.4268 212.203 15.7105C213.523 14.9943 214.821 14.5108 216.094 14.2708C217.37 14.0308 218.734 13.9072 220.193 13.9072C221.648 13.9072 223.015 14.0272 224.291 14.2708C225.568 14.5144 226.862 14.9943 228.182 15.7105C229.502 16.4304 230.636 17.3539 231.585 18.4773C232.533 19.6044 233.302 21.1277 233.897 23.051C234.487 24.9707 234.783 27.1885 234.783 29.7007C234.783 32.213 234.487 34.4271 233.897 36.3504C233.306 38.2701 232.533 39.7971 231.585 40.9242C230.636 42.0512 229.502 42.9747 228.182 43.6909C226.862 44.4108 225.564 44.8907 224.291 45.1307C223.019 45.3743 221.651 45.4942 220.193 45.4942C218.738 45.4942 217.37 45.3743 216.094 45.1307C214.818 44.8871 213.523 44.4072 212.203 43.6909C210.883 42.9747 209.749 42.0512 208.801 40.9242C207.852 39.7934 207.083 38.2701 206.489 36.3504ZM215.412 22.6875C214.212 23.989 213.614 26.3268 213.614 29.7007C213.614 33.0747 214.212 35.4124 215.412 36.714C216.612 38.0156 218.205 38.6664 220.193 38.6664C222.18 38.6664 223.774 38.0156 224.973 36.714C226.173 35.4124 226.771 33.0747 226.771 29.7007C226.771 26.3268 226.173 23.989 224.973 22.6875C223.774 21.3859 222.18 20.7351 220.193 20.7351C218.205 20.7351 216.612 21.3859 215.412 22.6875Z" fill="white"/>
<path d="M84.5864 32.4314V14.7764H92.598V33.3948C92.598 35.3799 93.0283 36.856 93.8853 37.8158C94.7422 38.7793 96.0732 39.2592 97.8783 39.2592C99.6834 39.2592 101.011 38.7793 101.86 37.8158C102.71 36.8524 103.137 35.3799 103.137 33.3948V14.7764H111.148V32.4314C111.148 36.7724 109.981 40.1354 107.651 42.5168C105.321 44.8982 102.057 46.0907 97.8637 46.0907C93.6701 46.0907 90.4064 44.8982 88.0762 42.5168C85.7497 40.1354 84.5864 36.7724 84.5864 32.4314Z" fill="#8DC63F"/>
<path fill-rule="evenodd" clip-rule="evenodd" d="M3.2163 0H24.5599C26.3321 0 27.7762 1.44338 27.7762 3.20669V24.4865C27.7762 26.2498 26.3321 27.6932 24.5599 27.6932H4.56919C5.51366 26.4207 6.64776 25.1118 7.81832 23.7775L4.241 20.2109C2.7933 21.4725 1.37477 22.6904 0 23.6721V3.20669C0 1.44338 1.4477 0 3.2163 0ZM10.2907 17.7422C9.70726 17.1605 8.76643 17.1605 8.18298 17.7422C7.60317 18.324 7.60317 19.262 8.18298 19.84C8.76643 20.4218 9.70726 20.4218 10.2907 19.84C10.8742 19.262 10.8742 18.324 10.2907 17.7422ZM21.6098 17.0078L23.0939 15.5281C22.8678 12.1723 15.8773 5.19906 12.5115 4.97728L11.0273 6.45338C14.9547 8.15489 19.9579 13.1976 21.6098 17.0078ZM20.8804 17.735C19.4473 13.9866 14.0577 8.60935 10.298 7.18052L9.31342 8.16579C13.1788 9.83822 18.2221 14.8628 19.8959 18.7166L20.8804 17.735ZM19.1702 19.4401C17.7371 15.6917 12.3474 10.3145 8.58775 8.88567L7.59952 9.87094C11.4904 11.5506 16.5045 16.5425 18.1856 20.4218L19.1702 19.4401ZM17.4599 21.1453C16.0268 17.3969 10.6335 12.0196 6.87749 10.5944L0.386542 17.0624L2.39946 19.0693L3.51897 18.3494C3.85081 18.1385 4.24465 18.0767 4.52179 18.3494L4.75882 18.5857L9.41188 23.2249L9.68173 23.4976C9.95522 23.7702 9.88959 24.1665 9.68173 24.4937L8.9597 25.6135L10.9726 27.6205L17.4599 21.1453Z" fill="white"/>
<path fill-rule="evenodd" clip-rule="evenodd" d="M35.6199 0H56.9635C58.7285 0 60.1762 1.44337 60.1762 3.20669V22.4178L53.791 15.6626C54.8266 13.1794 54.3744 10.2127 52.4089 8.1258C50.6913 6.30431 48.2226 5.59899 45.9325 6.03891L49.5609 9.88185L48.3065 14.0556L44.0509 15.0591L40.4225 11.2198C39.8427 13.4776 40.4043 15.9717 42.1255 17.7895C44.0983 19.8728 47.0411 20.4981 49.5937 19.6146L57.2188 27.6823C57.1385 27.6895 57.051 27.6895 56.9708 27.6895H35.6272C33.855 27.6895 32.4146 26.2462 32.4146 24.4828V3.20669C32.4073 1.44337 33.8477 0 35.6199 0Z" fill="#8DC63F"/>
<path fill-rule="evenodd" clip-rule="evenodd" d="M3.2163 32.3032H24.5599C26.3321 32.3032 27.7762 33.7466 27.7762 35.5136V56.7933C27.7762 58.553 26.3321 59.9964 24.5599 59.9964H19.0936C18.3789 59.062 18.1564 57.8622 18.7399 57.1206C19.3343 56.3716 20.4319 56.5316 21.318 57.2805C21.3764 57.3314 21.4347 57.386 21.4931 57.4369C22.1276 56.0589 22.4303 54.4883 22.3683 52.8013C22.3026 52.7904 22.2406 52.7795 22.1786 52.7613C21.2451 52.5468 20.3371 51.7179 20.1657 50.6999C20.1621 50.6999 20.1621 50.6999 20.1584 50.6926C19.9834 49.6892 20.6179 49.1002 21.5004 49.1402C21.5587 49.1402 21.6207 49.1474 21.6863 49.1511C21.1321 47.5296 20.2897 45.9989 19.2358 44.621C19.1994 44.6501 19.1556 44.6792 19.1155 44.7083C18.5065 45.1518 17.5 45.0318 16.7197 44.2283C15.9356 43.4212 15.8518 42.4287 16.3441 41.8506C16.3769 41.8106 16.4061 41.7742 16.4425 41.7342C15.0641 40.6035 13.4961 39.6619 11.8041 39.0002C11.8077 39.0693 11.8077 39.1274 11.8077 39.1892C11.8077 39.2002 11.8077 39.2111 11.8077 39.2292C11.8077 39.2474 11.8077 39.2583 11.8077 39.2692C11.8041 39.2801 11.8041 39.2983 11.8077 39.3092C11.8004 39.3201 11.8004 39.3383 11.8004 39.3492C11.7968 39.3601 11.7968 39.371 11.7931 39.3892C11.7931 39.4001 11.7895 39.411 11.7895 39.4256C11.7858 39.4437 11.7822 39.4547 11.7822 39.4656C11.7785 39.4837 11.7749 39.4946 11.7749 39.5056C11.7712 39.5165 11.7676 39.5274 11.7676 39.5419C11.7639 39.5601 11.7603 39.571 11.7603 39.5819C11.7566 39.5928 11.753 39.6037 11.753 39.6183C11.7494 39.6292 11.7457 39.6473 11.7421 39.6546C11.7384 39.6655 11.7348 39.6764 11.7311 39.691C11.7275 39.7019 11.7238 39.7201 11.7202 39.7273C11.7129 39.7455 11.7129 39.7564 11.7092 39.7637C11.7056 39.7819 11.7019 39.7855 11.6947 39.8001C11.6874 39.811 11.6874 39.8219 11.6837 39.8364C11.6764 39.8473 11.6728 39.8546 11.6655 39.8655C11.6582 39.8764 11.6545 39.8873 11.6472 39.9019C11.64 39.9128 11.6363 39.9237 11.6327 39.9309C11.6254 39.9418 11.6181 39.9527 11.6108 39.96C11.6035 39.9709 11.5962 39.9818 11.5889 39.9964C11.5816 40.0036 11.578 40.0146 11.5743 40.0255C11.567 40.0364 11.5561 40.0436 11.5488 40.0545C11.5415 40.0618 11.5342 40.0727 11.5269 40.0764C11.5196 40.0873 11.5123 40.0945 11.505 40.1054C11.4977 40.1164 11.4868 40.1236 11.4832 40.1273C11.4759 40.1382 11.4649 40.1454 11.4613 40.1563C11.454 40.1636 11.443 40.1745 11.4357 40.1782C11.4248 40.1891 11.4139 40.1963 11.4102 40.2C11.4029 40.2109 11.392 40.2182 11.3847 40.2218C11.3774 40.2291 11.3628 40.24 11.3592 40.2436C11.3482 40.2509 11.3373 40.2618 11.33 40.2654C11.3191 40.2727 11.3081 40.2763 11.3008 40.2872C11.2935 40.2945 11.2789 40.2981 11.2716 40.3054C11.2644 40.3163 11.2534 40.3163 11.2425 40.3236C11.2315 40.3309 11.2206 40.3345 11.206 40.3418C11.206 40.349 11.206 40.349 11.206 40.349C11.1987 40.3563 11.1878 40.3599 11.1768 40.3672C11.1659 40.3672 11.155 40.3745 11.144 40.3781C11.1294 40.3854 11.1221 40.389 11.1075 40.3963C11.0966 40.4036 11.0857 40.4036 11.0711 40.4145C11.0638 40.4145 11.0492 40.4218 11.0346 40.4218C11.0346 40.429 11.0346 40.429 11.0346 40.429C11.0237 40.4363 11.0127 40.4363 11.0018 40.4399C10.9872 40.4472 10.9726 40.4508 10.9653 40.4508C10.9507 40.4581 10.9362 40.4617 10.9252 40.4617C10.9143 40.4617 10.8997 40.469 10.8888 40.469C10.8888 40.4763 10.8888 40.4763 10.8888 40.4763C10.8778 40.4763 10.8669 40.4836 10.8523 40.4836C10.8377 40.4908 10.8268 40.4908 10.8158 40.4945C10.7976 40.4945 10.7866 40.4945 10.7721 40.4945C10.7575 40.5017 10.7465 40.5017 10.7356 40.5017C10.7174 40.509 10.7064 40.509 10.6918 40.509C10.6736 40.509 10.6627 40.5163 10.6481 40.509C10.6335 40.5163 10.6189 40.5163 10.608 40.5163C10.5897 40.5163 10.5751 40.5163 10.5642 40.5163C10.546 40.5163 10.5314 40.5236 10.5168 40.5236C10.5022 40.5163 10.484 40.5163 10.473 40.5163C10.4585 40.5163 10.4402 40.5163 10.4256 40.509C10.411 40.5163 10.3928 40.509 10.3782 40.509C10.3636 40.509 10.3454 40.5017 10.3308 40.5017C10.3162 40.5017 10.298 40.5017 10.2834 40.4945C10.2652 40.4945 10.2506 40.4872 10.236 40.4872C10.2214 40.4872 10.2032 40.4799 10.1886 40.4763C10.1704 40.4763 10.1558 40.469 10.1412 40.469C10.123 40.4617 10.1047 40.4617 10.0901 40.4581C9.00346 40.2145 8.13557 39.2402 7.92771 38.2694C7.91313 38.2003 7.89854 38.1385 7.8876 38.0658C6.05336 37.8804 4.31029 38.0876 2.76777 38.6475C2.81882 38.7093 2.87717 38.7748 2.93187 38.8366C3.75235 39.8 3.91281 40.9417 3.06679 41.5016C2.27548 42.0251 1.0174 41.7779 0 41.058V35.5172C0 33.7466 1.4477 32.3032 3.2163 32.3032ZM3.88363 59.9964L3.79611 59.9382C3.85446 59.8619 3.9128 59.7928 3.97115 59.7201C4.81351 58.6766 4.84269 57.2078 3.79976 56.2116C2.75683 55.2082 1.18515 55.2082 0.0546996 55.9935L0.00364738 56.0298V56.797C0.00364738 58.5567 1.45135 60 3.21995 60H3.88363V59.9964ZM10.4147 43.1013C8.5841 42.745 6.86655 43.094 5.64859 44.0138L5.62306 44.0356C6.65505 43.5921 7.90219 43.4648 9.20767 43.7193C10.958 44.0647 12.5115 44.9846 13.7222 46.2171C14.9255 47.435 15.7825 48.9693 16.0378 50.6345C16.293 52.296 15.87 53.8084 14.9401 54.8664C14.2181 55.6917 13.208 56.2625 11.9499 56.4479C13.8899 56.5534 15.4069 55.8808 16.4061 54.7464C17.3761 53.6375 17.8173 52.056 17.5511 50.3181C17.2849 48.5875 16.3878 46.9806 15.1334 45.7081C13.868 44.4174 12.2453 43.4612 10.4147 43.1013ZM10.2834 42.2069C8.19027 41.7742 6.18464 42.1451 4.74788 43.1703C3.23454 44.2502 2.30465 46.0062 2.40311 48.2967C2.50157 50.5872 3.67213 52.914 5.4699 54.6555C7.24944 56.3825 9.63068 57.5132 11.9463 57.6332C14.2619 57.7495 16.0341 56.9242 17.1755 55.5608C18.2622 54.2665 18.7399 52.4341 18.419 50.4527C18.0981 48.4785 17.0734 46.6679 15.6476 45.2136C14.2181 43.7557 12.3766 42.6395 10.2834 42.2069Z" fill="#8DC63F"/>
<path fill-rule="evenodd" clip-rule="evenodd" d="M56.9634 32.3032H35.6199C33.8476 32.3032 32.4072 33.7466 32.4072 35.5136V56.7933C32.4072 58.553 33.8476 59.9964 35.6199 59.9964H56.9634C58.7284 59.9964 60.1761 58.553 60.1761 56.7933V35.5136C60.1761 33.7466 58.732 32.3032 56.9634 32.3032ZM43.2961 44.7882L45.8305 47.0315L45.8451 47.046L48.3831 49.2856C48.4633 49.2929 48.5472 49.2638 48.5982 49.202L49.0285 48.7148C49.0942 48.6385 49.1124 48.5403 49.0796 48.4567C49.0504 48.3731 49.0759 48.2822 49.1343 48.2167L49.2911 48.0313C49.5682 47.715 49.55 47.246 49.2619 46.966C48.9447 46.6679 48.9301 46.1735 49.2218 45.8426C50.7352 44.1375 52.2412 42.4359 53.7545 40.7381C53.8202 40.6654 53.7983 40.4109 53.7946 40.3091C53.6451 40.1382 53.6451 39.8691 53.8019 39.691L54.3963 39.0257C54.5386 38.8657 54.5604 38.6439 54.4766 38.473L55.421 37.4114C55.669 37.3678 55.9607 37.2005 56.2014 36.9278C56.2926 36.826 56.3691 36.7206 56.4275 36.6115C56.5697 36.357 56.5077 36.0371 56.2743 35.859L55.9826 35.6372L55.7273 35.3754C55.5231 35.1682 55.1986 35.1427 54.9616 35.3136C54.8595 35.3863 54.7646 35.4736 54.6735 35.5754C54.4328 35.848 54.2979 36.1571 54.2833 36.4079L53.3388 37.4696C53.1565 37.4078 52.9377 37.4514 52.7955 37.615L52.2011 38.284C52.0406 38.4621 51.7781 38.4948 51.5885 38.364C51.49 38.3749 51.2311 38.3858 51.1655 38.4548C49.6521 40.1564 48.1424 41.8506 46.6254 43.5521C46.3337 43.8793 45.8378 43.9229 45.5023 43.6466C45.1887 43.3958 44.7183 43.4321 44.4375 43.7448L44.2734 43.9229C44.215 43.9884 44.1239 44.0247 44.04 44.0066C43.9525 43.9848 43.854 44.0138 43.7884 44.0902L43.3544 44.5737C43.2961 44.6246 43.2779 44.7083 43.2961 44.7882ZM46.6436 51.6743C46.702 51.6088 46.6983 51.5107 46.6327 51.4561L46.4577 51.2562L47.6246 49.9037C47.6866 49.831 47.6793 49.7219 47.61 49.6601L45.3163 47.6314L45.3053 47.6205L43.0116 45.5917C42.9423 45.5299 42.8329 45.5372 42.7673 45.6063L41.5603 46.926L41.3378 46.777C41.2758 46.7224 41.1774 46.7261 41.119 46.7952L40.2511 47.7695C40.1928 47.8313 40.2001 47.9295 40.2657 47.9877L40.5429 48.2349C40.6122 48.2967 40.6195 48.4058 40.5538 48.4785L37.9392 51.4161C37.7058 51.6779 37.5563 52.0015 37.5089 52.3433C37.5053 52.4087 37.5271 52.4669 37.5782 52.5105C38.1945 53.0558 38.8107 53.6012 39.427 54.1466C39.4416 54.1575 39.4525 54.172 39.4671 54.1829C39.4708 54.1829 39.4708 54.1865 39.4744 54.1902C39.4781 54.1902 39.4781 54.1938 39.4817 54.1975C39.4963 54.2084 39.5072 54.2193 39.5218 54.2338C40.1381 54.7792 40.7544 55.3209 41.3707 55.8662C41.4217 55.9099 41.4837 55.9281 41.5457 55.9135C41.8812 55.8226 42.1875 55.6372 42.4172 55.3754L45.0318 52.4341C45.0975 52.3614 45.2032 52.3542 45.2762 52.416L45.5569 52.6596C45.6226 52.7177 45.721 52.7105 45.7757 52.645L46.6436 51.6743ZM39.0514 54.8555L38.9639 54.7792L38.953 54.7683L38.8654 54.6919L37.5454 53.5249L37.3995 53.6848L37.1297 54.8992C37.1114 54.9828 37.1369 55.07 37.2026 55.1246L37.436 55.3318C37.5344 55.4191 37.5381 55.5681 37.4506 55.6663L37.312 55.819C37.2536 55.8844 37.1661 55.9026 37.0786 55.8953C37.0385 55.8917 37.002 55.9026 36.9729 55.939L36.8015 56.128C36.7504 56.1826 36.7686 56.2771 36.8306 56.3389L37.0494 56.5316L37.2318 56.6952L37.2463 56.7097L37.6511 57.066C37.7204 57.1242 37.8152 57.1278 37.8663 57.0697L38.034 56.877C38.0632 56.8443 38.0705 56.8043 38.0632 56.7679C38.0449 56.6843 38.0522 56.5934 38.1106 56.5279L38.2455 56.3716C38.333 56.2734 38.4825 56.2625 38.581 56.3462L38.8144 56.5498C38.8764 56.6043 38.9675 56.6225 39.0478 56.5934L40.2256 56.1826L40.3678 56.019L39.0514 54.8555Z" fill="white"/>
</svg>
