<svg width="18" height="18" viewBox="0 0 18 18" fill="none" xmlns="http://www.w3.org/2000/svg">
<path d="M9.44423 8.22244C10.3033 8.22244 10.9998 7.52599 10.9998 6.66688C10.9998 5.80777 10.3033 5.11133 9.44423 5.11133C8.58512 5.11133 7.88867 5.80777 7.88867 6.66688C7.88867 7.52599 8.58512 8.22244 9.44423 8.22244Z" stroke="white" stroke-width="1.5" stroke-linecap="round" stroke-linejoin="round"/>
<path d="M9.44444 16C9.44444 16 14.8889 12.2308 14.8889 7.38462C14.8889 5.95653 14.3153 4.58693 13.2942 3.57712C12.2732 2.56731 10.8884 2 9.44444 2C8.00049 2 6.61567 2.56731 5.59464 3.57712C4.57361 4.58693 4 5.95653 4 7.38462C4 12.2308 9.44444 16 9.44444 16Z" stroke="white" stroke-width="1.5" stroke-linecap="round" stroke-linejoin="round"/>
</svg>
