<svg width="196" height="50" viewBox="0 0 196 50" fill="none" xmlns="http://www.w3.org/2000/svg">
<path d="M93.751 37.6845L104.05 11.8528H110.346L120.626 37.6845H113.437L111.425 31.4826H102.946L100.935 37.6845H93.751ZM104.545 26.5653H109.799L107.201 18.5485L104.545 26.5653Z" fill="#383F41"/>
<path d="M121.49 26.5653V11.8528H128.166V27.3682C128.166 29.0224 128.525 30.2525 129.239 31.0523C129.953 31.8552 131.062 32.2552 132.566 32.2552C134.071 32.2552 135.177 31.8552 135.885 31.0523C136.593 30.2495 136.948 29.0224 136.948 27.3682V11.8528H143.625V26.5653C143.625 30.1828 142.652 32.9853 140.71 34.9698C138.769 36.9543 136.049 37.9481 132.554 37.9481C129.059 37.9481 126.34 36.9543 124.398 34.9698C122.459 32.9853 121.49 30.1828 121.49 26.5653Z" fill="#383F41"/>
<path d="M147.244 17.5457V11.8528H168.904V17.5457H161.374V37.6875H154.698V17.5457H147.244Z" fill="#383F41"/>
<path d="M172.074 30.2918C171.582 28.6921 171.335 26.8439 171.335 24.7504C171.335 22.6568 171.582 20.8117 172.074 19.2089C172.566 17.6092 173.207 16.3367 174.001 15.3975C174.791 14.4583 175.736 13.6887 176.836 13.0919C177.936 12.495 179.018 12.0921 180.078 11.8921C181.142 11.6921 182.278 11.5891 183.494 11.5891C184.706 11.5891 185.846 11.6891 186.909 11.8921C187.973 12.0951 189.052 12.495 190.152 13.0919C191.252 13.6918 192.197 14.4613 192.987 15.3975C193.777 16.3367 194.418 17.6062 194.914 19.2089C195.406 20.8087 195.652 22.6568 195.652 24.7504C195.652 26.8439 195.406 28.689 194.914 30.2918C194.421 31.8915 193.777 33.164 192.987 34.1032C192.197 35.0424 191.252 35.812 190.152 36.4089C189.052 37.0088 187.97 37.4087 186.909 37.6086C185.849 37.8116 184.709 37.9116 183.494 37.9116C182.281 37.9116 181.142 37.8116 180.078 37.6086C179.015 37.4057 177.936 37.0057 176.836 36.4089C175.736 35.812 174.791 35.0424 174.001 34.1032C173.21 33.161 172.569 31.8915 172.074 30.2918ZM179.51 18.906C178.51 19.9906 178.012 21.9388 178.012 24.7504C178.012 27.562 178.51 29.5101 179.51 30.5948C180.51 31.6794 181.838 32.2217 183.494 32.2217C185.15 32.2217 186.478 31.6794 187.478 30.5948C188.478 29.5101 188.976 27.562 188.976 24.7504C188.976 21.9388 188.478 19.9906 187.478 18.906C186.478 17.8213 185.15 17.279 183.494 17.279C181.838 17.279 180.51 17.8213 179.51 18.906Z" fill="#383F41"/>
<path d="M70.4888 27.026V12.3135H77.1651V27.8289C77.1651 29.4831 77.5237 30.7132 78.2378 31.513C78.9519 32.3159 80.0611 32.7158 81.5653 32.7158C83.0695 32.7158 84.1757 32.3159 84.8837 31.513C85.5918 30.7101 85.9473 29.4831 85.9473 27.8289V12.3135H92.6236V27.026C92.6236 30.6435 91.6512 33.446 89.7094 35.4305C87.7676 37.415 85.0478 38.4088 81.5532 38.4088C78.0585 38.4088 75.3388 37.415 73.3969 35.4305C71.4582 33.446 70.4888 30.6435 70.4888 27.026Z" fill="#8DC63F"/>
<path fill-rule="evenodd" clip-rule="evenodd" d="M2.68025 0H20.4666C21.9434 0 23.1468 1.20281 23.1468 2.67224V20.4054C23.1468 21.8748 21.9434 23.0776 20.4666 23.0776H3.80766C4.59472 22.0172 5.5398 20.9265 6.51526 19.8146L3.53417 16.8424C2.32775 17.8937 1.14564 18.9087 0 19.7267V2.67224C0 1.20281 1.20642 0 2.68025 0ZM8.57559 14.7852C8.08938 14.3004 7.30536 14.3004 6.81915 14.7852C6.33597 15.27 6.33597 16.0516 6.81915 16.5334C7.30536 17.0181 8.08938 17.0181 8.57559 16.5334C9.06181 16.0516 9.06181 15.27 8.57559 14.7852ZM18.0081 14.1732L19.2449 12.9401C19.0565 10.1436 13.2311 4.33255 10.4262 4.14773L9.18944 5.37781C12.4623 6.79574 16.6315 10.998 18.0081 14.1732ZM17.4004 14.7791C16.2061 11.6555 11.7147 7.17446 8.58167 5.98377L7.76119 6.80483C10.9824 8.19851 15.1851 12.3856 16.5799 15.5972L17.4004 14.7791ZM15.9752 16.2001C14.7809 13.0764 10.2895 8.59541 7.15646 7.40472L6.33293 8.22578C9.57537 9.62553 13.7538 13.7854 15.1547 17.0181L15.9752 16.2001ZM14.5499 17.6211C13.3557 14.4974 8.86124 10.0164 5.73124 8.8287L0.322118 14.2186L1.99955 15.8911L2.93248 15.2912C3.20901 15.1154 3.5372 15.0639 3.76816 15.2912L3.96568 15.4881L7.84324 19.3541L8.06811 19.5813C8.29602 19.8085 8.24132 20.1388 8.06811 20.4115L7.46642 21.3446L9.14386 23.017L14.5499 17.6211Z" fill="#383F41"/>
<path fill-rule="evenodd" clip-rule="evenodd" d="M29.6834 0H47.4697C48.9405 0 50.1469 1.20281 50.1469 2.67224V18.6815L44.8259 13.0522C45.6889 10.9829 45.3121 8.51058 43.6742 6.7715C42.2429 5.25359 40.1856 4.66582 38.2772 5.03242L41.3008 8.23487L40.2555 11.713L36.7091 12.5492L33.6855 9.34982C33.2023 11.2313 33.6703 13.3097 35.1046 14.8246C36.7487 16.5606 39.201 17.0818 41.3282 16.3455L47.6824 23.0686C47.6155 23.0746 47.5426 23.0746 47.4757 23.0746H29.6894C28.2126 23.0746 27.0122 21.8718 27.0122 20.4024V2.67224C27.0062 1.20281 28.2065 0 29.6834 0Z" fill="#8DC63F"/>
<path fill-rule="evenodd" clip-rule="evenodd" d="M2.68025 26.9193H20.4666C21.9434 26.9193 23.1468 28.1221 23.1468 29.5946V47.3277C23.1468 48.7941 21.9434 49.997 20.4666 49.997H15.9113C15.3157 49.2183 15.1304 48.2185 15.6166 47.6004C16.1119 46.9763 17.0266 47.1096 17.765 47.7337C17.8137 47.7761 17.8623 47.8216 17.9109 47.864C18.4397 46.7157 18.6919 45.4069 18.6402 44.0011C18.5855 43.992 18.5339 43.9829 18.4822 43.9677C17.7043 43.789 16.9476 43.0982 16.8048 42.2499C16.8017 42.2499 16.8017 42.2499 16.7987 42.2438C16.6528 41.4076 17.1816 40.9168 17.917 40.9501C17.9656 40.9501 18.0173 40.9562 18.072 40.9592C17.6101 39.6079 16.9081 38.3324 16.0299 37.1841C15.9995 37.2084 15.963 37.2326 15.9296 37.2568C15.4221 37.6265 14.5834 37.5265 13.9331 36.8569C13.2797 36.1843 13.2098 35.3572 13.6201 34.8755C13.6474 34.8421 13.6717 34.8118 13.7021 34.7785C12.5534 33.8362 11.2467 33.0515 9.83671 32.5001C9.83975 32.5577 9.83975 32.6062 9.83975 32.6577C9.83975 32.6668 9.83975 32.6758 9.83975 32.691C9.83975 32.7061 9.83975 32.7152 9.83975 32.7243C9.83671 32.7334 9.83671 32.7486 9.83975 32.7577C9.83367 32.7667 9.83367 32.7819 9.83367 32.791C9.83063 32.8001 9.83063 32.8092 9.82759 32.8243C9.82759 32.8334 9.82455 32.8425 9.82455 32.8546C9.82152 32.8697 9.81848 32.8788 9.81848 32.8879C9.81544 32.9031 9.8124 32.9122 9.8124 32.9213C9.80936 32.9303 9.80632 32.9394 9.80632 32.9516C9.80328 32.9667 9.80024 32.9758 9.80024 32.9849C9.7972 32.994 9.79417 33.0031 9.79417 33.0152C9.79113 33.0243 9.78809 33.0394 9.78505 33.0455C9.78201 33.0546 9.77897 33.0637 9.77593 33.0758C9.7729 33.0849 9.76986 33.1 9.76682 33.1061C9.76074 33.1212 9.76074 33.1303 9.7577 33.1364C9.75466 33.1515 9.75162 33.1546 9.74554 33.1667C9.73947 33.1758 9.73947 33.1848 9.73643 33.197C9.73035 33.2061 9.72731 33.2121 9.72124 33.2212C9.71516 33.2303 9.71212 33.2394 9.70604 33.2515C9.69996 33.2606 9.69692 33.2697 9.69388 33.2757C9.68781 33.2848 9.68173 33.2939 9.67565 33.3C9.66957 33.3091 9.6635 33.3182 9.65742 33.3303C9.65134 33.3363 9.6483 33.3454 9.64526 33.3545C9.63919 33.3636 9.63007 33.3697 9.62399 33.3788C9.61792 33.3848 9.61184 33.3939 9.60576 33.3969C9.59968 33.406 9.5936 33.4121 9.58753 33.4212C9.58145 33.4303 9.57233 33.4363 9.56929 33.4393C9.56322 33.4484 9.5541 33.4545 9.55106 33.4636C9.54498 33.4696 9.53586 33.4787 9.52979 33.4818C9.52067 33.4909 9.51155 33.4969 9.50852 33.4999C9.50244 33.509 9.49332 33.5151 9.48724 33.5181C9.48117 33.5242 9.46901 33.5333 9.46597 33.5363C9.45686 33.5424 9.44774 33.5514 9.44166 33.5545C9.43254 33.5605 9.42343 33.5636 9.41735 33.5727C9.41127 33.5787 9.39912 33.5817 9.39304 33.5878C9.38696 33.5969 9.37785 33.5969 9.36873 33.6029C9.35961 33.609 9.3505 33.612 9.33834 33.6181C9.33834 33.6242 9.33834 33.6242 9.33834 33.6242C9.33226 33.6302 9.32315 33.6333 9.31403 33.6393C9.30491 33.6393 9.2958 33.6454 9.28668 33.6484C9.27453 33.6545 9.26845 33.6575 9.25629 33.6635C9.24718 33.6696 9.23806 33.6696 9.2259 33.6787C9.21983 33.6787 9.20767 33.6848 9.19552 33.6848C9.19552 33.6908 9.19552 33.6908 9.19552 33.6908C9.1864 33.6969 9.17728 33.6969 9.16817 33.6999C9.15601 33.706 9.14386 33.709 9.13778 33.709C9.12562 33.7151 9.11347 33.7181 9.10435 33.7181C9.09523 33.7181 9.08308 33.7241 9.07396 33.7241C9.07396 33.7302 9.07396 33.7302 9.07396 33.7302C9.06485 33.7302 9.05573 33.7363 9.04357 33.7363C9.03142 33.7423 9.0223 33.7423 9.01319 33.7453C8.99799 33.7453 8.98887 33.7453 8.97672 33.7453C8.96456 33.7514 8.95545 33.7514 8.94633 33.7514C8.93114 33.7575 8.92202 33.7575 8.90986 33.7575C8.89467 33.7575 8.88556 33.7635 8.8734 33.7575C8.86125 33.7635 8.84909 33.7635 8.83997 33.7635C8.82478 33.7635 8.81262 33.7635 8.80351 33.7635C8.78831 33.7635 8.77616 33.7696 8.764 33.7696C8.75185 33.7635 8.73665 33.7635 8.72754 33.7635C8.71538 33.7635 8.70019 33.7635 8.68803 33.7575C8.67588 33.7635 8.66068 33.7575 8.64853 33.7575C8.63637 33.7575 8.62118 33.7514 8.60902 33.7514C8.59687 33.7514 8.58167 33.7514 8.56952 33.7453C8.55432 33.7453 8.54217 33.7393 8.53001 33.7393C8.51785 33.7393 8.50266 33.7332 8.49051 33.7302C8.47531 33.7302 8.46316 33.7241 8.451 33.7241C8.43581 33.7181 8.42061 33.7181 8.40846 33.7151C7.50289 33.5121 6.77964 32.7001 6.60643 31.8911C6.59427 31.8336 6.58212 31.7821 6.573 31.7215C5.04447 31.567 3.5919 31.7397 2.30648 32.2062C2.34902 32.2577 2.39764 32.3123 2.44322 32.3638C3.12696 33.1667 3.26067 34.118 2.55566 34.5846C1.89623 35.0209 0.847835 34.8149 0 34.215V29.5976C0 28.1221 1.20642 26.9193 2.68025 26.9193ZM3.23636 49.997L3.16343 49.9485C3.21205 49.8849 3.26067 49.8273 3.30929 49.7667C4.01126 48.8972 4.03557 47.6731 3.16647 46.843C2.29736 46.0068 0.987622 46.0068 0.045583 46.6612L0.00303948 46.6915V47.3308C0.00303948 48.7972 1.20946 50 2.68329 50H3.23636V49.997ZM8.67892 35.9177C7.15342 35.6208 5.72213 35.9116 4.70716 36.6782L4.68589 36.6963C5.54588 36.3267 6.58516 36.2207 7.67306 36.4327C9.1317 36.7206 10.4262 37.4871 11.4351 38.5142C12.438 39.5292 13.1521 40.8077 13.3648 42.1953C13.5775 43.5799 13.225 44.8403 12.4501 45.722C11.8484 46.4097 11.0067 46.8854 9.95826 47.0399C11.5749 47.1278 12.8391 46.5673 13.6717 45.622C14.4801 44.6979 14.8478 43.38 14.6259 41.9317C14.4041 40.4896 13.6565 39.1504 12.6112 38.09C11.5567 37.0145 10.2044 36.2176 8.67892 35.9177ZM8.56952 35.1724C6.82523 34.8118 5.15387 35.1209 3.95656 35.9752C2.69545 36.8751 1.92055 38.3385 2.00259 40.2472C2.08464 42.1559 3.06011 44.095 4.55825 45.5462C6.0412 46.9854 8.02556 47.9276 9.95522 48.0276C11.8849 48.1246 13.3618 47.4368 14.3129 46.3007C15.2185 45.2221 15.6166 43.6951 15.3492 42.0438C15.0817 40.3987 14.2278 38.8899 13.0396 37.678C11.8484 36.463 10.3138 35.5329 8.56952 35.1724Z" fill="#8DC63F"/>
<path fill-rule="evenodd" clip-rule="evenodd" d="M47.4694 26.9193H29.6831C28.2062 26.9193 27.0059 28.1221 27.0059 29.5946V47.3277C27.0059 48.7941 28.2062 49.997 29.6831 49.997H47.4694C48.9402 49.997 50.1466 48.7941 50.1466 47.3277V29.5946C50.1466 28.1221 48.9432 26.9193 47.4694 26.9193ZM36.0798 37.3236L38.1918 39.1929L38.204 39.2051L40.319 41.0714C40.3858 41.0774 40.4557 41.0532 40.4983 41.0017L40.8569 40.5957C40.9116 40.5321 40.9268 40.4503 40.8994 40.3806C40.8751 40.3109 40.8964 40.2352 40.945 40.1806L41.0757 40.0261C41.3066 39.7625 41.2914 39.3717 41.0514 39.1384C40.787 38.89 40.7748 38.4779 41.0179 38.2022C42.279 36.7813 43.5341 35.3633 44.7952 33.9484C44.8499 33.8878 44.8317 33.6758 44.8286 33.5909C44.704 33.4485 44.704 33.2243 44.8347 33.0759L45.33 32.5214C45.4485 32.3881 45.4668 32.2033 45.3969 32.0609L46.1839 31.1762C46.3906 31.1398 46.6337 31.0005 46.8343 30.7732C46.9102 30.6884 46.974 30.6006 47.0227 30.5097C47.1412 30.2976 47.0895 30.031 46.895 29.8825L46.6519 29.6977L46.4392 29.4795C46.269 29.3068 45.9986 29.2856 45.8011 29.428C45.716 29.4886 45.637 29.5613 45.561 29.6462C45.3604 29.8734 45.248 30.1309 45.2358 30.34L44.4488 31.2247C44.2968 31.1732 44.1145 31.2095 43.996 31.3459L43.5007 31.9033C43.3669 32.0518 43.1481 32.0791 42.9901 31.97C42.9081 31.9791 42.6923 31.9882 42.6376 32.0457C41.3765 33.4637 40.1184 34.8755 38.8543 36.2935C38.6112 36.5661 38.1979 36.6025 37.9183 36.3722C37.657 36.1632 37.265 36.1935 37.031 36.454L36.8942 36.6025C36.8456 36.657 36.7696 36.6873 36.6997 36.6722C36.6268 36.654 36.5448 36.6782 36.4901 36.7419L36.1284 37.1448C36.0798 37.1872 36.0646 37.2569 36.0798 37.3236ZM38.8694 43.0619C38.9181 43.0074 38.915 42.9256 38.8603 42.8802L38.7145 42.7135L39.6869 41.5864C39.7386 41.5259 39.7325 41.435 39.6747 41.3835L37.7633 39.6929L37.7542 39.6838L35.8428 37.9932C35.785 37.9417 35.6939 37.9477 35.6392 38.0053L34.6333 39.1051L34.4479 38.9809C34.3963 38.9354 34.3142 38.9384 34.2656 38.996L33.5424 39.808C33.4937 39.8595 33.4998 39.9413 33.5545 39.9898L33.7855 40.1958C33.8432 40.2473 33.8493 40.3382 33.7946 40.3988L31.6157 42.8468C31.4213 43.065 31.2967 43.3346 31.2572 43.6194C31.2541 43.674 31.2724 43.7224 31.3149 43.7588C31.8285 44.2132 32.342 44.6677 32.8556 45.1222C32.8677 45.1313 32.8769 45.1434 32.889 45.1525C32.8921 45.1525 32.8921 45.1555 32.8951 45.1585C32.8981 45.1585 32.8981 45.1616 32.9012 45.1646C32.9133 45.1737 32.9224 45.1828 32.9346 45.1949C33.4482 45.6493 33.9617 46.1008 34.4753 46.5552C34.5178 46.5916 34.5695 46.6067 34.6212 46.5946C34.9007 46.5189 35.156 46.3644 35.3474 46.1462L37.5263 43.6952C37.581 43.6346 37.6691 43.6285 37.7299 43.68L37.9639 43.883C38.0186 43.9315 38.1006 43.9254 38.1462 43.8709L38.8694 43.0619ZM32.5426 45.713L32.4697 45.6494L32.4605 45.6403L32.3876 45.5766L31.2876 44.6041L31.166 44.7374L30.9411 45.7493C30.9259 45.819 30.9472 45.8917 31.0019 45.9372L31.1964 46.1099C31.2784 46.1826 31.2815 46.3068 31.2085 46.3886L31.0931 46.5159C31.0444 46.5704 30.9715 46.5855 30.8986 46.5795C30.8652 46.5765 30.8348 46.5855 30.8105 46.6158L30.6676 46.7734C30.6251 46.8188 30.6403 46.8976 30.6919 46.9491L30.8743 47.1097L31.0262 47.246L31.0384 47.2581L31.3757 47.5551C31.4334 47.6035 31.5124 47.6066 31.555 47.5581L31.6948 47.3975C31.7191 47.3702 31.7251 47.3369 31.7191 47.3066C31.7039 47.2369 31.7099 47.1612 31.7586 47.1067L31.871 46.9764C31.9439 46.8946 32.0685 46.8855 32.1506 46.9552L32.3451 47.1248C32.3967 47.1703 32.4727 47.1854 32.5396 47.1612L33.5211 46.8188L33.6396 46.6825L32.5426 45.713Z" fill="#383F41"/>
</svg>
