<svg width="16" height="16" viewBox="0 0 16 16" fill="none" xmlns="http://www.w3.org/2000/svg">
<path d="M4.6135 1H2.47368C1.65979 1 1 1.65979 1 2.47368C1 9.39178 6.60822 15 13.5263 15C14.3402 15 15 14.3402 15 13.5263V11.3865C15 10.7504 14.6127 10.1784 14.0222 9.9422L11.9722 9.12222C11.4417 8.91002 10.8376 9.00572 10.3986 9.3715L9.86908 9.8128C9.25102 10.3279 8.34219 10.2866 7.77329 9.71774L6.28226 8.22671C5.71337 7.65781 5.67214 6.74899 6.18719 6.13092L6.6285 5.60136C6.99428 5.16242 7.08998 4.55829 6.87778 4.0278L6.0578 1.97784C5.82157 1.38726 5.24958 1 4.6135 1Z" stroke="#383F41" stroke-width="1.5" stroke-linecap="round" stroke-linejoin="round"/>
</svg>
